<?xml version="1.0" encoding="UTF-8" standalone="no"?>
<!DOCTYPE svg PUBLIC "-//W3C//DTD SVG 1.1//EN"
 "http://www.w3.org/Graphics/SVG/1.1/DTD/svg11.dtd">
<!-- Generated by graphviz version 14.1.5 (20260411.2331)
 -->
<!-- Title: runtime_flow Pages: 1 -->
<svg width="697pt" height="616pt"
 viewBox="0.00 0.00 697.00 616.00" xmlns="http://www.w3.org/2000/svg" xmlns:xlink="http://www.w3.org/1999/xlink">
<g id="graph0" class="graph" transform="scale(1 1) rotate(0) translate(4 612.21)">
<title>runtime_flow</title>
<polygon fill="white" stroke="none" points="-4,4 -4,-612.21 693.25,-612.21 693.25,4 -4,4"/>
<g id="clust1" class="cluster">
<title>cluster_0</title>
<polygon fill="none" stroke="#999999" stroke-dasharray="5,2" points="223.88,-34.45 223.88,-111.45 297.88,-111.45 297.88,-34.45 223.88,-34.45"/>
<text xml:space="preserve" text-anchor="middle" x="260.88" y="-94.15" font-family="Times,serif" font-size="14.00">client&#45;sdk</text>
</g>
<g id="clust2" class="cluster">
<title>cluster_1</title>
<polygon fill="none" stroke="#999999" stroke-dasharray="5,2" points="534.75,-289.45 534.75,-366.45 681.25,-366.45 681.25,-289.45 534.75,-289.45"/>
<text xml:space="preserve" text-anchor="middle" x="608" y="-349.15" font-family="Times,serif" font-size="14.00">effect&#45;durable&#45;operators</text>
</g>
<g id="clust3" class="cluster">
<title>cluster_2</title>
<polygon fill="none" stroke="#999999" stroke-dasharray="5,2" points="8,-443.45 8,-520.45 146.25,-520.45 146.25,-443.45 8,-443.45"/>
<text xml:space="preserve" text-anchor="middle" x="77.12" y="-503.15" font-family="Times,serif" font-size="14.00">effect&#45;durable&#45;streams</text>
</g>
<g id="clust4" class="cluster">
<title>cluster_3</title>
<polygon fill="none" stroke="#999999" stroke-dasharray="5,2" points="404.12,-34.45 404.12,-111.45 481.12,-111.45 481.12,-34.45 404.12,-34.45"/>
<text xml:space="preserve" text-anchor="middle" x="442.62" y="-94.15" font-family="Times,serif" font-size="14.00">runtime</text>
</g>
<g id="clust5" class="cluster">
<title>cluster_4</title>
<polygon fill="none" stroke="#999999" stroke-dasharray="5,2" points="36.12,-351.45 36.12,-428.45 118.12,-428.45 118.12,-351.45 36.12,-351.45"/>
<text xml:space="preserve" text-anchor="middle" x="77.12" y="-411.15" font-family="Times,serif" font-size="14.00">tiny&#45;firegrid</text>
</g>
<g id="clust6" class="cluster">
<title>cluster_5</title>
<polygon fill="none" stroke="#999999" stroke-dasharray="5,2" points="173.25,-119.45 173.25,-520.45 507.75,-520.45 507.75,-119.45 173.25,-119.45"/>
<text xml:space="preserve" text-anchor="middle" x="340.5" y="-503.15" font-family="Times,serif" font-size="14.00">~unattributed</text>
</g>
<!-- client&#45;sdk -->
<g id="node1" class="node">
<title>client&#45;sdk</title>
<path fill="#4e79a7" fill-opacity="0.200000" stroke="black" stroke-width="1.2" d="M277.88,-78.45C277.88,-78.45 243.88,-78.45 243.88,-78.45 237.88,-78.45 231.88,-72.45 231.88,-66.45 231.88,-66.45 231.88,-54.45 231.88,-54.45 231.88,-48.45 237.88,-42.45 243.88,-42.45 243.88,-42.45 277.88,-42.45 277.88,-42.45 283.88,-42.45 289.88,-48.45 289.88,-54.45 289.88,-54.45 289.88,-66.45 289.88,-66.45 289.88,-72.45 283.88,-78.45 277.88,-78.45"/>
<text xml:space="preserve" text-anchor="middle" x="260.88" y="-62.2" font-family="Helvetica,sans-Serif" font-size="10.00">client&#45;sdk</text>
<text xml:space="preserve" text-anchor="middle" x="260.88" y="-50.95" font-family="Helvetica,sans-Serif" font-size="10.00">8 spans</text>
</g>
<!-- effect&#45;durable&#45;operators -->
<g id="node2" class="node">
<title>effect&#45;durable&#45;operators</title>
<path fill="#f28e2b" fill-opacity="0.200000" stroke="black" stroke-width="4" d="M654.88,-333.45C654.88,-333.45 560.12,-333.45 560.12,-333.45 554.12,-333.45 548.12,-327.45 548.12,-321.45 548.12,-321.45 548.12,-309.45 548.12,-309.45 548.12,-303.45 554.12,-297.45 560.12,-297.45 560.12,-297.45 654.88,-297.45 654.88,-297.45 660.88,-297.45 666.88,-303.45 666.88,-309.45 666.88,-309.45 666.88,-321.45 666.88,-321.45 666.88,-327.45 660.88,-333.45 654.88,-333.45"/>
<text xml:space="preserve" text-anchor="middle" x="607.5" y="-317.2" font-family="Helvetica,sans-Serif" font-size="10.00">effect&#45;durable&#45;operators</text>
<text xml:space="preserve" text-anchor="middle" x="607.5" y="-305.95" font-family="Helvetica,sans-Serif" font-size="10.00">132 spans</text>
</g>
<!-- client&#45;sdk&#45;&gt;effect&#45;durable&#45;operators -->
<g id="edge15" class="edge">
<title>client&#45;sdk&#45;&gt;effect&#45;durable&#45;operators</title>
<path fill="none" stroke="#e15759" stroke-width="0.6" d="M290.35,-43.83C339.56,-17.52 441.6,26.11 507.75,-21.45 593.56,-83.15 605.84,-223.07 606.89,-285"/>
<polygon fill="#e15759" stroke="#e15759" stroke-width="0.6" points="603.39,-284.73 606.97,-294.71 610.39,-284.68 603.39,-284.73"/>
<text xml:space="preserve" text-anchor="middle" x="442.62" y="-22.85" font-family="Helvetica,sans-Serif" font-size="8.00">2</text>
</g>
<!-- runtime -->
<g id="node4" class="node">
<title>runtime</title>
<path fill="#e15759" fill-opacity="0.200000" stroke="black" stroke-width="3.7" d="M461.12,-78.45C461.12,-78.45 424.12,-78.45 424.12,-78.45 418.12,-78.45 412.12,-72.45 412.12,-66.45 412.12,-66.45 412.12,-54.45 412.12,-54.45 412.12,-48.45 418.12,-42.45 424.12,-42.45 424.12,-42.45 461.12,-42.45 461.12,-42.45 467.12,-42.45 473.12,-48.45 473.12,-54.45 473.12,-54.45 473.12,-66.45 473.12,-66.45 473.12,-72.45 467.12,-78.45 461.12,-78.45"/>
<text xml:space="preserve" text-anchor="middle" x="442.62" y="-62.2" font-family="Helvetica,sans-Serif" font-size="10.00">runtime</text>
<text xml:space="preserve" text-anchor="middle" x="442.62" y="-50.95" font-family="Helvetica,sans-Serif" font-size="10.00">119 spans</text>
</g>
<!-- client&#45;sdk&#45;&gt;runtime -->
<g id="edge14" class="edge">
<title>client&#45;sdk&#45;&gt;runtime</title>
<path fill="none" stroke="#e15759" stroke-width="0.6" d="M290.36,-60.45C319.8,-60.45 366.07,-60.45 399.69,-60.45"/>
<polygon fill="#e15759" stroke="#e15759" stroke-width="0.6" points="399.65,-63.95 409.65,-60.45 399.65,-56.95 399.65,-63.95"/>
<text xml:space="preserve" text-anchor="middle" x="363" y="-61.85" font-family="Helvetica,sans-Serif" font-size="8.00">2</text>
</g>
<!-- ~firegrid.unified.session -->
<g id="node10" class="node">
<title>~firegrid.unified.session</title>
<path fill="#edc948" fill-opacity="0.200000" stroke="black" d="M308.62,-217.45C308.62,-217.45 213.12,-217.45 213.12,-217.45 207.12,-217.45 201.12,-211.45 201.12,-205.45 201.12,-205.45 201.12,-193.45 201.12,-193.45 201.12,-187.45 207.12,-181.45 213.12,-181.45 213.12,-181.45 308.62,-181.45 308.62,-181.45 314.62,-181.45 320.62,-187.45 320.62,-193.45 320.62,-193.45 320.62,-205.45 320.62,-205.45 320.62,-211.45 314.62,-217.45 308.62,-217.45"/>
<text xml:space="preserve" text-anchor="middle" x="260.88" y="-201.2" font-family="Helvetica,sans-Serif" font-size="10.00">~firegrid.unified.session</text>
<text xml:space="preserve" text-anchor="middle" x="260.88" y="-189.95" font-family="Helvetica,sans-Serif" font-size="10.00">2 spans</text>
</g>
<!-- client&#45;sdk&#45;&gt;~firegrid.unified.session -->
<g id="edge16" class="edge">
<title>client&#45;sdk&#45;&gt;~firegrid.unified.session</title>
<path fill="none" stroke="#333333" stroke-width="0.6" stroke-opacity="0.600000" d="M231.66,-70.51C211.73,-79.07 186.86,-93.53 174.85,-115.45 162.69,-137.68 159.86,-152.03 174.85,-172.45 179.21,-178.39 184.87,-183.05 191.21,-186.72"/>
<polygon fill="#333333" fill-opacity="0.600000" stroke="#333333" stroke-width="0.6" stroke-opacity="0.600000" points="189.56,-189.81 200.08,-191 192.6,-183.5 189.56,-189.81"/>
<text xml:space="preserve" text-anchor="middle" x="158.75" y="-155.35" font-family="Helvetica,sans-Serif" font-size="8.00">2</text>
</g>
<!-- effect&#45;durable&#45;streams -->
<g id="node3" class="node">
<title>effect&#45;durable&#45;streams</title>
<path fill="#59a14f" fill-opacity="0.200000" stroke="black" stroke-width="1.4" d="M121.38,-487.45C121.38,-487.45 31.88,-487.45 31.88,-487.45 25.87,-487.45 19.88,-481.45 19.88,-475.45 19.88,-475.45 19.88,-463.45 19.88,-463.45 19.88,-457.45 25.88,-451.45 31.88,-451.45 31.88,-451.45 121.38,-451.45 121.38,-451.45 127.38,-451.45 133.38,-457.45 133.38,-463.45 133.38,-463.45 133.38,-475.45 133.38,-475.45 133.38,-481.45 127.38,-487.45 121.38,-487.45"/>
<text xml:space="preserve" text-anchor="middle" x="76.62" y="-471.2" font-family="Helvetica,sans-Serif" font-size="10.00">effect&#45;durable&#45;streams</text>
<text xml:space="preserve" text-anchor="middle" x="76.62" y="-459.95" font-family="Helvetica,sans-Serif" font-size="10.00">16 spans</text>
</g>
<!-- effect&#45;durable&#45;operators&#45;&gt;effect&#45;durable&#45;streams -->
<g id="edge1" class="edge">
<title>effect&#45;durable&#45;operators&#45;&gt;effect&#45;durable&#45;streams</title>
<path fill="none" stroke="#333333" stroke-width="1.3" stroke-opacity="0.600000" d="M605.79,-335.37C602.82,-384.05 587.4,-508.27 507.75,-551.45 377.05,-622.31 310.78,-607.9 173.25,-551.45 144.56,-539.68 118.32,-515.79 100.61,-496.82"/>
<polygon fill="#333333" fill-opacity="0.600000" stroke="#333333" stroke-width="1.3" stroke-opacity="0.600000" points="103.25,-494.52 93.95,-489.44 98.05,-499.21 103.25,-494.52"/>
<text xml:space="preserve" text-anchor="middle" x="363" y="-600.61" font-family="Helvetica,sans-Serif" font-size="8.00">16</text>
</g>
<!-- ~http -->
<g id="node11" class="node">
<title>~http</title>
<path fill="#edc948" fill-opacity="0.200000" stroke="black" stroke-width="1.4" d="M276.75,-487.45C276.75,-487.45 245,-487.45 245,-487.45 239,-487.45 233,-481.45 233,-475.45 233,-475.45 233,-463.45 233,-463.45 233,-457.45 239,-451.45 245,-451.45 245,-451.45 276.75,-451.45 276.75,-451.45 282.75,-451.45 288.75,-457.45 288.75,-463.45 288.75,-463.45 288.75,-475.45 288.75,-475.45 288.75,-481.45 282.75,-487.45 276.75,-487.45"/>
<text xml:space="preserve" text-anchor="middle" x="260.88" y="-471.2" font-family="Helvetica,sans-Serif" font-size="10.00">~http</text>
<text xml:space="preserve" text-anchor="middle" x="260.88" y="-459.95" font-family="Helvetica,sans-Serif" font-size="10.00">16 spans</text>
</g>
<!-- effect&#45;durable&#45;streams&#45;&gt;~http -->
<g id="edge8" class="edge">
<title>effect&#45;durable&#45;streams&#45;&gt;~http</title>
<path fill="none" stroke="#333333" stroke-width="1.3" stroke-opacity="0.600000" d="M133.79,-469.45C162.02,-469.45 195.51,-469.45 220.88,-469.45"/>
<polygon fill="#333333" fill-opacity="0.600000" stroke="#333333" stroke-width="1.3" stroke-opacity="0.600000" points="220.66,-472.95 230.66,-469.45 220.66,-465.95 220.66,-472.95"/>
<text xml:space="preserve" text-anchor="middle" x="158.75" y="-470.85" font-family="Helvetica,sans-Serif" font-size="8.00">16</text>
</g>
<!-- runtime&#45;&gt;effect&#45;durable&#45;operators -->
<g id="edge5" class="edge">
<title>runtime&#45;&gt;effect&#45;durable&#45;operators</title>
<path fill="none" stroke="#333333" stroke-width="4.5" stroke-opacity="0.600000" d="M471.46,-80.26C483.66,-89.9 497.5,-102.25 507.75,-115.45 548.11,-167.43 578.4,-238.54 594.21,-280.47"/>
<polygon fill="#333333" fill-opacity="0.600000" stroke="#333333" stroke-width="4.5" stroke-opacity="0.600000" points="590.47,-281.71 597.61,-289.75 597.86,-279 590.47,-281.71"/>
<text xml:space="preserve" text-anchor="middle" x="522.25" y="-141.48" font-family="Helvetica,sans-Serif" font-size="8.00">84</text>
</g>
<!-- ~_changed -->
<g id="node7" class="node">
<title>~_changed</title>
<path fill="#edc948" fill-opacity="0.200000" stroke="black" stroke-width="1.2" d="M280.88,-163.45C280.88,-163.45 240.88,-163.45 240.88,-163.45 234.88,-163.45 228.88,-157.45 228.88,-151.45 228.88,-151.45 228.88,-139.45 228.88,-139.45 228.88,-133.45 234.88,-127.45 240.88,-127.45 240.88,-127.45 280.88,-127.45 280.88,-127.45 286.88,-127.45 292.88,-133.45 292.88,-139.45 292.88,-139.45 292.88,-151.45 292.88,-151.45 292.88,-157.45 286.88,-163.45 280.88,-163.45"/>
<text xml:space="preserve" text-anchor="middle" x="260.88" y="-147.2" font-family="Helvetica,sans-Serif" font-size="10.00">~_changed</text>
<text xml:space="preserve" text-anchor="middle" x="260.88" y="-135.95" font-family="Helvetica,sans-Serif" font-size="10.00">11 spans</text>
</g>
<!-- runtime&#45;&gt;~_changed -->
<g id="edge6" class="edge">
<title>runtime&#45;&gt;~_changed</title>
<path fill="none" stroke="#333333" stroke-opacity="0.600000" d="M410.3,-78.9C390.6,-90.15 364.46,-104.43 340.5,-115.45 328.81,-120.83 315.87,-126.06 303.91,-130.6"/>
<polygon fill="#333333" fill-opacity="0.600000" stroke="#333333" stroke-opacity="0.600000" points="302.83,-127.27 294.68,-134.04 305.28,-133.83 302.83,-127.27"/>
<text xml:space="preserve" text-anchor="middle" x="363" y="-107.28" font-family="Helvetica,sans-Serif" font-size="8.00">11</text>
</g>
<!-- ~unified -->
<g id="node8" class="node">
<title>~unified</title>
<path fill="#edc948" fill-opacity="0.200000" stroke="black" stroke-width="1.3" d="M276.75,-271.45C276.75,-271.45 245,-271.45 245,-271.45 239,-271.45 233,-265.45 233,-259.45 233,-259.45 233,-247.45 233,-247.45 233,-241.45 239,-235.45 245,-235.45 245,-235.45 276.75,-235.45 276.75,-235.45 282.75,-235.45 288.75,-241.45 288.75,-247.45 288.75,-247.45 288.75,-259.45 288.75,-259.45 288.75,-265.45 282.75,-271.45 276.75,-271.45"/>
<text xml:space="preserve" text-anchor="middle" x="260.88" y="-255.2" font-family="Helvetica,sans-Serif" font-size="10.00">~unified</text>
<text xml:space="preserve" text-anchor="middle" x="260.88" y="-243.95" font-family="Helvetica,sans-Serif" font-size="10.00">14 spans</text>
</g>
<!-- runtime&#45;&gt;~unified -->
<g id="edge7" class="edge">
<title>runtime&#45;&gt;~unified</title>
<path fill="none" stroke="#333333" stroke-width="1.2" stroke-opacity="0.600000" d="M417.13,-80.19C406.31,-89.91 394.11,-102.34 385.5,-115.45 373.23,-134.16 375.85,-141.7 367.5,-162.45 361.74,-176.78 351.78,-215.92 340.5,-226.45 329.54,-236.69 314.52,-243.06 300.55,-247.03"/>
<polygon fill="#333333" fill-opacity="0.600000" stroke="#333333" stroke-width="1.2" stroke-opacity="0.600000" points="299.81,-243.6 290.93,-249.39 301.48,-250.4 299.81,-243.6"/>
<text xml:space="preserve" text-anchor="middle" x="363" y="-189.54" font-family="Helvetica,sans-Serif" font-size="8.00">14</text>
</g>
<!-- tiny&#45;firegrid -->
<g id="node5" class="node">
<title>tiny&#45;firegrid</title>
<path fill="#76b7b2" fill-opacity="0.200000" stroke="black" stroke-width="1.1" d="M96.62,-395.45C96.62,-395.45 56.62,-395.45 56.62,-395.45 50.62,-395.45 44.62,-389.45 44.62,-383.45 44.62,-383.45 44.62,-371.45 44.62,-371.45 44.62,-365.45 50.62,-359.45 56.62,-359.45 56.62,-359.45 96.62,-359.45 96.62,-359.45 102.62,-359.45 108.62,-365.45 108.62,-371.45 108.62,-371.45 108.62,-383.45 108.62,-383.45 108.62,-389.45 102.62,-395.45 96.62,-395.45"/>
<text xml:space="preserve" text-anchor="middle" x="76.62" y="-379.2" font-family="Helvetica,sans-Serif" font-size="10.00">tiny&#45;firegrid</text>
<text xml:space="preserve" text-anchor="middle" x="76.62" y="-367.95" font-family="Helvetica,sans-Serif" font-size="10.00">6 spans</text>
</g>
<!-- tiny&#45;firegrid&#45;&gt;effect&#45;durable&#45;operators -->
<g id="edge20" class="edge">
<title>tiny&#45;firegrid&#45;&gt;effect&#45;durable&#45;operators</title>
<path fill="none" stroke="#e15759" stroke-width="0.6" d="M106.18,-395.84C120.63,-406.72 137.02,-421.82 146.25,-439.45 164.63,-474.57 137.39,-507.57 173.25,-524.45 240.5,-556.13 444.96,-564.24 507.75,-524.45 570.36,-484.79 594.03,-393.57 602.36,-345.84"/>
<polygon fill="#e15759" stroke="#e15759" stroke-width="0.6" points="605.78,-346.57 603.93,-336.14 598.87,-345.45 605.78,-346.57"/>
<text xml:space="preserve" text-anchor="middle" x="363" y="-552.7" font-family="Helvetica,sans-Serif" font-size="8.00">2</text>
</g>
<!-- ~firegrid.client.session -->
<g id="node6" class="node">
<title>~firegrid.client.session</title>
<path fill="#edc948" fill-opacity="0.200000" stroke="black" stroke-width="1.3" d="M487.75,-359.45C487.75,-359.45 397.5,-359.45 397.5,-359.45 391.5,-359.45 385.5,-353.45 385.5,-347.45 385.5,-347.45 385.5,-335.45 385.5,-335.45 385.5,-329.45 391.5,-323.45 397.5,-323.45 397.5,-323.45 487.75,-323.45 487.75,-323.45 493.75,-323.45 499.75,-329.45 499.75,-335.45 499.75,-335.45 499.75,-347.45 499.75,-347.45 499.75,-353.45 493.75,-359.45 487.75,-359.45"/>
<text xml:space="preserve" text-anchor="middle" x="442.62" y="-343.2" font-family="Helvetica,sans-Serif" font-size="10.00">~firegrid.client.session</text>
<text xml:space="preserve" text-anchor="middle" x="442.62" y="-331.95" font-family="Helvetica,sans-Serif" font-size="10.00">12 spans</text>
</g>
<!-- tiny&#45;firegrid&#45;&gt;~firegrid.client.session -->
<g id="edge21" class="edge">
<title>tiny&#45;firegrid&#45;&gt;~firegrid.client.session</title>
<path fill="none" stroke="#333333" stroke-width="0.7" stroke-opacity="0.600000" d="M105.45,-395.78C119.86,-406.75 136.45,-421.94 146.25,-439.45 155.74,-456.42 143.93,-465.98 154.25,-482.45 159.82,-491.34 163.29,-493.18 173.25,-496.45 243.87,-519.66 275.14,-531.85 340.5,-496.45 390,-469.65 419.11,-406.93 432.56,-370.02"/>
<polygon fill="#333333" fill-opacity="0.600000" stroke="#333333" stroke-width="0.7" stroke-opacity="0.600000" points="435.75,-371.49 435.74,-360.9 429.14,-369.19 435.75,-371.49"/>
<text xml:space="preserve" text-anchor="middle" x="260.88" y="-520.06" font-family="Helvetica,sans-Serif" font-size="8.00">4</text>
</g>
<!-- ~firegrid.codex_.marker_only -->
<g id="node9" class="node">
<title>~firegrid.codex_.marker_only</title>
<path fill="#edc948" fill-opacity="0.200000" stroke="black" d="M319.88,-433.45C319.88,-433.45 201.88,-433.45 201.88,-433.45 195.88,-433.45 189.88,-427.45 189.88,-421.45 189.88,-421.45 189.88,-409.45 189.88,-409.45 189.88,-403.45 195.88,-397.45 201.88,-397.45 201.88,-397.45 319.88,-397.45 319.88,-397.45 325.88,-397.45 331.88,-403.45 331.88,-409.45 331.88,-409.45 331.88,-421.45 331.88,-421.45 331.88,-427.45 325.88,-433.45 319.88,-433.45"/>
<text xml:space="preserve" text-anchor="middle" x="260.88" y="-417.2" font-family="Helvetica,sans-Serif" font-size="10.00">~firegrid.codex_.marker_only</text>
<text xml:space="preserve" text-anchor="middle" x="260.88" y="-405.95" font-family="Helvetica,sans-Serif" font-size="10.00">1 spans</text>
</g>
<!-- tiny&#45;firegrid&#45;&gt;~firegrid.codex_.marker_only -->
<g id="edge17" class="edge">
<title>tiny&#45;firegrid&#45;&gt;~firegrid.codex_.marker_only</title>
<path fill="none" stroke="#333333" stroke-width="0.5" stroke-opacity="0.600000" d="M108.95,-383.99C128.45,-388.05 154.5,-393.48 179.45,-398.69"/>
<polygon fill="#333333" fill-opacity="0.600000" stroke="#333333" stroke-width="0.5" stroke-opacity="0.600000" points="178.44,-402.05 188.94,-400.67 179.87,-395.2 178.44,-402.05"/>
<text xml:space="preserve" text-anchor="middle" x="158.75" y="-395.58" font-family="Helvetica,sans-Serif" font-size="8.00">1</text>
</g>
<!-- ~firegrid.codex_.explicit_mcp_url -->
<g id="node12" class="node">
<title>~firegrid.codex_.explicit_mcp_url</title>
<path fill="#edc948" fill-opacity="0.200000" stroke="black" d="M328.5,-379.45C328.5,-379.45 193.25,-379.45 193.25,-379.45 187.25,-379.45 181.25,-373.45 181.25,-367.45 181.25,-367.45 181.25,-355.45 181.25,-355.45 181.25,-349.45 187.25,-343.45 193.25,-343.45 193.25,-343.45 328.5,-343.45 328.5,-343.45 334.5,-343.45 340.5,-349.45 340.5,-355.45 340.5,-355.45 340.5,-367.45 340.5,-367.45 340.5,-373.45 334.5,-379.45 328.5,-379.45"/>
<text xml:space="preserve" text-anchor="middle" x="260.88" y="-363.2" font-family="Helvetica,sans-Serif" font-size="10.00">~firegrid.codex_.explicit_mcp_url</text>
<text xml:space="preserve" text-anchor="middle" x="260.88" y="-351.95" font-family="Helvetica,sans-Serif" font-size="10.00">1 spans</text>
</g>
<!-- tiny&#45;firegrid&#45;&gt;~firegrid.codex_.explicit_mcp_url -->
<g id="edge18" class="edge">
<title>tiny&#45;firegrid&#45;&gt;~firegrid.codex_.explicit_mcp_url</title>
<path fill="none" stroke="#333333" stroke-width="0.5" stroke-opacity="0.600000" d="M108.95,-374.7C126.09,-373.2 148.27,-371.25 170.33,-369.32"/>
<polygon fill="#333333" fill-opacity="0.600000" stroke="#333333" stroke-width="0.5" stroke-opacity="0.600000" points="170.37,-372.83 180.02,-368.47 169.76,-365.85 170.37,-372.83"/>
<text xml:space="preserve" text-anchor="middle" x="158.75" y="-371.81" font-family="Helvetica,sans-Serif" font-size="8.00">1</text>
</g>
<!-- ~firegrid.side.driver -->
<g id="node13" class="node">
<title>~firegrid.side.driver</title>
<path fill="#edc948" fill-opacity="0.200000" stroke="black" d="M298.5,-325.45C298.5,-325.45 223.25,-325.45 223.25,-325.45 217.25,-325.45 211.25,-319.45 211.25,-313.45 211.25,-313.45 211.25,-301.45 211.25,-301.45 211.25,-295.45 217.25,-289.45 223.25,-289.45 223.25,-289.45 298.5,-289.45 298.5,-289.45 304.5,-289.45 310.5,-295.45 310.5,-301.45 310.5,-301.45 310.5,-313.45 310.5,-313.45 310.5,-319.45 304.5,-325.45 298.5,-325.45"/>
<text xml:space="preserve" text-anchor="middle" x="260.88" y="-309.2" font-family="Helvetica,sans-Serif" font-size="10.00">~firegrid.side.driver</text>
<text xml:space="preserve" text-anchor="middle" x="260.88" y="-297.95" font-family="Helvetica,sans-Serif" font-size="10.00">2 spans</text>
</g>
<!-- tiny&#45;firegrid&#45;&gt;~firegrid.side.driver -->
<g id="edge19" class="edge">
<title>tiny&#45;firegrid&#45;&gt;~firegrid.side.driver</title>
<path fill="none" stroke="#333333" stroke-width="0.6" stroke-opacity="0.600000" d="M109.1,-362.15C127.56,-353.46 151.46,-342.71 173.25,-334.45 182.03,-331.13 191.41,-327.89 200.64,-324.87"/>
<polygon fill="#333333" fill-opacity="0.600000" stroke="#333333" stroke-width="0.6" stroke-opacity="0.600000" points="201.64,-328.23 210.09,-321.85 199.5,-321.56 201.64,-328.23"/>
<text xml:space="preserve" text-anchor="middle" x="158.75" y="-343.28" font-family="Helvetica,sans-Serif" font-size="8.00">2</text>
</g>
<!-- ~firegrid.client.session&#45;&gt;client&#45;sdk -->
<g id="edge10" class="edge">
<title>~firegrid.client.session&#45;&gt;client&#45;sdk</title>
<path fill="none" stroke="#333333" stroke-width="0.8" stroke-opacity="0.600000" d="M398.46,-323.01C382.79,-313.89 366.9,-301.19 358.5,-284.45 324.63,-216.94 378.9,-180.5 340.5,-115.45 331.12,-99.57 315.14,-87.13 300.03,-78.14"/>
<polygon fill="#333333" fill-opacity="0.600000" stroke="#333333" stroke-width="0.8" stroke-opacity="0.600000" points="301.8,-75.12 291.36,-73.31 298.4,-81.23 301.8,-75.12"/>
<text xml:space="preserve" text-anchor="middle" x="363" y="-299.28" font-family="Helvetica,sans-Serif" font-size="8.00">6</text>
</g>
<!-- ~firegrid.client.session&#45;&gt;effect&#45;durable&#45;operators -->
<g id="edge9" class="edge">
<title>~firegrid.client.session&#45;&gt;effect&#45;durable&#45;operators</title>
<path fill="none" stroke="#333333" stroke-width="1.3" stroke-opacity="0.600000" d="M500.13,-332.43C511.3,-330.65 523.15,-328.76 534.74,-326.91"/>
<polygon fill="#333333" fill-opacity="0.600000" stroke="#333333" stroke-width="1.3" stroke-opacity="0.600000" points="534.94,-330.42 544.26,-325.39 533.84,-323.51 534.94,-330.42"/>
<text xml:space="preserve" text-anchor="middle" x="522.25" y="-330.63" font-family="Helvetica,sans-Serif" font-size="8.00">16</text>
</g>
<!-- ~firegrid.client.session&#45;&gt;runtime -->
<g id="edge11" class="edge">
<title>~firegrid.client.session&#45;&gt;runtime</title>
<path fill="none" stroke="#333333" stroke-width="0.7" stroke-opacity="0.600000" d="M401.78,-322.99C395.83,-319.11 390.15,-314.6 385.5,-309.45 375.91,-298.85 375.6,-293.95 372.69,-279.95 357.77,-208.16 354.05,-181.7 385.5,-115.45 390.47,-104.99 398.34,-95.47 406.67,-87.39"/>
<polygon fill="#333333" fill-opacity="0.600000" stroke="#333333" stroke-width="0.7" stroke-opacity="0.600000" points="408.86,-90.13 413.93,-80.83 404.16,-84.94 408.86,-90.13"/>
<text xml:space="preserve" text-anchor="middle" x="363" y="-272.35" font-family="Helvetica,sans-Serif" font-size="8.00">4</text>
</g>
<!-- ~unified&#45;&gt;runtime -->
<g id="edge13" class="edge">
<title>~unified&#45;&gt;runtime</title>
<path fill="none" stroke="#333333" stroke-width="1.2" stroke-opacity="0.600000" d="M289.07,-247.39C304.87,-243.09 324.71,-236.31 340.5,-226.45 354.9,-217.47 359.39,-214.36 367.5,-199.45 385.75,-165.92 367.08,-148.9 385.5,-115.45 391.02,-105.43 398.95,-96.07 407.11,-88.02"/>
<polygon fill="#333333" fill-opacity="0.600000" stroke="#333333" stroke-width="1.2" stroke-opacity="0.600000" points="409.33,-90.73 414.28,-81.36 404.57,-85.6 409.33,-90.73"/>
<text xml:space="preserve" text-anchor="middle" x="363" y="-214.21" font-family="Helvetica,sans-Serif" font-size="8.00">14</text>
</g>
<!-- ~firegrid.codex_.marker_only&#45;&gt;~firegrid.client.session -->
<g id="edge12" class="edge">
<title>~firegrid.codex_.marker_only&#45;&gt;~firegrid.client.session</title>
<path fill="none" stroke="#333333" stroke-width="0.7" stroke-opacity="0.600000" d="M317.98,-396.99C325.59,-394.25 333.27,-391.37 340.5,-388.45 358.36,-381.26 377.61,-372.56 394.48,-364.61"/>
<polygon fill="#333333" fill-opacity="0.600000" stroke="#333333" stroke-width="0.7" stroke-opacity="0.600000" points="395.61,-367.94 403.14,-360.49 392.61,-361.62 395.61,-367.94"/>
<text xml:space="preserve" text-anchor="middle" x="363" y="-381.6" font-family="Helvetica,sans-Serif" font-size="8.00">4</text>
</g>
<!-- ~firegrid.unified.session&#45;&gt;runtime -->
<g id="edge23" class="edge">
<title>~firegrid.unified.session&#45;&gt;runtime</title>
<path fill="none" stroke="#333333" stroke-width="0.6" stroke-opacity="0.600000" d="M320.83,-183.43C327.76,-180.34 334.5,-176.71 340.5,-172.45 353.67,-163.12 374.71,-127.46 385.5,-115.45 393.96,-106.04 403.67,-96.22 412.6,-87.53"/>
<polygon fill="#333333" fill-opacity="0.600000" stroke="#333333" stroke-width="0.6" stroke-opacity="0.600000" points="414.76,-90.3 419.54,-80.85 409.91,-85.26 414.76,-90.3"/>
<text xml:space="preserve" text-anchor="middle" x="363" y="-153.22" font-family="Helvetica,sans-Serif" font-size="8.00">2</text>
</g>
<!-- ~firegrid.codex_.explicit_mcp_url&#45;&gt;~firegrid.client.session -->
<g id="edge22" class="edge">
<title>~firegrid.codex_.explicit_mcp_url&#45;&gt;~firegrid.client.session</title>
<path fill="none" stroke="#333333" stroke-width="0.7" stroke-opacity="0.600000" d="M340.98,-352.65C352.07,-351.42 363.38,-350.16 374.23,-348.95"/>
<polygon fill="#333333" fill-opacity="0.600000" stroke="#333333" stroke-width="0.7" stroke-opacity="0.600000" points="374.29,-352.47 383.84,-347.88 373.51,-345.51 374.29,-352.47"/>
<text xml:space="preserve" text-anchor="middle" x="363" y="-351.66" font-family="Helvetica,sans-Serif" font-size="8.00">4</text>
</g>
<!-- ~firegrid.side.driver&#45;&gt;effect&#45;durable&#45;operators -->
<g id="edge2" class="edge">
<title>~firegrid.side.driver&#45;&gt;effect&#45;durable&#45;operators</title>
<path fill="none" stroke="#333333" stroke-width="1.1" stroke-opacity="0.600000" d="M310.89,-305.37C360.54,-303.65 439.54,-302.01 507.75,-305.45 516.52,-305.9 525.72,-306.56 534.82,-307.34"/>
<polygon fill="#333333" fill-opacity="0.600000" stroke="#333333" stroke-width="1.1" stroke-opacity="0.600000" points="534.32,-310.81 544.6,-308.23 534.96,-303.84 534.32,-310.81"/>
<text xml:space="preserve" text-anchor="middle" x="442.62" y="-306.85" font-family="Helvetica,sans-Serif" font-size="8.00">12</text>
</g>
<!-- ~firegrid.side.driver&#45;&gt;runtime -->
<g id="edge3" class="edge">
<title>~firegrid.side.driver&#45;&gt;runtime</title>
<path fill="none" stroke="#333333" stroke-width="1.4" stroke-opacity="0.600000" d="M310.8,-297.25C321.46,-293.31 332.06,-287.9 340.5,-280.45 360.93,-262.45 359.21,-251.39 367.5,-225.45 382.58,-178.27 362.67,-159.42 385.5,-115.45 390.67,-105.5 398.31,-96.26 406.3,-88.31"/>
<polygon fill="#333333" fill-opacity="0.600000" stroke="#333333" stroke-width="1.4" stroke-opacity="0.600000" points="408.52,-91.03 413.46,-81.65 403.75,-85.9 408.52,-91.03"/>
<text xml:space="preserve" text-anchor="middle" x="363" y="-257.33" font-family="Helvetica,sans-Serif" font-size="8.00">19</text>
</g>
<!-- ~firegrid.side.driver&#45;&gt;tiny&#45;firegrid -->
<g id="edge4" class="edge">
<title>~firegrid.side.driver&#45;&gt;tiny&#45;firegrid</title>
<path fill="none" stroke="#333333" stroke-width="0.6" stroke-opacity="0.600000" d="M210.76,-302.64C196.57,-298.78 182.45,-292.06 173.25,-280.45 154.01,-256.19 185.92,-162.55 163.25,-141.45 160.32,-138.73 157.49,-139.1 154.25,-141.45 88,-189.6 77.89,-296.4 77.07,-348.18"/>
<polygon fill="#333333" fill-opacity="0.600000" stroke="#333333" stroke-width="0.6" stroke-opacity="0.600000" points="73.57,-348.01 77.03,-358.02 80.57,-348.04 73.57,-348.01"/>
<text xml:space="preserve" text-anchor="middle" x="158.75" y="-142.85" font-family="Helvetica,sans-Serif" font-size="8.00">2</text>
</g>
</g>
</svg>
