<svg xmlns="http://www.w3.org/2000/svg" width="1500" height="510" font-family="Helvetica" font-size="10"><rect width="1500" height="510" fill="white"/>
<text x="8" y="18" font-size="13" font-weight="bold">Runtime flow over time (LTR) — blue=net inflow, orange=net outflow</text>
<text x="8" y="32" fill="#666">190 spans · 2s · lanes by first activity</text>
<text x="354" y="55" text-anchor="end">effect-durable-operators/src/DurableTable.ts</text>
<rect x="360" y="40" width="1120" height="20" fill="#fafafa" stroke="#eee"/>
<rect x="360" y="41" width="6.5" height="18" fill="#2b7bba" opacity="0.69"/>
<rect x="374" y="41" width="6.5" height="18" fill="#2b7bba" opacity="0.52"/>
<rect x="381" y="41" width="6.5" height="18" fill="#2b7bba" opacity="0.40"/>
<rect x="388" y="41" width="6.5" height="18" fill="#2b7bba" opacity="0.46"/>
<rect x="402" y="41" width="6.5" height="18" fill="#2b7bba" opacity="0.94"/>
<rect x="556" y="41" width="6.5" height="18" fill="#2b7bba" opacity="0.56"/>
<rect x="563" y="41" width="6.5" height="18" fill="#2b7bba" opacity="0.71"/>
<rect x="570" y="41" width="6.5" height="18" fill="#2b7bba" opacity="0.89"/>
<rect x="696" y="41" width="6.5" height="18" fill="#2b7bba" opacity="0.78"/>
<rect x="1074" y="41" width="6.5" height="18" fill="#2b7bba" opacity="0.46"/>
<rect x="1081" y="41" width="6.5" height="18" fill="#2b7bba" opacity="0.86"/>
<rect x="1088" y="41" width="6.5" height="18" fill="#2b7bba" opacity="0.40"/>
<rect x="1095" y="41" width="6.5" height="18" fill="#2b7bba" opacity="0.78"/>
<rect x="1102" y="41" width="6.5" height="18" fill="#2b7bba" opacity="0.40"/>
<rect x="1109" y="41" width="6.5" height="18" fill="#2b7bba" opacity="0.92"/>
<text x="354" y="77" text-anchor="end">~firegrid.side.driver</text>
<rect x="360" y="62" width="1120" height="20" fill="#fafafa" stroke="#eee"/>
<rect x="360" y="63" width="6.5" height="18" fill="#e8821e" opacity="0.64"/>
<rect x="374" y="63" width="6.5" height="18" fill="#e8821e" opacity="0.52"/>
<rect x="381" y="63" width="6.5" height="18" fill="#e8821e" opacity="0.87"/>
<rect x="388" y="63" width="6.5" height="18" fill="#e8821e" opacity="0.52"/>
<text x="354" y="99" text-anchor="end">firelab/src/runner/runtime.ts</text>
<rect x="360" y="84" width="1120" height="20" fill="#fafafa" stroke="#eee"/>
<rect x="360" y="85" width="6.5" height="18" fill="#e8821e" opacity="0.40"/>
<text x="354" y="121" text-anchor="end">runtime/src/engine/internal/engine-runtime.ts</text>
<rect x="360" y="106" width="1120" height="20" fill="#fafafa" stroke="#eee"/>
<rect x="381" y="107" width="6.5" height="18" fill="#2b7bba" opacity="0.81"/>
<rect x="402" y="107" width="6.5" height="18" fill="#e8821e" opacity="0.86"/>
<rect x="556" y="107" width="6.5" height="18" fill="#e8821e" opacity="0.52"/>
<rect x="563" y="107" width="6.5" height="18" fill="#e8821e" opacity="0.52"/>
<rect x="570" y="107" width="6.5" height="18" fill="#e8821e" opacity="0.86"/>
<rect x="696" y="107" width="6.5" height="18" fill="#e8821e" opacity="0.69"/>
<rect x="1081" y="107" width="6.5" height="18" fill="#e8821e" opacity="0.63"/>
<rect x="1088" y="107" width="6.5" height="18" fill="#e8821e" opacity="0.52"/>
<rect x="1095" y="107" width="6.5" height="18" fill="#e8821e" opacity="0.63"/>
<rect x="1102" y="107" width="6.5" height="18" fill="#e8821e" opacity="0.52"/>
<rect x="1109" y="107" width="6.5" height="18" fill="#e8821e" opacity="0.92"/>
<text x="354" y="143" text-anchor="end">runtime/src/tables/runtime-output.ts</text>
<rect x="360" y="128" width="1120" height="20" fill="#fafafa" stroke="#eee"/>
<rect x="381" y="129" width="6.5" height="18" fill="#999" opacity="0.30"/>
<text x="354" y="165" text-anchor="end">runtime/src/unified/observers.ts</text>
<rect x="360" y="150" width="1120" height="20" fill="#fafafa" stroke="#eee"/>
<rect x="381" y="151" width="6.5" height="18" fill="#999" opacity="0.30"/>
<text x="354" y="187" text-anchor="end">~http</text>
<rect x="360" y="172" width="1120" height="20" fill="#fafafa" stroke="#eee"/>
<rect x="388" y="173" width="6.5" height="18" fill="#2b7bba" opacity="0.40"/>
<rect x="402" y="173" width="6.5" height="18" fill="#2b7bba" opacity="0.40"/>
<rect x="556" y="173" width="6.5" height="18" fill="#2b7bba" opacity="0.40"/>
<rect x="563" y="173" width="6.5" height="18" fill="#2b7bba" opacity="0.40"/>
<rect x="570" y="173" width="6.5" height="18" fill="#2b7bba" opacity="0.40"/>
<rect x="696" y="173" width="6.5" height="18" fill="#2b7bba" opacity="0.40"/>
<rect x="1074" y="173" width="6.5" height="18" fill="#2b7bba" opacity="0.40"/>
<rect x="1081" y="173" width="6.5" height="18" fill="#2b7bba" opacity="0.52"/>
<rect x="1095" y="173" width="6.5" height="18" fill="#2b7bba" opacity="0.40"/>
<text x="354" y="209" text-anchor="end">effect-durable-streams/src/protocol/Http.ts</text>
<rect x="360" y="194" width="1120" height="20" fill="#fafafa" stroke="#eee"/>
<rect x="388" y="195" width="6.5" height="18" fill="#999" opacity="0.30"/>
<rect x="402" y="195" width="6.5" height="18" fill="#999" opacity="0.30"/>
<rect x="556" y="195" width="6.5" height="18" fill="#999" opacity="0.30"/>
<rect x="563" y="195" width="6.5" height="18" fill="#999" opacity="0.30"/>
<rect x="570" y="195" width="6.5" height="18" fill="#999" opacity="0.30"/>
<rect x="696" y="195" width="6.5" height="18" fill="#999" opacity="0.30"/>
<rect x="1074" y="195" width="6.5" height="18" fill="#999" opacity="0.30"/>
<rect x="1081" y="195" width="6.5" height="18" fill="#999" opacity="0.37"/>
<rect x="1095" y="195" width="6.5" height="18" fill="#999" opacity="0.30"/>
<text x="354" y="231" text-anchor="end">runtime/src/unified/signal.ts</text>
<rect x="360" y="216" width="1120" height="20" fill="#fafafa" stroke="#eee"/>
<rect x="388" y="217" width="6.5" height="18" fill="#999" opacity="0.30"/>
<rect x="402" y="217" width="6.5" height="18" fill="#e8821e" opacity="0.46"/>
<rect x="570" y="217" width="6.5" height="18" fill="#e8821e" opacity="0.46"/>
<rect x="1074" y="217" width="6.5" height="18" fill="#999" opacity="0.30"/>
<rect x="1081" y="217" width="6.5" height="18" fill="#e8821e" opacity="0.56"/>
<rect x="1095" y="217" width="6.5" height="18" fill="#e8821e" opacity="0.52"/>
<text x="354" y="253" text-anchor="end">firelab/src/simulations/control-plane-cancel-clo</text>
<rect x="360" y="238" width="1120" height="20" fill="#fafafa" stroke="#eee"/>
<rect x="388" y="239" width="6.5" height="18" fill="#999" opacity="0.30"/>
<rect x="395" y="239" width="6.5" height="18" fill="#e8821e" opacity="0.40"/>
<rect x="563" y="239" width="6.5" height="18" fill="#e8821e" opacity="0.52"/>
<rect x="1074" y="239" width="6.5" height="18" fill="#e8821e" opacity="0.40"/>
<rect x="1081" y="239" width="6.5" height="18" fill="#e8821e" opacity="0.40"/>
<text x="354" y="275" text-anchor="end">runtime/src/unified/host.ts</text>
<rect x="360" y="260" width="1120" height="20" fill="#fafafa" stroke="#eee"/>
<rect x="388" y="261" width="6.5" height="18" fill="#999" opacity="0.30"/>
<text x="354" y="297" text-anchor="end">~firegrid.client.session</text>
<rect x="360" y="282" width="1120" height="20" fill="#fafafa" stroke="#eee"/>
<rect x="395" y="283" width="6.5" height="18" fill="#2b7bba" opacity="0.40"/>
<rect x="402" y="283" width="6.5" height="18" fill="#e8821e" opacity="0.52"/>
<rect x="563" y="283" width="6.5" height="18" fill="#999" opacity="0.30"/>
<rect x="570" y="283" width="6.5" height="18" fill="#e8821e" opacity="0.40"/>
<rect x="1074" y="283" width="6.5" height="18" fill="#e8821e" opacity="0.46"/>
<rect x="1081" y="283" width="6.5" height="18" fill="#e8821e" opacity="0.46"/>
<text x="354" y="319" text-anchor="end">~unified</text>
<rect x="360" y="304" width="1120" height="20" fill="#fafafa" stroke="#eee"/>
<rect x="402" y="305" width="6.5" height="18" fill="#999" opacity="0.37"/>
<rect x="570" y="305" width="6.5" height="18" fill="#999" opacity="0.37"/>
<rect x="1081" y="305" width="6.5" height="18" fill="#999" opacity="0.43"/>
<rect x="1095" y="305" width="6.5" height="18" fill="#999" opacity="0.43"/>
<text x="354" y="341" text-anchor="end">runtime/src/unified/codec-adapter.ts</text>
<rect x="360" y="326" width="1120" height="20" fill="#fafafa" stroke="#eee"/>
<rect x="402" y="327" width="6.5" height="18" fill="#999" opacity="0.30"/>
<rect x="409" y="327" width="6.5" height="18" fill="#e8821e" opacity="0.52"/>
<rect x="556" y="327" width="6.5" height="18" fill="#e8821e" opacity="0.52"/>
<rect x="563" y="327" width="6.5" height="18" fill="#e8821e" opacity="0.52"/>
<rect x="570" y="327" width="6.5" height="18" fill="#e8821e" opacity="0.46"/>
<rect x="577" y="327" width="6.5" height="18" fill="#e8821e" opacity="0.40"/>
<rect x="696" y="327" width="6.5" height="18" fill="#e8821e" opacity="0.69"/>
<rect x="1088" y="327" width="6.5" height="18" fill="#2b7bba" opacity="0.40"/>
<rect x="1102" y="327" width="6.5" height="18" fill="#2b7bba" opacity="0.40"/>
<text x="354" y="363" text-anchor="end">runtime/src/unified/subscribers/runtime-context.ts</text>
<rect x="360" y="348" width="1120" height="20" fill="#fafafa" stroke="#eee"/>
<rect x="402" y="349" width="6.5" height="18" fill="#999" opacity="0.30"/>
<rect x="563" y="349" width="6.5" height="18" fill="#e8821e" opacity="0.40"/>
<rect x="570" y="349" width="6.5" height="18" fill="#999" opacity="0.30"/>
<rect x="696" y="349" width="6.5" height="18" fill="#e8821e" opacity="0.40"/>
<rect x="1081" y="349" width="6.5" height="18" fill="#e8821e" opacity="0.56"/>
<rect x="1095" y="349" width="6.5" height="18" fill="#e8821e" opacity="0.56"/>
<text x="354" y="385" text-anchor="end">runtime/src/sources/sandbox/local-process.ts</text>
<rect x="360" y="370" width="1120" height="20" fill="#fafafa" stroke="#eee"/>
<rect x="409" y="371" width="6.5" height="18" fill="#2b7bba" opacity="0.40"/>
<rect x="563" y="371" width="6.5" height="18" fill="#2b7bba" opacity="0.40"/>
<rect x="570" y="371" width="6.5" height="18" fill="#2b7bba" opacity="0.40"/>
<rect x="696" y="371" width="6.5" height="18" fill="#2b7bba" opacity="0.40"/>
<text x="354" y="407" text-anchor="end">runtime/src/sources/codecs/acp/index.ts</text>
<rect x="360" y="392" width="1120" height="20" fill="#fafafa" stroke="#eee"/>
<rect x="409" y="393" width="6.5" height="18" fill="#2b7bba" opacity="0.40"/>
<rect x="556" y="393" width="6.5" height="18" fill="#2b7bba" opacity="0.40"/>
<rect x="563" y="393" width="6.5" height="18" fill="#2b7bba" opacity="0.46"/>
<rect x="577" y="393" width="6.5" height="18" fill="#2b7bba" opacity="0.40"/>
<rect x="696" y="393" width="6.5" height="18" fill="#2b7bba" opacity="0.56"/>
<text x="354" y="429" text-anchor="end">runtime/src/unified/channel-bindings.ts</text>
<rect x="360" y="414" width="1120" height="20" fill="#fafafa" stroke="#eee"/>
<rect x="1074" y="415" width="6.5" height="18" fill="#999" opacity="0.30"/>
<rect x="1081" y="415" width="6.5" height="18" fill="#999" opacity="0.30"/>
<text x="354" y="451" text-anchor="end">~firegrid.unified.session</text>
<rect x="360" y="436" width="1120" height="20" fill="#fafafa" stroke="#eee"/>
<rect x="1074" y="437" width="6.5" height="18" fill="#999" opacity="0.30"/>
<rect x="1081" y="437" width="6.5" height="18" fill="#999" opacity="0.30"/>
<text x="354" y="473" text-anchor="end">client-sdk/src/firegrid.ts</text>
<rect x="360" y="458" width="1120" height="20" fill="#fafafa" stroke="#eee"/>
<rect x="1074" y="459" width="6.5" height="18" fill="#999" opacity="0.30"/>
<rect x="1081" y="459" width="6.5" height="18" fill="#999" opacity="0.30"/>
</svg>