<?xml version="1.0" encoding="UTF-8" standalone="no"?>
<!DOCTYPE svg PUBLIC "-//W3C//DTD SVG 1.1//EN"
 "http://www.w3.org/Graphics/SVG/1.1/DTD/svg11.dtd">
<!-- Generated by graphviz version 14.1.5 (20260411.2331)
 -->
<!-- Title: dependency&#45;cruiser output Pages: 1 -->
<svg width="580pt" height="342pt"
 viewBox="0.00 0.00 580.00 342.00" xmlns="http://www.w3.org/2000/svg" xmlns:xlink="http://www.w3.org/1999/xlink">
<g id="graph0" class="graph" transform="scale(1 1) rotate(0) translate(4 338)">
<title>dependency&#45;cruiser output</title>
<polygon fill="white" stroke="none" points="-4,4 -4,-338 576,-338 576,4 -4,4"/>
<g id="clust1" class="cluster">
<title>cluster_apps</title>
<path fill="#ffffff" stroke="black" stroke-width="2" d="M20,-8C20,-8 552,-8 552,-8 558,-8 564,-14 564,-20 564,-20 564,-194 564,-194 564,-200 558,-206 552,-206 552,-206 20,-206 20,-206 14,-206 8,-200 8,-194 8,-194 8,-20 8,-20 8,-14 14,-8 20,-8"/>
<text xml:space="preserve" text-anchor="middle" x="286" y="-193.45" font-family="Helvetica,sans-Serif" font-weight="bold" font-size="9.00">apps</text>
</g>
<g id="clust2" class="cluster">
<title>cluster_apps/lab</title>
<path fill="#ffffff" stroke="black" stroke-width="2" d="M28,-16C28,-16 544,-16 544,-16 550,-16 556,-22 556,-28 556,-28 556,-168 556,-168 556,-174 550,-180 544,-180 544,-180 28,-180 28,-180 22,-180 16,-174 16,-168 16,-168 16,-28 16,-28 16,-22 22,-16 28,-16"/>
<text xml:space="preserve" text-anchor="middle" x="286" y="-167.45" font-family="Helvetica,sans-Serif" font-weight="bold" font-size="9.00">lab</text>
</g>
<g id="clust3" class="cluster">
<title>cluster_apps/lab/src</title>
<path fill="#ffffff" stroke="black" stroke-width="2" d="M36,-24C36,-24 536,-24 536,-24 542,-24 548,-30 548,-36 548,-36 548,-142 548,-142 548,-148 542,-154 536,-154 536,-154 36,-154 36,-154 30,-154 24,-148 24,-142 24,-142 24,-36 24,-36 24,-30 30,-24 36,-24"/>
<text xml:space="preserve" text-anchor="middle" x="286" y="-141.45" font-family="Helvetica,sans-Serif" font-weight="bold" font-size="9.00">src</text>
</g>
<g id="clust4" class="cluster">
<title>cluster_apps/lab/src/lab</title>
<path fill="#ffffff" stroke="black" stroke-width="2" d="M136.25,-32C136.25,-32 528,-32 528,-32 534,-32 540,-38 540,-44 540,-44 540,-116 540,-116 540,-122 534,-128 528,-128 528,-128 136.25,-128 136.25,-128 130.25,-128 124.25,-122 124.25,-116 124.25,-116 124.25,-44 124.25,-44 124.25,-38 130.25,-32 136.25,-32"/>
<text xml:space="preserve" text-anchor="middle" x="332.12" y="-115.45" font-family="Helvetica,sans-Serif" font-weight="bold" font-size="9.00">lab</text>
</g>
<g id="clust5" class="cluster">
<title>cluster_packages</title>
<path fill="#ffffff" stroke="black" stroke-width="2" d="M51.12,-214C51.12,-214 97.12,-214 97.12,-214 103.12,-214 109.12,-220 109.12,-226 109.12,-226 109.12,-314 109.12,-314 109.12,-320 103.12,-326 97.12,-326 97.12,-326 51.13,-326 51.13,-326 45.12,-326 39.12,-320 39.12,-314 39.12,-314 39.12,-226 39.12,-226 39.12,-220 45.12,-214 51.12,-214"/>
<text xml:space="preserve" text-anchor="middle" x="74.12" y="-313.45" font-family="Helvetica,sans-Serif" font-weight="bold" font-size="9.00">packages</text>
</g>
<!-- apps/lab/src/css&#45;modules.d.ts -->
<g id="node1" class="node">
<title>apps/lab/src/css&#45;modules.d.ts</title>
<g id="a_node1"><a xlink:href="apps/lab/src/css-modules.d.ts" xlink:title="css&#45;modules.d.ts">
<path fill="#ccffcc" stroke="black" d="M110.33,-53.88C110.33,-53.88 37.92,-53.88 37.92,-53.88 34.96,-53.88 32,-50.92 32,-47.96 32,-47.96 32,-42.04 32,-42.04 32,-39.08 34.96,-36.12 37.92,-36.12 37.92,-36.12 110.33,-36.12 110.33,-36.12 113.29,-36.12 116.25,-39.08 116.25,-42.04 116.25,-42.04 116.25,-47.96 116.25,-47.96 116.25,-50.92 113.29,-53.88 110.33,-53.88"/>
<text xml:space="preserve" text-anchor="start" x="40" y="-42.38" font-family="Helvetica,sans-Serif" font-size="9.00">css&#45;modules.d.ts</text>
</a>
</g>
</g>
<!-- apps/lab/src/lab/App.tsx -->
<g id="node2" class="node">
<title>apps/lab/src/lab/App.tsx</title>
<g id="a_node2"><a xlink:href="apps/lab/src/lab/App.tsx" xlink:title="App.tsx">
<path fill="#bbfeff" stroke="black" d="M180.33,-87.88C180.33,-87.88 138.17,-87.88 138.17,-87.88 135.21,-87.88 132.25,-84.92 132.25,-81.96 132.25,-81.96 132.25,-76.04 132.25,-76.04 132.25,-73.08 135.21,-70.12 138.17,-70.12 138.17,-70.12 180.33,-70.12 180.33,-70.12 183.29,-70.12 186.25,-73.08 186.25,-76.04 186.25,-76.04 186.25,-81.96 186.25,-81.96 186.25,-84.92 183.29,-87.88 180.33,-87.88"/>
<text xml:space="preserve" text-anchor="start" x="144.25" y="-76.38" font-family="Helvetica,sans-Serif" font-size="9.00">App.tsx</text>
</a>
</g>
</g>
<!-- apps/lab/src/lab/LabEventStreamPanel.tsx -->
<g id="node3" class="node">
<title>apps/lab/src/lab/LabEventStreamPanel.tsx</title>
<g id="a_node3"><a xlink:href="apps/lab/src/lab/LabEventStreamPanel.tsx" xlink:title="LabEventStreamPanel.tsx">
<path fill="#bbfeff" stroke="black" d="M315.08,-57.88C315.08,-57.88 205.17,-57.88 205.17,-57.88 202.21,-57.88 199.25,-54.92 199.25,-51.96 199.25,-51.96 199.25,-46.04 199.25,-46.04 199.25,-43.08 202.21,-40.12 205.17,-40.12 205.17,-40.12 315.08,-40.12 315.08,-40.12 318.04,-40.12 321,-43.08 321,-46.04 321,-46.04 321,-51.96 321,-51.96 321,-54.92 318.04,-57.88 315.08,-57.88"/>
<text xml:space="preserve" text-anchor="start" x="207.25" y="-46.38" font-family="Helvetica,sans-Serif" font-size="9.00">LabEventStreamPanel.tsx</text>
</a>
</g>
</g>
<!-- apps/lab/src/lab/App.tsx&#45;&gt;apps/lab/src/lab/LabEventStreamPanel.tsx -->
<g id="edge1" class="edge">
<title>apps/lab/src/lab/App.tsx&#45;&gt;apps/lab/src/lab/LabEventStreamPanel.tsx</title>
<path fill="none" stroke="#000000" stroke-width="2" stroke-opacity="0.200000" d="M183.18,-69.65C188.42,-67.66 193.99,-65.66 199.25,-64 202.91,-62.84 206.72,-61.71 210.57,-60.63"/>
<polygon fill="#000000" fill-opacity="0.200000" stroke="#000000" stroke-width="2" stroke-opacity="0.200000" points="210.84,-62.73 216.08,-59.13 209.74,-58.68 210.84,-62.73"/>
</g>
<!-- apps/lab/src/lab/RawStreamInspector.tsx -->
<g id="node4" class="node">
<title>apps/lab/src/lab/RawStreamInspector.tsx</title>
<g id="a_node4"><a xlink:href="apps/lab/src/lab/RawStreamInspector.tsx" xlink:title="RawStreamInspector.tsx">
<path fill="#bbfeff" stroke="black" d="M311.71,-87.88C311.71,-87.88 208.54,-87.88 208.54,-87.88 205.58,-87.88 202.62,-84.92 202.62,-81.96 202.62,-81.96 202.62,-76.04 202.62,-76.04 202.62,-73.08 205.58,-70.12 208.54,-70.12 208.54,-70.12 311.71,-70.12 311.71,-70.12 314.67,-70.12 317.62,-73.08 317.62,-76.04 317.62,-76.04 317.62,-81.96 317.62,-81.96 317.62,-84.92 314.67,-87.88 311.71,-87.88"/>
<text xml:space="preserve" text-anchor="start" x="210.62" y="-76.38" font-family="Helvetica,sans-Serif" font-size="9.00">RawStreamInspector.tsx</text>
</a>
</g>
</g>
<!-- apps/lab/src/lab/App.tsx&#45;&gt;apps/lab/src/lab/RawStreamInspector.tsx -->
<g id="edge2" class="edge">
<title>apps/lab/src/lab/App.tsx&#45;&gt;apps/lab/src/lab/RawStreamInspector.tsx</title>
<path fill="none" stroke="#000000" stroke-width="2" stroke-opacity="0.200000" d="M186.75,-79C188.9,-79 191.13,-79 193.4,-79"/>
<polygon fill="#000000" fill-opacity="0.200000" stroke="#000000" stroke-width="2" stroke-opacity="0.200000" points="193.38,-81.1 199.38,-79 193.38,-76.9 193.38,-81.1"/>
</g>
<!-- apps/lab/src/lab/styles.module.css -->
<g id="node5" class="node">
<title>apps/lab/src/lab/styles.module.css</title>
<g id="a_node5"><a xlink:href="apps/lab/src/lab/styles.module.css" xlink:title="styles.module.css">
<path fill="#ffffcc" stroke="black" d="M430.71,-101.88C430.71,-101.88 354.54,-101.88 354.54,-101.88 351.58,-101.88 348.62,-98.92 348.62,-95.96 348.62,-95.96 348.62,-90.04 348.62,-90.04 348.62,-87.08 351.58,-84.12 354.54,-84.12 354.54,-84.12 430.71,-84.12 430.71,-84.12 433.67,-84.12 436.62,-87.08 436.62,-90.04 436.62,-90.04 436.62,-95.96 436.62,-95.96 436.62,-98.92 433.67,-101.88 430.71,-101.88"/>
<text xml:space="preserve" text-anchor="start" x="356.62" y="-90.38" font-family="Helvetica,sans-Serif" font-size="9.00">styles.module.css</text>
</a>
</g>
</g>
<!-- apps/lab/src/lab/App.tsx&#45;&gt;apps/lab/src/lab/styles.module.css -->
<g id="edge3" class="edge">
<title>apps/lab/src/lab/App.tsx&#45;&gt;apps/lab/src/lab/styles.module.css</title>
<path fill="none" stroke="#000000" stroke-width="2" stroke-opacity="0.200000" d="M180.08,-88.24C186.1,-90.6 192.83,-92.81 199.25,-94 246.26,-102.73 300.86,-101.38 339.86,-98.5"/>
<polygon fill="#000000" fill-opacity="0.200000" stroke="#000000" stroke-width="2" stroke-opacity="0.200000" points="339.59,-100.63 345.41,-98.06 339.26,-96.44 339.59,-100.63"/>
</g>
<!-- apps/lab/src/lab/LabEventStreamPanel.tsx&#45;&gt;apps/lab/src/lab/styles.module.css -->
<g id="edge7" class="edge">
<title>apps/lab/src/lab/LabEventStreamPanel.tsx&#45;&gt;apps/lab/src/lab/styles.module.css</title>
<path fill="none" stroke="#000000" stroke-width="2" stroke-opacity="0.200000" d="M307.36,-58.29C312.08,-59.91 316.71,-61.8 321,-64 327.73,-67.45 327.37,-71.35 334,-75 337.71,-77.04 341.68,-78.88 345.74,-80.54"/>
<polygon fill="#000000" fill-opacity="0.200000" stroke="#000000" stroke-width="2" stroke-opacity="0.200000" points="344.95,-82.49 351.31,-82.63 346.43,-78.55 344.95,-82.49"/>
</g>
<!-- apps/lab/src/lab/LabEventStreamClient.ts -->
<g id="node6" class="node">
<title>apps/lab/src/lab/LabEventStreamClient.ts</title>
<g id="a_node6"><a xlink:href="apps/lab/src/lab/LabEventStreamClient.ts" xlink:title="LabEventStreamClient.ts">
<path fill="#ddfeff" stroke="black" d="M445.33,-57.88C445.33,-57.88 339.92,-57.88 339.92,-57.88 336.96,-57.88 334,-54.92 334,-51.96 334,-51.96 334,-46.04 334,-46.04 334,-43.08 336.96,-40.12 339.92,-40.12 339.92,-40.12 445.33,-40.12 445.33,-40.12 448.29,-40.12 451.25,-43.08 451.25,-46.04 451.25,-46.04 451.25,-51.96 451.25,-51.96 451.25,-54.92 448.29,-57.88 445.33,-57.88"/>
<text xml:space="preserve" text-anchor="start" x="342" y="-46.38" font-family="Helvetica,sans-Serif" font-size="9.00">LabEventStreamClient.ts</text>
</a>
</g>
</g>
<!-- apps/lab/src/lab/LabEventStreamPanel.tsx&#45;&gt;apps/lab/src/lab/LabEventStreamClient.ts -->
<g id="edge6" class="edge">
<title>apps/lab/src/lab/LabEventStreamPanel.tsx&#45;&gt;apps/lab/src/lab/LabEventStreamClient.ts</title>
<path fill="none" stroke="#000000" stroke-width="2" stroke-opacity="0.200000" d="M321.41,-49C322.57,-49 323.74,-49 324.91,-49"/>
<polygon fill="#000000" fill-opacity="0.200000" stroke="#000000" stroke-width="2" stroke-opacity="0.200000" points="324.82,-51.1 330.82,-49 324.82,-46.9 324.82,-51.1"/>
</g>
<!-- apps/lab/src/lab/lab&#45;events.ts -->
<g id="node7" class="node">
<title>apps/lab/src/lab/lab&#45;events.ts</title>
<g id="a_node7"><a xlink:href="apps/lab/src/lab/lab-events.ts" xlink:title="lab&#45;events.ts">
<path fill="#ddfeff" stroke="black" d="M526.08,-68.88C526.08,-68.88 470.17,-68.88 470.17,-68.88 467.21,-68.88 464.25,-65.92 464.25,-62.96 464.25,-62.96 464.25,-57.04 464.25,-57.04 464.25,-54.08 467.21,-51.12 470.17,-51.12 470.17,-51.12 526.08,-51.12 526.08,-51.12 529.04,-51.12 532,-54.08 532,-57.04 532,-57.04 532,-62.96 532,-62.96 532,-65.92 529.04,-68.88 526.08,-68.88"/>
<text xml:space="preserve" text-anchor="start" x="472.25" y="-57.38" font-family="Helvetica,sans-Serif" font-size="9.00">lab&#45;events.ts</text>
</a>
</g>
</g>
<!-- apps/lab/src/lab/LabEventStreamPanel.tsx&#45;&gt;apps/lab/src/lab/lab&#45;events.ts -->
<g id="edge5" class="edge">
<title>apps/lab/src/lab/LabEventStreamPanel.tsx&#45;&gt;apps/lab/src/lab/lab&#45;events.ts</title>
<path fill="none" stroke="#000000" stroke-width="2" stroke-opacity="0.200000" d="M299.1,-58.33C310.27,-60.67 322.56,-62.84 334,-64 385.84,-69.28 399.19,-66.27 451.25,-64 452.55,-63.94 453.87,-63.88 455.2,-63.81"/>
<polygon fill="#000000" fill-opacity="0.200000" stroke="#000000" stroke-width="2" stroke-opacity="0.200000" points="455.2,-65.91 461.05,-63.42 454.93,-61.72 455.2,-65.91"/>
</g>
<!-- apps/lab/src/lab/RawStreamInspector.tsx&#45;&gt;apps/lab/src/lab/styles.module.css -->
<g id="edge8" class="edge">
<title>apps/lab/src/lab/RawStreamInspector.tsx&#45;&gt;apps/lab/src/lab/styles.module.css</title>
<path fill="none" stroke="#000000" stroke-width="2" stroke-opacity="0.200000" d="M317.98,-85.1C325.13,-85.87 332.42,-86.65 339.49,-87.41"/>
<polygon fill="#000000" fill-opacity="0.200000" stroke="#000000" stroke-width="2" stroke-opacity="0.200000" points="339.1,-89.48 345.29,-88.03 339.55,-85.3 339.1,-89.48"/>
</g>
<!-- apps/lab/src/lab/LabEventStreamClient.ts&#45;&gt;apps/lab/src/lab/lab&#45;events.ts -->
<g id="edge4" class="edge">
<title>apps/lab/src/lab/LabEventStreamClient.ts&#45;&gt;apps/lab/src/lab/lab&#45;events.ts</title>
<path fill="none" stroke="#000000" stroke-width="2" stroke-opacity="0.200000" d="M451.73,-55.18C452.89,-55.3 454.06,-55.42 455.21,-55.55"/>
<polygon fill="#000000" fill-opacity="0.200000" stroke="#000000" stroke-width="2" stroke-opacity="0.200000" points="454.7,-57.6 460.89,-56.15 455.14,-53.43 454.7,-57.6"/>
</g>
<!-- apps/lab/src/main.tsx -->
<g id="node8" class="node">
<title>apps/lab/src/main.tsx</title>
<g id="a_node8"><a xlink:href="apps/lab/src/main.tsx" xlink:title="main.tsx">
<path fill="#bbfeff" stroke="black" d="M95.21,-87.88C95.21,-87.88 53.04,-87.88 53.04,-87.88 50.08,-87.88 47.12,-84.92 47.12,-81.96 47.12,-81.96 47.12,-76.04 47.12,-76.04 47.12,-73.08 50.08,-70.12 53.04,-70.12 53.04,-70.12 95.21,-70.12 95.21,-70.12 98.17,-70.12 101.12,-73.08 101.12,-76.04 101.12,-76.04 101.12,-81.96 101.12,-81.96 101.12,-84.92 98.17,-87.88 95.21,-87.88"/>
<text xml:space="preserve" text-anchor="start" x="57.25" y="-76.38" font-family="Helvetica,sans-Serif" font-size="9.00">main.tsx</text>
</a>
</g>
</g>
<!-- apps/lab/src/main.tsx&#45;&gt;apps/lab/src/lab/App.tsx -->
<g id="edge9" class="edge">
<title>apps/lab/src/main.tsx&#45;&gt;apps/lab/src/lab/App.tsx</title>
<path fill="none" stroke="#000000" stroke-width="2" stroke-opacity="0.200000" d="M101.43,-79C108.25,-79 115.71,-79 122.91,-79"/>
<polygon fill="#000000" fill-opacity="0.200000" stroke="#000000" stroke-width="2" stroke-opacity="0.200000" points="122.81,-81.1 128.81,-79 122.81,-76.9 122.81,-81.1"/>
</g>
<!-- packages/client -->
<g id="node9" class="node">
<title>packages/client</title>
<g id="a_node9"><a xlink:href="packages/client" xlink:title="client">
<polygon fill="#ffffcc" stroke="black" points="101.12,-239.88 49.1,-239.88 47.12,-237.9 47.12,-222.12 99.15,-222.12 101.12,-224.1 101.12,-239.88"/>
<polyline fill="none" stroke="black" points="99.15,-237.9 47.12,-237.9"/>
<polyline fill="none" stroke="black" points="99.15,-237.9 99.15,-222.12"/>
<polyline fill="none" stroke="black" points="99.15,-237.9 101.12,-239.88"/>
<text xml:space="preserve" text-anchor="start" x="63.25" y="-228.38" font-family="Helvetica,sans-Serif" font-size="9.00">client</text>
</a>
</g>
</g>
<!-- packages/runtime -->
<g id="node10" class="node">
<title>packages/runtime</title>
<g id="a_node10"><a xlink:href="packages/runtime" xlink:title="runtime">
<polygon fill="#ffffcc" stroke="black" points="101.12,-269.88 49.1,-269.88 47.12,-267.9 47.12,-252.12 99.15,-252.12 101.12,-254.1 101.12,-269.88"/>
<polyline fill="none" stroke="black" points="99.15,-267.9 47.12,-267.9"/>
<polyline fill="none" stroke="black" points="99.15,-267.9 99.15,-252.12"/>
<polyline fill="none" stroke="black" points="99.15,-267.9 101.12,-269.88"/>
<text xml:space="preserve" text-anchor="start" x="58.75" y="-258.38" font-family="Helvetica,sans-Serif" font-size="9.00">runtime</text>
</a>
</g>
</g>
<!-- packages/substrate -->
<g id="node11" class="node">
<title>packages/substrate</title>
<g id="a_node11"><a xlink:href="packages/substrate" xlink:title="substrate">
<polygon fill="#ffffcc" stroke="black" points="101.12,-299.88 49.1,-299.88 47.12,-297.9 47.12,-282.12 99.15,-282.12 101.12,-284.1 101.12,-299.88"/>
<polyline fill="none" stroke="black" points="99.15,-297.9 47.12,-297.9"/>
<polyline fill="none" stroke="black" points="99.15,-297.9 99.15,-282.12"/>
<polyline fill="none" stroke="black" points="99.15,-297.9 101.12,-299.88"/>
<text xml:space="preserve" text-anchor="start" x="55.38" y="-288.38" font-family="Helvetica,sans-Serif" font-size="9.00">substrate</text>
</a>
</g>
</g>
</g>
</svg>
