<?xml version="1.0" encoding="UTF-8" standalone="no"?>
<!DOCTYPE svg PUBLIC "-//W3C//DTD SVG 1.1//EN"
 "http://www.w3.org/Graphics/SVG/1.1/DTD/svg11.dtd">
<!-- Generated by graphviz version 14.1.5 (20260411.2331)
 -->
<!-- Title: dependency&#45;cruiser output Pages: 1 -->
<svg width="228pt" height="106pt"
 viewBox="0.00 0.00 228.00 106.00" xmlns="http://www.w3.org/2000/svg" xmlns:xlink="http://www.w3.org/1999/xlink">
<g id="graph0" class="graph" transform="scale(1 1) rotate(0) translate(4 102)">
<title>dependency&#45;cruiser output</title>
<polygon fill="white" stroke="none" points="-4,4 -4,-102 224,-102 224,4 -4,4"/>
<g id="clust1" class="cluster">
<title>cluster_packages</title>
<path fill="#ffffff" stroke="black" stroke-width="2" d="M20,-8C20,-8 200,-8 200,-8 206,-8 212,-14 212,-20 212,-20 212,-78 212,-78 212,-84 206,-90 200,-90 200,-90 20,-90 20,-90 14,-90 8,-84 8,-78 8,-78 8,-20 8,-20 8,-14 14,-8 20,-8"/>
<text xml:space="preserve" text-anchor="middle" x="110" y="-77.45" font-family="Helvetica,sans-Serif" font-weight="bold" font-size="9.00">packages</text>
</g>
<!-- packages/client -->
<g id="node1" class="node">
<title>packages/client</title>
<g id="a_node1"><a xlink:href="packages/client" xlink:title="client">
<polygon fill="#ffffcc" stroke="black" points="137,-33.88 84.97,-33.88 83,-31.9 83,-16.12 135.03,-16.12 137,-18.1 137,-33.88"/>
<polyline fill="none" stroke="black" points="135.03,-31.9 83,-31.9"/>
<polyline fill="none" stroke="black" points="135.03,-31.9 135.03,-16.12"/>
<polyline fill="none" stroke="black" points="135.03,-31.9 137,-33.88"/>
<text xml:space="preserve" text-anchor="start" x="99.12" y="-22.38" font-family="Helvetica,sans-Serif" font-size="9.00">client</text>
</a>
</g>
</g>
<!-- packages/substrate -->
<g id="node2" class="node">
<title>packages/substrate</title>
<g id="a_node2"><a xlink:href="packages/substrate" xlink:title="substrate">
<polygon fill="#ffffcc" stroke="black" points="204,-44.88 151.97,-44.88 150,-42.9 150,-27.12 202.03,-27.12 204,-29.1 204,-44.88"/>
<polyline fill="none" stroke="black" points="202.03,-42.9 150,-42.9"/>
<polyline fill="none" stroke="black" points="202.03,-42.9 202.03,-27.12"/>
<polyline fill="none" stroke="black" points="202.03,-42.9 204,-44.88"/>
<text xml:space="preserve" text-anchor="start" x="158.25" y="-33.38" font-family="Helvetica,sans-Serif" font-size="9.00">substrate</text>
</a>
</g>
</g>
<!-- packages/client&#45;&gt;packages/substrate -->
<g id="edge1" class="edge">
<title>packages/client&#45;&gt;packages/substrate</title>
<path fill="none" stroke="#000000" stroke-width="2" stroke-opacity="0.200000" d="M137.44,-29.47C138.58,-29.67 139.74,-29.86 140.9,-30.06"/>
<polygon fill="#000000" fill-opacity="0.200000" stroke="#000000" stroke-width="2" stroke-opacity="0.200000" points="140.55,-32.13 146.81,-31.06 141.25,-27.99 140.55,-32.13"/>
</g>
<!-- packages/host -->
<g id="node3" class="node">
<title>packages/host</title>
<g id="a_node3"><a xlink:href="packages/host" xlink:title="host">
<polygon fill="#ffffcc" stroke="black" points="70,-33.88 17.97,-33.88 16,-31.9 16,-16.12 68.03,-16.12 70,-18.1 70,-33.88"/>
<polyline fill="none" stroke="black" points="68.03,-31.9 16,-31.9"/>
<polyline fill="none" stroke="black" points="68.03,-31.9 68.03,-16.12"/>
<polyline fill="none" stroke="black" points="68.03,-31.9 70,-33.88"/>
<text xml:space="preserve" text-anchor="start" x="34.38" y="-22.38" font-family="Helvetica,sans-Serif" font-size="9.00">host</text>
</a>
</g>
</g>
<!-- packages/host&#45;&gt;packages/client -->
<g id="edge2" class="edge">
<title>packages/host&#45;&gt;packages/client</title>
<path fill="none" stroke="#000000" stroke-width="2" stroke-opacity="0.200000" d="M70.44,-25C71.58,-25 72.74,-25 73.9,-25"/>
<polygon fill="#000000" fill-opacity="0.200000" stroke="#000000" stroke-width="2" stroke-opacity="0.200000" points="73.77,-27.1 79.77,-25 73.77,-22.9 73.77,-27.1"/>
</g>
<!-- packages/host&#45;&gt;packages/substrate -->
<g id="edge3" class="edge">
<title>packages/host&#45;&gt;packages/substrate</title>
<path fill="none" stroke="#000000" stroke-width="2" stroke-opacity="0.200000" d="M63.83,-34.24C69.85,-36.6 76.58,-38.81 83,-40 101.94,-43.52 123.41,-42.89 140.95,-41.22"/>
<polygon fill="#000000" fill-opacity="0.200000" stroke="#000000" stroke-width="2" stroke-opacity="0.200000" points="140.97,-43.33 146.71,-40.59 140.52,-39.15 140.97,-43.33"/>
</g>
<!-- packages/lab -->
<g id="node4" class="node">
<title>packages/lab</title>
<g id="a_node4"><a xlink:href="packages/lab" xlink:title="lab">
<polygon fill="#ffffcc" stroke="black" points="70,-63.88 17.97,-63.88 16,-61.9 16,-46.12 68.03,-46.12 70,-48.1 70,-63.88"/>
<polyline fill="none" stroke="black" points="68.03,-61.9 16,-61.9"/>
<polyline fill="none" stroke="black" points="68.03,-61.9 68.03,-46.12"/>
<polyline fill="none" stroke="black" points="68.03,-61.9 70,-63.88"/>
<text xml:space="preserve" text-anchor="start" x="36.62" y="-52.38" font-family="Helvetica,sans-Serif" font-size="9.00">lab</text>
</a>
</g>
</g>
</g>
</svg>
