<?xml version="1.0" encoding="UTF-8" standalone="no"?>
<!DOCTYPE svg PUBLIC "-//W3C//DTD SVG 1.1//EN"
 "http://www.w3.org/Graphics/SVG/1.1/DTD/svg11.dtd">
<!-- Generated by graphviz version 14.1.5 (20260411.2331)
 -->
<!-- Title: dependency&#45;cruiser output Pages: 1 -->
<svg width="428pt" height="288pt"
 viewBox="0.00 0.00 428.00 288.00" xmlns="http://www.w3.org/2000/svg" xmlns:xlink="http://www.w3.org/1999/xlink">
<g id="graph0" class="graph" transform="scale(1 1) rotate(0) translate(4 284)">
<title>dependency&#45;cruiser output</title>
<polygon fill="white" stroke="none" points="-4,4 -4,-284 424.2,-284 424.2,4 -4,4"/>
<g id="clust1" class="cluster">
<title>cluster_packages</title>
<path fill="#ffffff" stroke="black" stroke-width="2" d="M20,-8C20,-8 400.2,-8 400.2,-8 406.2,-8 412.2,-14 412.2,-20 412.2,-20 412.2,-260 412.2,-260 412.2,-266 406.2,-272 400.2,-272 400.2,-272 20,-272 20,-272 14,-272 8,-266 8,-260 8,-260 8,-20 8,-20 8,-14 14,-8 20,-8"/>
<text xml:space="preserve" text-anchor="middle" x="210.1" y="-259.45" font-family="Helvetica,sans-Serif" font-weight="bold" font-size="9.00">packages</text>
</g>
<g id="clust2" class="cluster">
<title>cluster_packages/client</title>
<path fill="#ffffff" stroke="black" stroke-width="2" d="M147.8,-136C147.8,-136 262.6,-136 262.6,-136 268.6,-136 274.6,-142 274.6,-148 274.6,-148 274.6,-222 274.6,-222 274.6,-228 268.6,-234 262.6,-234 262.6,-234 147.8,-234 147.8,-234 141.8,-234 135.8,-228 135.8,-222 135.8,-222 135.8,-148 135.8,-148 135.8,-142 141.8,-136 147.8,-136"/>
<text xml:space="preserve" text-anchor="middle" x="205.2" y="-221.45" font-family="Helvetica,sans-Serif" font-weight="bold" font-size="9.00">client</text>
</g>
<g id="clust3" class="cluster">
<title>cluster_packages/client/src</title>
<path fill="#ffffff" stroke="black" stroke-width="2" d="M155.8,-144C155.8,-144 254.6,-144 254.6,-144 260.6,-144 266.6,-150 266.6,-156 266.6,-156 266.6,-184 266.6,-184 266.6,-190 260.6,-196 254.6,-196 254.6,-196 155.8,-196 155.8,-196 149.8,-196 143.8,-190 143.8,-184 143.8,-184 143.8,-156 143.8,-156 143.8,-150 149.8,-144 155.8,-144"/>
<text xml:space="preserve" text-anchor="middle" x="205.2" y="-183.45" font-family="Helvetica,sans-Serif" font-weight="bold" font-size="9.00">src</text>
</g>
<g id="clust4" class="cluster">
<title>cluster_packages/host</title>
<path fill="#ffffff" stroke="black" stroke-width="2" d="M28,-16C28,-16 184.6,-16 184.6,-16 190.6,-16 196.6,-22 196.6,-28 196.6,-28 196.6,-116 196.6,-116 196.6,-122 190.6,-128 184.6,-128 184.6,-128 28,-128 28,-128 22,-128 16,-122 16,-116 16,-116 16,-28 16,-28 16,-22 22,-16 28,-16"/>
<text xml:space="preserve" text-anchor="middle" x="106.3" y="-115.45" font-family="Helvetica,sans-Serif" font-weight="bold" font-size="9.00">host</text>
</g>
<g id="clust5" class="cluster">
<title>cluster_packages/host/src</title>
<path fill="#ffffff" stroke="black" stroke-width="2" d="M36,-24C36,-24 176.6,-24 176.6,-24 182.6,-24 188.6,-30 188.6,-36 188.6,-36 188.6,-78 188.6,-78 188.6,-84 182.6,-90 176.6,-90 176.6,-90 36,-90 36,-90 30,-90 24,-84 24,-78 24,-78 24,-36 24,-36 24,-30 30,-24 36,-24"/>
<text xml:space="preserve" text-anchor="middle" x="106.3" y="-77.45" font-family="Helvetica,sans-Serif" font-weight="bold" font-size="9.00">src</text>
</g>
<g id="clust6" class="cluster">
<title>cluster_packages/lab</title>
<path fill="#ffffff" stroke="black" stroke-width="2" d="M28,-136C28,-136 106.6,-136 106.6,-136 112.6,-136 118.6,-142 118.6,-148 118.6,-148 118.6,-222 118.6,-222 118.6,-228 112.6,-234 106.6,-234 106.6,-234 28,-234 28,-234 22,-234 16,-228 16,-222 16,-222 16,-148 16,-148 16,-142 22,-136 28,-136"/>
<text xml:space="preserve" text-anchor="middle" x="67.3" y="-221.45" font-family="Helvetica,sans-Serif" font-weight="bold" font-size="9.00">lab</text>
</g>
<g id="clust7" class="cluster">
<title>cluster_packages/lab/src</title>
<path fill="#ffffff" stroke="black" stroke-width="2" d="M36,-144C36,-144 98.6,-144 98.6,-144 104.6,-144 110.6,-150 110.6,-156 110.6,-156 110.6,-184 110.6,-184 110.6,-190 104.6,-196 98.6,-196 98.6,-196 36,-196 36,-196 30,-196 24,-190 24,-184 24,-184 24,-156 24,-156 24,-150 30,-144 36,-144"/>
<text xml:space="preserve" text-anchor="middle" x="67.3" y="-183.45" font-family="Helvetica,sans-Serif" font-weight="bold" font-size="9.00">src</text>
</g>
<g id="clust8" class="cluster">
<title>cluster_packages/substrate</title>
<path fill="#ffffff" stroke="black" stroke-width="2" d="M294.6,-88C294.6,-88 392.2,-88 392.2,-88 398.2,-88 404.2,-94 404.2,-100 404.2,-100 404.2,-234 404.2,-234 404.2,-240 398.2,-246 392.2,-246 392.2,-246 294.6,-246 294.6,-246 288.6,-246 282.6,-240 282.6,-234 282.6,-234 282.6,-100 282.6,-100 282.6,-94 288.6,-88 294.6,-88"/>
<text xml:space="preserve" text-anchor="middle" x="343.4" y="-233.45" font-family="Helvetica,sans-Serif" font-weight="bold" font-size="9.00">substrate</text>
</g>
<g id="clust9" class="cluster">
<title>cluster_packages/substrate/src</title>
<path fill="#ffffff" stroke="black" stroke-width="2" d="M302.6,-96C302.6,-96 384.2,-96 384.2,-96 390.2,-96 396.2,-102 396.2,-108 396.2,-108 396.2,-196 396.2,-196 396.2,-202 390.2,-208 384.2,-208 384.2,-208 302.6,-208 302.6,-208 296.6,-208 290.6,-202 290.6,-196 290.6,-196 290.6,-108 290.6,-108 290.6,-102 296.6,-96 302.6,-96"/>
<text xml:space="preserve" text-anchor="middle" x="343.4" y="-195.45" font-family="Helvetica,sans-Serif" font-weight="bold" font-size="9.00">src</text>
</g>
<!-- packages -->
<!-- packages/client -->
<!-- packages/client/src -->
<!-- packages/client/src/client -->
<g id="node4" class="node">
<title>packages/client/src/client</title>
<g id="a_node4"><a xlink:href="packages/client/src/client" xlink:title="client">
<polygon fill="#f3e5f5" stroke="black" points="258.6,-169.88 206.57,-169.88 204.6,-167.9 204.6,-152.12 256.63,-152.12 258.6,-154.1 258.6,-169.88"/>
<polyline fill="none" stroke="black" points="256.63,-167.9 204.6,-167.9"/>
<polyline fill="none" stroke="black" points="256.63,-167.9 256.63,-152.12"/>
<polyline fill="none" stroke="black" points="256.63,-167.9 258.6,-169.88"/>
<text xml:space="preserve" text-anchor="start" x="220.73" y="-158.38" font-family="Helvetica,sans-Serif" font-size="9.00">client</text>
</a>
</g>
</g>
<!-- packages/client/src&#45;&gt;packages/client/src/client -->
<g id="edge1" class="edge">
<title>packages/client/src&#45;&gt;packages/client/src/client</title>
<path fill="none" stroke="#000000" stroke-width="2" stroke-opacity="0.200000" d="M155.67,-157.06C160.36,-157.3 179.55,-158.31 197.33,-159.25"/>
<polygon fill="#000000" fill-opacity="0.200000" stroke="#000000" stroke-width="2" stroke-opacity="0.200000" points="203.19,-161.66 197.31,-159.25 203.41,-157.47 203.19,-161.66"/>
</g>
<!-- packages/substrate/src -->
<!-- packages/client/src/client&#45;&gt;packages/substrate/src -->
<g id="edge2" class="edge">
<title>packages/client/src/client&#45;&gt;packages/substrate/src</title>
<path fill="none" stroke="#000000" stroke-width="2" stroke-opacity="0.200000" d="M259,-161C269.66,-161 281.31,-161 289.35,-161"/>
<polygon fill="#000000" fill-opacity="0.200000" stroke="#000000" stroke-width="2" stroke-opacity="0.200000" points="289.15,-163.1 295.15,-161 289.15,-158.9 289.15,-163.1"/>
</g>
<!-- packages/substrate/src/choreography -->
<g id="node14" class="node">
<title>packages/substrate/src/choreography</title>
<g id="a_node14"><a xlink:href="packages/substrate/src/choreography" xlink:title="choreography">
<polygon fill="#e3f2fd" stroke="black" points="388.2,-121.88 317.17,-121.88 315.2,-119.9 315.2,-104.12 386.23,-104.12 388.2,-106.1 388.2,-121.88"/>
<polyline fill="none" stroke="black" points="386.23,-119.9 315.2,-119.9"/>
<polyline fill="none" stroke="black" points="386.23,-119.9 386.23,-104.12"/>
<polyline fill="none" stroke="black" points="386.23,-119.9 388.2,-121.88"/>
<text xml:space="preserve" text-anchor="start" x="323.2" y="-110.38" font-family="Helvetica,sans-Serif" font-size="9.00">choreography</text>
</a>
</g>
</g>
<!-- packages/substrate/src&#45;&gt;packages/substrate/src/choreography -->
<g id="edge9" class="edge">
<title>packages/substrate/src&#45;&gt;packages/substrate/src/choreography</title>
<path fill="none" stroke="#000000" stroke-width="2" stroke-opacity="0.200000" d="M301.45,-159.32C301.79,-152.91 303.95,-138.35 310.71,-127.69"/>
<polygon fill="#000000" fill-opacity="0.200000" stroke="#000000" stroke-width="2" stroke-opacity="0.200000" points="316,-124.33 310.65,-127.76 312.69,-121.74 316,-124.33"/>
</g>
<!-- packages/substrate/src/event&#45;plane -->
<g id="node15" class="node">
<title>packages/substrate/src/event&#45;plane</title>
<g id="a_node15"><a xlink:href="packages/substrate/src/event-plane" xlink:title="event&#45;plane">
<polygon fill="#e3f2fd" stroke="black" points="384.08,-151.88 321.3,-151.88 319.33,-149.9 319.33,-134.12 382.1,-134.12 384.08,-136.1 384.08,-151.88"/>
<polyline fill="none" stroke="black" points="382.1,-149.9 319.33,-149.9"/>
<polyline fill="none" stroke="black" points="382.1,-149.9 382.1,-134.12"/>
<polyline fill="none" stroke="black" points="382.1,-149.9 384.08,-151.88"/>
<text xml:space="preserve" text-anchor="start" x="327.33" y="-140.38" font-family="Helvetica,sans-Serif" font-size="9.00">event&#45;plane</text>
</a>
</g>
</g>
<!-- packages/substrate/src&#45;&gt;packages/substrate/src/event&#45;plane -->
<g id="edge10" class="edge">
<title>packages/substrate/src&#45;&gt;packages/substrate/src/event&#45;plane</title>
<path fill="none" stroke="#000000" stroke-width="2" stroke-opacity="0.200000" d="M302.62,-160.56C305.14,-159.63 311.28,-157.39 318.37,-154.8"/>
<polygon fill="#000000" fill-opacity="0.200000" stroke="#000000" stroke-width="2" stroke-opacity="0.200000" points="324.85,-154.67 318.49,-154.76 323.41,-150.73 324.85,-154.67"/>
</g>
<!-- packages/substrate/src/facade -->
<g id="node16" class="node">
<title>packages/substrate/src/facade</title>
<g id="a_node16"><a xlink:href="packages/substrate/src/facade" xlink:title="facade">
<polygon fill="#e3f2fd" stroke="black" points="378.7,-181.88 326.67,-181.88 324.7,-179.9 324.7,-164.12 376.73,-164.12 378.7,-166.1 378.7,-181.88"/>
<polyline fill="none" stroke="black" points="376.73,-179.9 324.7,-179.9"/>
<polyline fill="none" stroke="black" points="376.73,-179.9 376.73,-164.12"/>
<polyline fill="none" stroke="black" points="376.73,-179.9 378.7,-181.88"/>
<text xml:space="preserve" text-anchor="start" x="337.83" y="-170.38" font-family="Helvetica,sans-Serif" font-size="9.00">facade</text>
</a>
</g>
</g>
<!-- packages/substrate/src&#45;&gt;packages/substrate/src/facade -->
<g id="edge11" class="edge">
<title>packages/substrate/src&#45;&gt;packages/substrate/src/facade</title>
<path fill="none" stroke="#000000" stroke-width="2" stroke-opacity="0.200000" d="M302.26,-159.91C305.01,-158.62 314.04,-159.75 323.57,-161.92"/>
<polygon fill="#000000" fill-opacity="0.200000" stroke="#000000" stroke-width="2" stroke-opacity="0.200000" points="329.03,-165.45 323.72,-161.95 330.05,-161.37 329.03,-165.45"/>
</g>
<!-- packages/host -->
<!-- packages/host/src -->
<!-- packages/host/src/boot -->
<g id="node8" class="node">
<title>packages/host/src/boot</title>
<g id="a_node8"><a xlink:href="packages/host/src/boot" xlink:title="boot">
<polygon fill="#fff3e0" stroke="black" points="180.6,-56.88 128.57,-56.88 126.6,-54.9 126.6,-39.12 178.63,-39.12 180.6,-41.1 180.6,-56.88"/>
<polyline fill="none" stroke="black" points="178.63,-54.9 126.6,-54.9"/>
<polyline fill="none" stroke="black" points="178.63,-54.9 178.63,-39.12"/>
<polyline fill="none" stroke="black" points="178.63,-54.9 180.6,-56.88"/>
<text xml:space="preserve" text-anchor="start" x="144.6" y="-45.38" font-family="Helvetica,sans-Serif" font-size="9.00">boot</text>
</a>
</g>
</g>
<!-- packages/host/src&#45;&gt;packages/host/src/boot -->
<g id="edge3" class="edge">
<title>packages/host/src&#45;&gt;packages/host/src/boot</title>
<path fill="none" stroke="#000000" stroke-width="2" stroke-opacity="0.200000" d="M35.53,-43.71C37.56,-42.91 43.46,-40.73 48.6,-40 79.4,-35.63 87.7,-36.41 118.6,-40 118.92,-40.04 119.23,-40.08 119.55,-40.12"/>
<polygon fill="#000000" fill-opacity="0.200000" stroke="#000000" stroke-width="2" stroke-opacity="0.200000" points="125.03,-43.11 119.43,-40.1 125.69,-38.96 125.03,-43.11"/>
</g>
<!-- packages/host/src/host -->
<g id="node9" class="node">
<title>packages/host/src/host</title>
<g id="a_node9"><a xlink:href="packages/host/src/host" xlink:title="host">
<polygon fill="#fff3e0" stroke="black" points="102.6,-63.88 50.57,-63.88 48.6,-61.9 48.6,-46.12 100.63,-46.12 102.6,-48.1 102.6,-63.88"/>
<polyline fill="none" stroke="black" points="100.63,-61.9 48.6,-61.9"/>
<polyline fill="none" stroke="black" points="100.63,-61.9 100.63,-46.12"/>
<polyline fill="none" stroke="black" points="100.63,-61.9 102.6,-63.88"/>
<text xml:space="preserve" text-anchor="start" x="66.98" y="-52.38" font-family="Helvetica,sans-Serif" font-size="9.00">host</text>
</a>
</g>
</g>
<!-- packages/host/src&#45;&gt;packages/host/src/host -->
<g id="edge4" class="edge">
<title>packages/host/src&#45;&gt;packages/host/src/host</title>
<path fill="none" stroke="#000000" stroke-width="2" stroke-opacity="0.200000" d="M35.78,-44.27C36.92,-44.58 38.95,-45.15 41.52,-45.86"/>
<polygon fill="#000000" fill-opacity="0.200000" stroke="#000000" stroke-width="2" stroke-opacity="0.200000" points="46.78,-49.49 41.56,-45.87 47.9,-45.44 46.78,-49.49"/>
</g>
<!-- packages/host/src/host&#45;&gt;packages/client/src -->
<g id="edge6" class="edge">
<title>packages/host/src/host&#45;&gt;packages/client/src</title>
<path fill="none" stroke="#000000" stroke-width="2" stroke-opacity="0.200000" d="M83.34,-64.05C97.95,-83.65 132.3,-129.76 146.4,-148.68"/>
<polygon fill="#000000" fill-opacity="0.200000" stroke="#000000" stroke-width="2" stroke-opacity="0.200000" points="144.63,-149.82 149.9,-153.38 148,-147.31 144.63,-149.82"/>
</g>
<!-- packages/host/src/host&#45;&gt;packages/substrate/src -->
<g id="edge7" class="edge">
<title>packages/host/src/host&#45;&gt;packages/substrate/src</title>
<path fill="none" stroke="#000000" stroke-width="2" stroke-opacity="0.200000" d="M82.46,-64.09C91.94,-79.31 110.39,-111.2 118.6,-141 124.28,-161.64 110.85,-222.5 126.6,-237 176.57,-282.98 231.83,-251.75 274.6,-199 283.83,-187.61 272.75,-177.86 282.6,-167 284.43,-164.99 286.97,-163.65 289.53,-162.76"/>
<polygon fill="#000000" fill-opacity="0.200000" stroke="#000000" stroke-width="2" stroke-opacity="0.200000" points="289.85,-164.84 295.33,-161.63 289.04,-160.72 289.85,-164.84"/>
</g>
<!-- packages/host/src/host&#45;&gt;packages/host/src/boot -->
<g id="edge5" class="edge">
<title>packages/host/src/host&#45;&gt;packages/host/src/boot</title>
<path fill="none" stroke="#000000" stroke-width="2" stroke-opacity="0.200000" d="M102.75,-52.59C107.48,-52.16 112.47,-51.7 117.4,-51.24"/>
<polygon fill="#000000" fill-opacity="0.200000" stroke="#000000" stroke-width="2" stroke-opacity="0.200000" points="117.34,-53.36 123.12,-50.71 116.96,-49.17 117.34,-53.36"/>
</g>
<!-- packages/lab -->
<!-- packages/lab/src -->
<!-- packages/lab/src/lab -->
<g id="node12" class="node">
<title>packages/lab/src/lab</title>
<g id="a_node12"><a xlink:href="packages/lab/src/lab" xlink:title="lab">
<polygon fill="#e8f5e9" stroke="black" points="102.6,-169.88 50.57,-169.88 48.6,-167.9 48.6,-152.12 100.63,-152.12 102.6,-154.1 102.6,-169.88"/>
<polyline fill="none" stroke="black" points="100.63,-167.9 48.6,-167.9"/>
<polyline fill="none" stroke="black" points="100.63,-167.9 100.63,-152.12"/>
<polyline fill="none" stroke="black" points="100.63,-167.9 102.6,-169.88"/>
<text xml:space="preserve" text-anchor="start" x="69.23" y="-158.38" font-family="Helvetica,sans-Serif" font-size="9.00">lab</text>
</a>
</g>
</g>
<!-- packages/lab/src&#45;&gt;packages/lab/src/lab -->
<g id="edge8" class="edge">
<title>packages/lab/src&#45;&gt;packages/lab/src/lab</title>
<path fill="none" stroke="#000000" stroke-width="2" stroke-opacity="0.200000" d="M35.78,-161C36.6,-161 37.89,-161 39.51,-161"/>
<polygon fill="#000000" fill-opacity="0.200000" stroke="#000000" stroke-width="2" stroke-opacity="0.200000" points="39.28,-163.1 45.28,-161 39.28,-158.9 39.28,-163.1"/>
</g>
<!-- packages/substrate -->
<!-- packages/substrate/src/choreography&#45;&gt;packages/substrate/src -->
<g id="edge12" class="edge">
<title>packages/substrate/src/choreography&#45;&gt;packages/substrate/src</title>
<path fill="none" stroke="#000000" stroke-width="2" stroke-opacity="0.200000" d="M334.66,-122.36C327.95,-125.16 320.49,-128.69 315.2,-134 310.27,-138.95 307.01,-145.92 304.9,-151.67"/>
<polygon fill="#000000" fill-opacity="0.200000" stroke="#000000" stroke-width="2" stroke-opacity="0.200000" points="302.98,-150.77 303.16,-157.13 306.98,-152.05 302.98,-150.77"/>
</g>
<!-- packages/substrate/src/facade&#45;&gt;packages/substrate/src -->
<g id="edge13" class="edge">
<title>packages/substrate/src/facade&#45;&gt;packages/substrate/src</title>
<path fill="none" stroke="#000000" stroke-width="2" stroke-opacity="0.200000" d="M324.3,-171.06C319.05,-169.73 313.91,-168.14 309.83,-166.54"/>
<polygon fill="#000000" fill-opacity="0.200000" stroke="#000000" stroke-width="2" stroke-opacity="0.200000" points="310.87,-164.72 304.6,-163.65 308.84,-168.39 310.87,-164.72"/>
</g>
</g>
</svg>
