<?xml version="1.0" encoding="UTF-8" standalone="no"?>
<!DOCTYPE svg PUBLIC "-//W3C//DTD SVG 1.1//EN"
 "http://www.w3.org/Graphics/SVG/1.1/DTD/svg11.dtd">
<!-- Generated by graphviz version 14.1.5 (20260411.2331)
 -->
<!-- Title: dependency&#45;cruiser output Pages: 1 -->
<svg width="676pt" height="794pt"
 viewBox="0.00 0.00 676.00 794.00" xmlns="http://www.w3.org/2000/svg" xmlns:xlink="http://www.w3.org/1999/xlink">
<g id="graph0" class="graph" transform="scale(1 1) rotate(0) translate(4 790)">
<title>dependency&#45;cruiser output</title>
<polygon fill="white" stroke="none" points="-4,4 -4,-790 672.38,-790 672.38,4 -4,4"/>
<g id="clust1" class="cluster">
<title>cluster_apps</title>
<path fill="#ffffff" stroke="black" stroke-width="2" d="M20,-618C20,-618 166.75,-618 166.75,-618 172.75,-618 178.75,-624 178.75,-630 178.75,-630 178.75,-766 178.75,-766 178.75,-772 172.75,-778 166.75,-778 166.75,-778 20,-778 20,-778 14,-778 8,-772 8,-766 8,-766 8,-630 8,-630 8,-624 14,-618 20,-618"/>
<text xml:space="preserve" text-anchor="middle" x="93.38" y="-765.45" font-family="Helvetica,sans-Serif" font-weight="bold" font-size="9.00">apps</text>
</g>
<g id="clust2" class="cluster">
<title>cluster_apps/lab</title>
<path fill="#ffffff" stroke="black" stroke-width="2" d="M28,-626C28,-626 158.75,-626 158.75,-626 164.75,-626 170.75,-632 170.75,-638 170.75,-638 170.75,-728 170.75,-728 170.75,-734 164.75,-740 158.75,-740 158.75,-740 28,-740 28,-740 22,-740 16,-734 16,-728 16,-728 16,-638 16,-638 16,-632 22,-626 28,-626"/>
<text xml:space="preserve" text-anchor="middle" x="93.38" y="-727.45" font-family="Helvetica,sans-Serif" font-weight="bold" font-size="9.00">lab</text>
</g>
<g id="clust3" class="cluster">
<title>cluster_apps/lab/src</title>
<path fill="#ffffff" stroke="black" stroke-width="2" d="M36,-634C36,-634 150.75,-634 150.75,-634 156.75,-634 162.75,-640 162.75,-646 162.75,-646 162.75,-690 162.75,-690 162.75,-696 156.75,-702 150.75,-702 150.75,-702 36,-702 36,-702 30,-702 24,-696 24,-690 24,-690 24,-646 24,-646 24,-640 30,-634 36,-634"/>
<text xml:space="preserve" text-anchor="middle" x="93.38" y="-689.45" font-family="Helvetica,sans-Serif" font-weight="bold" font-size="9.00">src</text>
</g>
<g id="clust4" class="cluster">
<title>cluster_packages</title>
<path fill="#ffffff" stroke="black" stroke-width="2" d="M20,-8C20,-8 648.38,-8 648.38,-8 654.38,-8 660.38,-14 660.38,-20 660.38,-20 660.38,-598 660.38,-598 660.38,-604 654.38,-610 648.38,-610 648.38,-610 20,-610 20,-610 14,-610 8,-604 8,-598 8,-598 8,-20 8,-20 8,-14 14,-8 20,-8"/>
<text xml:space="preserve" text-anchor="middle" x="334.19" y="-597.45" font-family="Helvetica,sans-Serif" font-weight="bold" font-size="9.00">packages</text>
</g>
<g id="clust5" class="cluster">
<title>cluster_packages/client</title>
<path fill="#ffffff" stroke="black" stroke-width="2" d="M28,-444C28,-444 323.62,-444 323.62,-444 329.62,-444 335.62,-450 335.62,-456 335.62,-456 335.62,-560 335.62,-560 335.62,-566 329.62,-572 323.62,-572 323.62,-572 28,-572 28,-572 22,-572 16,-566 16,-560 16,-560 16,-456 16,-456 16,-450 22,-444 28,-444"/>
<text xml:space="preserve" text-anchor="middle" x="175.81" y="-559.45" font-family="Helvetica,sans-Serif" font-weight="bold" font-size="9.00">client</text>
</g>
<g id="clust6" class="cluster">
<title>cluster_packages/client/src</title>
<path fill="#ffffff" stroke="black" stroke-width="2" d="M36,-452C36,-452 315.62,-452 315.62,-452 321.62,-452 327.62,-458 327.62,-464 327.62,-464 327.62,-522 327.62,-522 327.62,-528 321.62,-534 315.62,-534 315.62,-534 36,-534 36,-534 30,-534 24,-528 24,-522 24,-522 24,-464 24,-464 24,-458 30,-452 36,-452"/>
<text xml:space="preserve" text-anchor="middle" x="175.81" y="-521.45" font-family="Helvetica,sans-Serif" font-weight="bold" font-size="9.00">src</text>
</g>
<g id="clust7" class="cluster">
<title>cluster_packages/runtime</title>
<path fill="#ffffff" stroke="black" stroke-width="2" d="M28,-28C28,-28 331.62,-28 331.62,-28 337.62,-28 343.62,-34 343.62,-40 343.62,-40 343.62,-174 343.62,-174 343.62,-180 337.62,-186 331.62,-186 331.62,-186 28,-186 28,-186 22,-186 16,-180 16,-174 16,-174 16,-40 16,-40 16,-34 22,-28 28,-28"/>
<text xml:space="preserve" text-anchor="middle" x="179.81" y="-173.45" font-family="Helvetica,sans-Serif" font-weight="bold" font-size="9.00">runtime</text>
</g>
<g id="clust8" class="cluster">
<title>cluster_packages/runtime/src</title>
<path fill="#ffffff" stroke="black" stroke-width="2" d="M36,-36C36,-36 323.62,-36 323.62,-36 329.62,-36 335.62,-42 335.62,-48 335.62,-48 335.62,-136 335.62,-136 335.62,-142 329.62,-148 323.62,-148 323.62,-148 36,-148 36,-148 30,-148 24,-142 24,-136 24,-136 24,-48 24,-48 24,-42 30,-36 36,-36"/>
<text xml:space="preserve" text-anchor="middle" x="179.81" y="-135.45" font-family="Helvetica,sans-Serif" font-weight="bold" font-size="9.00">src</text>
</g>
<g id="clust9" class="cluster">
<title>cluster_packages/runtime/src/runtime</title>
<path fill="#ffffff" stroke="black" stroke-width="2" d="M215.95,-70C215.95,-70 315.62,-70 315.62,-70 321.62,-70 327.62,-76 327.62,-82 327.62,-82 327.62,-110 327.62,-110 327.62,-116 321.62,-122 315.62,-122 315.62,-122 215.95,-122 215.95,-122 209.95,-122 203.95,-116 203.95,-110 203.95,-110 203.95,-82 203.95,-82 203.95,-76 209.95,-70 215.95,-70"/>
<text xml:space="preserve" text-anchor="middle" x="265.79" y="-109.45" font-family="Helvetica,sans-Serif" font-weight="bold" font-size="9.00">runtime</text>
</g>
<g id="clust10" class="cluster">
<title>cluster_packages/substrate</title>
<path fill="#ffffff" stroke="black" stroke-width="2" d="M260.75,-194C260.75,-194 640.38,-194 640.38,-194 646.38,-194 652.38,-200 652.38,-206 652.38,-206 652.38,-424 652.38,-424 652.38,-430 646.38,-436 640.38,-436 640.38,-436 260.75,-436 260.75,-436 254.75,-436 248.75,-430 248.75,-424 248.75,-424 248.75,-206 248.75,-206 248.75,-200 254.75,-194 260.75,-194"/>
<text xml:space="preserve" text-anchor="middle" x="450.56" y="-423.45" font-family="Helvetica,sans-Serif" font-weight="bold" font-size="9.00">substrate</text>
</g>
<g id="clust11" class="cluster">
<title>cluster_packages/substrate/src</title>
<path fill="#ffffff" stroke="black" stroke-width="2" d="M268.75,-202C268.75,-202 632.38,-202 632.38,-202 638.38,-202 644.38,-208 644.38,-214 644.38,-214 644.38,-386 644.38,-386 644.38,-392 638.38,-398 632.38,-398 632.38,-398 268.75,-398 268.75,-398 262.75,-398 256.75,-392 256.75,-386 256.75,-386 256.75,-214 256.75,-214 256.75,-208 262.75,-202 268.75,-202"/>
<text xml:space="preserve" text-anchor="middle" x="450.56" y="-385.45" font-family="Helvetica,sans-Serif" font-weight="bold" font-size="9.00">src</text>
</g>
<!-- apps -->
<!-- apps/lab -->
<!-- apps/lab/src -->
<!-- apps/lab/src/lab -->
<g id="node4" class="node">
<title>apps/lab/src/lab</title>
<g id="a_node4"><a xlink:href="apps/lab/src/lab" xlink:title="lab">
<polygon fill="#ffffcc" stroke="black" points="154.75,-659.88 102.72,-659.88 100.75,-657.9 100.75,-642.12 152.78,-642.12 154.75,-644.1 154.75,-659.88"/>
<polyline fill="none" stroke="black" points="152.78,-657.9 100.75,-657.9"/>
<polyline fill="none" stroke="black" points="152.78,-657.9 152.78,-642.12"/>
<polyline fill="none" stroke="black" points="152.78,-657.9 154.75,-659.88"/>
<text xml:space="preserve" text-anchor="start" x="121.38" y="-648.38" font-family="Helvetica,sans-Serif" font-size="9.00">lab</text>
</a>
</g>
</g>
<!-- apps/lab/src&#45;&gt;apps/lab/src/lab -->
<g id="edge1" class="edge">
<title>apps/lab/src&#45;&gt;apps/lab/src/lab</title>
<path fill="none" stroke="#000000" stroke-width="2" stroke-opacity="0.200000" d="M61.91,-673.72C65.51,-672.75 77.8,-669.39 87.75,-666 90.13,-665.19 92.58,-664.32 95.04,-663.43"/>
<polygon fill="#000000" fill-opacity="0.200000" stroke="#000000" stroke-width="2" stroke-opacity="0.200000" points="95.62,-665.46 100.51,-661.4 94.15,-661.52 95.62,-665.46"/>
</g>
<!-- packages/client/src/firegrid -->
<g id="node7" class="node">
<title>packages/client/src/firegrid</title>
<g id="a_node7"><a xlink:href="packages/client/src/firegrid" xlink:title="firegrid">
<polygon fill="#ffffcc" stroke="black" points="240.75,-507.88 188.72,-507.88 186.75,-505.9 186.75,-490.12 238.78,-490.12 240.75,-492.1 240.75,-507.88"/>
<polyline fill="none" stroke="black" points="238.78,-505.9 186.75,-505.9"/>
<polyline fill="none" stroke="black" points="238.78,-505.9 238.78,-490.12"/>
<polyline fill="none" stroke="black" points="238.78,-505.9 240.75,-507.88"/>
<text xml:space="preserve" text-anchor="start" x="199.5" y="-496.38" font-family="Helvetica,sans-Serif" font-size="9.00">firegrid</text>
</a>
</g>
</g>
<!-- apps/lab/src/lab&#45;&gt;packages/client/src/firegrid -->
<g id="edge4" class="edge">
<title>apps/lab/src/lab&#45;&gt;packages/client/src/firegrid</title>
<path fill="none" stroke="#000000" stroke-width="2" stroke-opacity="0.200000" d="M133.75,-641.95C147.44,-617.19 185.64,-548.06 203.42,-515.88"/>
<polygon fill="#000000" fill-opacity="0.200000" stroke="#000000" stroke-width="2" stroke-opacity="0.200000" points="205.14,-517.11 206.2,-510.85 201.46,-515.08 205.14,-517.11"/>
</g>
<!-- apps/lab/src/__tests__ -->
<g id="node5" class="node">
<title>apps/lab/src/__tests__</title>
<g id="a_node5"><a xlink:href="apps/lab/src/__tests__" xlink:title="__tests__">
<polygon fill="#ffffcc" stroke="black" points="87.75,-659.88 33.97,-659.88 32,-657.9 32,-642.12 85.78,-642.12 87.75,-644.1 87.75,-659.88"/>
<polyline fill="none" stroke="black" points="85.78,-657.9 32,-657.9"/>
<polyline fill="none" stroke="black" points="85.78,-657.9 85.78,-642.12"/>
<polyline fill="none" stroke="black" points="85.78,-657.9 87.75,-659.88"/>
<text xml:space="preserve" text-anchor="start" x="40" y="-648.38" font-family="Helvetica,sans-Serif" font-size="9.00">__tests__</text>
</a>
</g>
</g>
<!-- apps/lab/src/__tests__&#45;&gt;apps/lab/src/lab -->
<g id="edge2" class="edge">
<title>apps/lab/src/__tests__&#45;&gt;apps/lab/src/lab</title>
<path fill="none" stroke="#000000" stroke-width="2" stroke-opacity="0.200000" d="M88.05,-651C89.21,-651 90.37,-651 91.54,-651"/>
<polygon fill="#000000" fill-opacity="0.200000" stroke="#000000" stroke-width="2" stroke-opacity="0.200000" points="91.46,-653.1 97.46,-651 91.46,-648.9 91.46,-653.1"/>
</g>
<!-- packages/client/src -->
<!-- apps/lab/src/__tests__&#45;&gt;packages/client/src -->
<g id="edge3" class="edge">
<title>apps/lab/src/__tests__&#45;&gt;packages/client/src</title>
<path fill="none" stroke="#000000" stroke-width="2" stroke-dasharray="5,2" stroke-opacity="0.200000" d="M68.52,-641.8C74.39,-634.39 82.38,-623.5 87.75,-613 106.3,-576.71 119.21,-529.62 124.31,-509.2"/>
<polygon fill="#000000" fill-opacity="0.200000" stroke="#000000" stroke-width="2" stroke-opacity="0.200000" points="126.29,-509.95 125.66,-503.62 122.21,-508.96 126.29,-509.95"/>
</g>
<!-- packages/client/src&#45;&gt;packages/client/src/firegrid -->
<g id="edge5" class="edge">
<title>packages/client/src&#45;&gt;packages/client/src/firegrid</title>
<path fill="none" stroke="#000000" stroke-width="2" stroke-opacity="0.200000" d="M129.94,-499C135.4,-499 158.69,-499 179.18,-499"/>
<polygon fill="#000000" fill-opacity="0.200000" stroke="#000000" stroke-width="2" stroke-opacity="0.200000" points="185.28,-501.1 179.28,-499 185.28,-496.9 185.28,-501.1"/>
</g>
<!-- packages/substrate/src/descriptors -->
<g id="node13" class="node">
<title>packages/substrate/src/descriptors</title>
<g id="a_node13"><a xlink:href="packages/substrate/src/descriptors" xlink:title="descriptors">
<polygon fill="#ffffcc" stroke="black" points="563.38,-315.88 504.35,-315.88 502.38,-313.9 502.38,-298.12 561.4,-298.12 563.38,-300.1 563.38,-315.88"/>
<polyline fill="none" stroke="black" points="561.4,-313.9 502.38,-313.9"/>
<polyline fill="none" stroke="black" points="561.4,-313.9 561.4,-298.12"/>
<polyline fill="none" stroke="black" points="561.4,-313.9 563.38,-315.88"/>
<text xml:space="preserve" text-anchor="start" x="510.38" y="-304.38" font-family="Helvetica,sans-Serif" font-size="9.00">descriptors</text>
</a>
</g>
</g>
<!-- packages/client/src/firegrid&#45;&gt;packages/substrate/src/descriptors -->
<g id="edge13" class="edge">
<title>packages/client/src/firegrid&#45;&gt;packages/substrate/src/descriptors</title>
<path fill="none" stroke="#000000" stroke-width="2" stroke-opacity="0.200000" d="M240.86,-503.21C293.94,-510.16 415.16,-517.66 483.38,-455 520.93,-420.5 529.47,-356.51 531.37,-325.21"/>
<polygon fill="#000000" fill-opacity="0.200000" stroke="#000000" stroke-width="2" stroke-opacity="0.200000" points="533.46,-325.38 531.64,-319.29 529.27,-325.19 533.46,-325.38"/>
</g>
<!-- packages/client/src/client -->
<g id="node14" class="node">
<title>packages/client/src/client</title>
<g id="a_node14"><a xlink:href="packages/client/src/client" xlink:title="client">
<polygon fill="#ffffcc" stroke="black" points="319.62,-481.88 267.6,-481.88 265.62,-479.9 265.62,-464.12 317.65,-464.12 319.62,-466.1 319.62,-481.88"/>
<polyline fill="none" stroke="black" points="317.65,-479.9 265.62,-479.9"/>
<polyline fill="none" stroke="black" points="317.65,-479.9 317.65,-464.12"/>
<polyline fill="none" stroke="black" points="317.65,-479.9 319.62,-481.88"/>
<text xml:space="preserve" text-anchor="start" x="281.75" y="-470.38" font-family="Helvetica,sans-Serif" font-size="9.00">client</text>
</a>
</g>
</g>
<!-- packages/client/src/firegrid&#45;&gt;packages/client/src/client -->
<g id="edge14" class="edge">
<title>packages/client/src/firegrid&#45;&gt;packages/client/src/client</title>
<path fill="none" stroke="#000000" stroke-width="2" stroke-opacity="0.200000" d="M241.21,-490.05C246.34,-488.32 251.78,-486.47 257.13,-484.67"/>
<polygon fill="#000000" fill-opacity="0.200000" stroke="#000000" stroke-width="2" stroke-opacity="0.200000" points="257.5,-486.76 262.51,-482.85 256.16,-482.78 257.5,-486.76"/>
</g>
<!-- packages -->
<!-- packages/client -->
<!-- packages/client/src/__tests__ -->
<g id="node10" class="node">
<title>packages/client/src/__tests__</title>
<g id="a_node10"><a xlink:href="packages/client/src/__tests__" xlink:title="__tests__">
<polygon fill="#ffffcc" stroke="black" points="87.75,-477.88 33.97,-477.88 32,-475.9 32,-460.12 85.78,-460.12 87.75,-462.1 87.75,-477.88"/>
<polyline fill="none" stroke="black" points="85.78,-475.9 32,-475.9"/>
<polyline fill="none" stroke="black" points="85.78,-475.9 85.78,-460.12"/>
<polyline fill="none" stroke="black" points="85.78,-475.9 87.75,-477.88"/>
<text xml:space="preserve" text-anchor="start" x="40" y="-466.38" font-family="Helvetica,sans-Serif" font-size="9.00">__tests__</text>
</a>
</g>
</g>
<!-- packages/client/src/__tests__&#45;&gt;packages/client/src -->
<g id="edge6" class="edge">
<title>packages/client/src/__tests__&#45;&gt;packages/client/src</title>
<path fill="none" stroke="#000000" stroke-width="2" stroke-opacity="0.200000" d="M81.36,-478.33C93.52,-483.87 108.34,-490.61 117.66,-494.86"/>
<polygon fill="#000000" fill-opacity="0.200000" stroke="#000000" stroke-width="2" stroke-opacity="0.200000" points="116.51,-496.64 122.84,-497.22 118.25,-492.82 116.51,-496.64"/>
</g>
<!-- packages/client/src/__tests__&#45;&gt;packages/client/src/firegrid -->
<g id="edge9" class="edge">
<title>packages/client/src/__tests__&#45;&gt;packages/client/src/firegrid</title>
<path fill="none" stroke="#000000" stroke-width="2" stroke-opacity="0.200000" d="M88.1,-473.71C110.26,-477.63 142.55,-483.51 177.87,-490.88"/>
<polygon fill="#000000" fill-opacity="0.200000" stroke="#000000" stroke-width="2" stroke-opacity="0.200000" points="177.15,-492.87 183.46,-492.05 178.02,-488.76 177.15,-492.87"/>
</g>
<!-- packages/client/src/compat -->
<g id="node11" class="node">
<title>packages/client/src/compat</title>
<g id="a_node11"><a xlink:href="packages/client/src/compat" xlink:title="compat">
<polygon fill="#ffffcc" stroke="black" points="240.75,-477.88 188.72,-477.88 186.75,-475.9 186.75,-460.12 238.78,-460.12 240.75,-462.1 240.75,-477.88"/>
<polyline fill="none" stroke="black" points="238.78,-475.9 186.75,-475.9"/>
<polyline fill="none" stroke="black" points="238.78,-475.9 238.78,-460.12"/>
<polyline fill="none" stroke="black" points="238.78,-475.9 240.75,-477.88"/>
<text xml:space="preserve" text-anchor="start" x="198.75" y="-466.38" font-family="Helvetica,sans-Serif" font-size="9.00">compat</text>
</a>
</g>
</g>
<!-- packages/client/src/__tests__&#45;&gt;packages/client/src/compat -->
<g id="edge7" class="edge">
<title>packages/client/src/__tests__&#45;&gt;packages/client/src/compat</title>
<path fill="none" stroke="#000000" stroke-width="2" stroke-opacity="0.200000" d="M88.03,-469C113.02,-469 150.23,-469 177.5,-469"/>
<polygon fill="#000000" fill-opacity="0.200000" stroke="#000000" stroke-width="2" stroke-opacity="0.200000" points="177.31,-471.1 183.31,-469 177.31,-466.9 177.31,-471.1"/>
</g>
<!-- packages/substrate/src/kernel -->
<g id="node12" class="node">
<title>packages/substrate/src/kernel</title>
<g id="a_node12"><a xlink:href="packages/substrate/src/kernel" xlink:title="kernel">
<polygon fill="#ffffcc" stroke="black" points="405.62,-347.88 353.6,-347.88 351.62,-345.9 351.62,-330.12 403.65,-330.12 405.62,-332.1 405.62,-347.88"/>
<polyline fill="none" stroke="black" points="403.65,-345.9 351.62,-345.9"/>
<polyline fill="none" stroke="black" points="403.65,-345.9 403.65,-330.12"/>
<polyline fill="none" stroke="black" points="403.65,-345.9 405.62,-347.88"/>
<text xml:space="preserve" text-anchor="start" x="365.88" y="-336.38" font-family="Helvetica,sans-Serif" font-size="9.00">kernel</text>
</a>
</g>
</g>
<!-- packages/client/src/__tests__&#45;&gt;packages/substrate/src/kernel -->
<g id="edge8" class="edge">
<title>packages/client/src/__tests__&#45;&gt;packages/substrate/src/kernel</title>
<path fill="none" stroke="#000000" stroke-width="2" stroke-opacity="0.200000" d="M71.58,-459.82C79.19,-453.88 89.93,-446.61 100.75,-443 152.06,-425.89 300.05,-459.04 343.62,-427 365.95,-410.58 373.62,-377.43 376.25,-356.83"/>
<polygon fill="#000000" fill-opacity="0.200000" stroke="#000000" stroke-width="2" stroke-opacity="0.200000" points="378.31,-357.3 376.85,-351.11 374.13,-356.86 378.31,-357.3"/>
</g>
<!-- packages/client/src/__tests__&#45;&gt;packages/substrate/src/descriptors -->
<g id="edge10" class="edge">
<title>packages/client/src/__tests__&#45;&gt;packages/substrate/src/descriptors</title>
<path fill="none" stroke="#000000" stroke-width="2" stroke-opacity="0.200000" d="M87.87,-465.65C113.35,-462.52 152.63,-457.77 186.75,-454 256.41,-446.3 277.13,-460.14 343.62,-438 412.38,-415.11 425.92,-398.17 483.38,-354 495.64,-344.57 508.15,-332.37 517.39,-322.77"/>
<polygon fill="#000000" fill-opacity="0.200000" stroke="#000000" stroke-width="2" stroke-opacity="0.200000" points="518.82,-324.31 521.41,-318.51 515.77,-321.43 518.82,-324.31"/>
</g>
<!-- packages/client/src/compat&#45;&gt;packages/client/src/client -->
<g id="edge12" class="edge">
<title>packages/client/src/compat&#45;&gt;packages/client/src/client</title>
<path fill="none" stroke="#000000" stroke-width="2" stroke-opacity="0.200000" d="M241.21,-470.38C246.7,-470.66 252.56,-470.97 258.27,-471.26"/>
<polygon fill="#000000" fill-opacity="0.200000" stroke="#000000" stroke-width="2" stroke-opacity="0.200000" points="264.27,-473.68 258.39,-471.27 264.49,-469.49 264.27,-473.68"/>
</g>
<!-- packages/substrate/src/kernel&#45;&gt;packages/substrate/src/descriptors -->
<g id="edge43" class="edge">
<title>packages/substrate/src/kernel&#45;&gt;packages/substrate/src/descriptors</title>
<path fill="none" stroke="#000000" stroke-width="2" stroke-opacity="0.200000" d="M406.01,-346.9C427.47,-351.95 458.21,-356.04 483.38,-347 497.63,-341.88 510.68,-330.56 519.64,-321.26"/>
<polygon fill="#000000" fill-opacity="0.200000" stroke="#000000" stroke-width="2" stroke-opacity="0.200000" points="525.29,-318.24 519.68,-321.23 522.21,-315.39 525.29,-318.24"/>
</g>
<!-- packages/substrate/src -->
<!-- packages/substrate/src/kernel&#45;&gt;packages/substrate/src -->
<g id="edge46" class="edge">
<title>packages/substrate/src/kernel&#45;&gt;packages/substrate/src</title>
<path fill="none" stroke="#000000" stroke-width="2" stroke-opacity="0.200000" d="M384.73,-329.73C391.79,-317.16 405.18,-294.22 418.62,-276 426.89,-264.79 437.82,-252.79 444.36,-245.86"/>
<polygon fill="#000000" fill-opacity="0.200000" stroke="#000000" stroke-width="2" stroke-opacity="0.200000" points="449.99,-243.02 444.32,-245.9 446.96,-240.11 449.99,-243.02"/>
</g>
<!-- packages/substrate/src/schema -->
<g id="node23" class="node">
<title>packages/substrate/src/schema</title>
<g id="a_node23"><a xlink:href="packages/substrate/src/schema" xlink:title="schema">
<polygon fill="#ffffcc" stroke="black" points="636.38,-289.88 584.35,-289.88 582.38,-287.9 582.38,-272.12 634.4,-272.12 636.38,-274.1 636.38,-289.88"/>
<polyline fill="none" stroke="black" points="634.4,-287.9 582.38,-287.9"/>
<polyline fill="none" stroke="black" points="634.4,-287.9 634.4,-272.12"/>
<polyline fill="none" stroke="black" points="634.4,-287.9 636.38,-289.88"/>
<text xml:space="preserve" text-anchor="start" x="593.25" y="-278.38" font-family="Helvetica,sans-Serif" font-size="9.00">schema</text>
</a>
</g>
</g>
<!-- packages/substrate/src/kernel&#45;&gt;packages/substrate/src/schema -->
<g id="edge48" class="edge">
<title>packages/substrate/src/kernel&#45;&gt;packages/substrate/src/schema</title>
<path fill="none" stroke="#000000" stroke-width="2" stroke-opacity="0.200000" d="M399.46,-348.24C405.48,-350.6 412.21,-352.81 418.62,-354 446.92,-359.25 455.05,-359.1 483.38,-354 523.51,-346.77 535.34,-344.46 569.38,-322 580.03,-314.97 589.92,-304.5 597.08,-295.91"/>
<polygon fill="#000000" fill-opacity="0.200000" stroke="#000000" stroke-width="2" stroke-opacity="0.200000" points="602.58,-292.42 597.18,-295.78 599.31,-289.78 602.58,-292.42"/>
</g>
<!-- packages/substrate/src/facade -->
<g id="node25" class="node">
<title>packages/substrate/src/facade</title>
<g id="a_node25"><a xlink:href="packages/substrate/src/facade" xlink:title="facade">
<polygon fill="#ffffcc" stroke="black" points="559.88,-285.88 507.85,-285.88 505.88,-283.9 505.88,-268.12 557.9,-268.12 559.88,-270.1 559.88,-285.88"/>
<polyline fill="none" stroke="black" points="557.9,-283.9 505.88,-283.9"/>
<polyline fill="none" stroke="black" points="557.9,-283.9 557.9,-268.12"/>
<polyline fill="none" stroke="black" points="557.9,-283.9 559.88,-285.88"/>
<text xml:space="preserve" text-anchor="start" x="519" y="-274.38" font-family="Helvetica,sans-Serif" font-size="9.00">facade</text>
</a>
</g>
</g>
<!-- packages/substrate/src/kernel&#45;&gt;packages/substrate/src/facade -->
<g id="edge45" class="edge">
<title>packages/substrate/src/kernel&#45;&gt;packages/substrate/src/facade</title>
<path fill="none" stroke="#000000" stroke-width="2" stroke-opacity="0.200000" d="M405.66,-341.61C432.38,-343.71 471.67,-345.02 483.38,-336 499.53,-323.56 482.79,-307.21 496.38,-292 497.43,-290.82 498.58,-289.74 499.82,-288.73"/>
<polygon fill="#000000" fill-opacity="0.200000" stroke="#000000" stroke-width="2" stroke-opacity="0.200000" points="505.99,-287.15 499.83,-288.73 503.66,-283.65 505.99,-287.15"/>
</g>
<!-- packages/substrate/src/event&#45;plane -->
<g id="node27" class="node">
<title>packages/substrate/src/event&#45;plane</title>
<g id="a_node27"><a xlink:href="packages/substrate/src/event-plane" xlink:title="event&#45;plane">
<polygon fill="#ffffcc" stroke="black" points="483.38,-299.88 420.6,-299.88 418.62,-297.9 418.62,-282.12 481.4,-282.12 483.38,-284.1 483.38,-299.88"/>
<polyline fill="none" stroke="black" points="481.4,-297.9 418.62,-297.9"/>
<polyline fill="none" stroke="black" points="481.4,-297.9 481.4,-282.12"/>
<polyline fill="none" stroke="black" points="481.4,-297.9 483.38,-299.88"/>
<text xml:space="preserve" text-anchor="start" x="426.62" y="-288.38" font-family="Helvetica,sans-Serif" font-size="9.00">event&#45;plane</text>
</a>
</g>
</g>
<!-- packages/substrate/src/kernel&#45;&gt;packages/substrate/src/event&#45;plane -->
<g id="edge44" class="edge">
<title>packages/substrate/src/kernel&#45;&gt;packages/substrate/src/event&#45;plane</title>
<path fill="none" stroke="#000000" stroke-width="2" stroke-opacity="0.200000" d="M389.02,-329.85C396.6,-322.78 407.75,-313.03 418.62,-306 419.9,-305.17 421.23,-304.37 422.59,-303.58"/>
<polygon fill="#000000" fill-opacity="0.200000" stroke="#000000" stroke-width="2" stroke-opacity="0.200000" points="428.79,-302.61 422.52,-303.62 426.79,-298.91 428.79,-302.61"/>
</g>
<!-- packages/substrate/src/projection -->
<g id="node28" class="node">
<title>packages/substrate/src/projection</title>
<g id="a_node28"><a xlink:href="packages/substrate/src/projection" xlink:title="projection">
<polygon fill="#ffffcc" stroke="black" points="479.25,-329.88 424.72,-329.88 422.75,-327.9 422.75,-312.12 477.28,-312.12 479.25,-314.1 479.25,-329.88"/>
<polyline fill="none" stroke="black" points="477.28,-327.9 422.75,-327.9"/>
<polyline fill="none" stroke="black" points="477.28,-327.9 477.28,-312.12"/>
<polyline fill="none" stroke="black" points="477.28,-327.9 479.25,-329.88"/>
<text xml:space="preserve" text-anchor="start" x="430.75" y="-318.38" font-family="Helvetica,sans-Serif" font-size="9.00">projection</text>
</a>
</g>
</g>
<!-- packages/substrate/src/kernel&#45;&gt;packages/substrate/src/projection -->
<g id="edge47" class="edge">
<title>packages/substrate/src/kernel&#45;&gt;packages/substrate/src/projection</title>
<path fill="none" stroke="#000000" stroke-width="2" stroke-opacity="0.200000" d="M405.83,-332.3C409.08,-331.47 412.44,-330.61 415.78,-329.75"/>
<polygon fill="#000000" fill-opacity="0.200000" stroke="#000000" stroke-width="2" stroke-opacity="0.200000" points="422.15,-330.29 415.81,-329.74 421.11,-326.22 422.15,-330.29"/>
</g>
<!-- packages/substrate/src/descriptors&#45;&gt;packages/substrate/src/schema -->
<g id="edge41" class="edge">
<title>packages/substrate/src/descriptors&#45;&gt;packages/substrate/src/schema</title>
<path fill="none" stroke="#000000" stroke-width="2" stroke-opacity="0.200000" d="M560.35,-297.76C564.63,-296.27 569.12,-294.7 573.56,-293.15"/>
<polygon fill="#000000" fill-opacity="0.200000" stroke="#000000" stroke-width="2" stroke-opacity="0.200000" points="574.15,-295.17 579.13,-291.21 572.77,-291.2 574.15,-295.17"/>
</g>
<!-- packages/client/src/client&#45;&gt;packages/substrate/src/kernel -->
<g id="edge11" class="edge">
<title>packages/client/src/client&#45;&gt;packages/substrate/src/kernel</title>
<path fill="none" stroke="#000000" stroke-width="2" stroke-opacity="0.200000" d="M314.78,-463.63C324.76,-458.27 336.09,-450.68 343.62,-441 363.22,-415.84 371.8,-378.84 375.34,-357"/>
<polygon fill="#000000" fill-opacity="0.200000" stroke="#000000" stroke-width="2" stroke-opacity="0.200000" points="377.41,-357.37 376.2,-351.13 373.26,-356.76 377.41,-357.37"/>
</g>
<!-- packages/runtime -->
<!-- packages/runtime/src -->
<!-- packages/runtime/src/runtime -->
<!-- packages/runtime/src&#45;&gt;packages/runtime/src/runtime -->
<g id="edge15" class="edge">
<title>packages/runtime/src&#45;&gt;packages/runtime/src/runtime</title>
<path fill="none" stroke="#000000" stroke-width="2" stroke-opacity="0.200000" d="M129.94,-78.03C138.03,-78.22 185.27,-79.35 204.56,-79.8"/>
<polygon fill="#000000" fill-opacity="0.200000" stroke="#000000" stroke-width="2" stroke-opacity="0.200000" points="210.44,-82.05 204.49,-79.8 210.54,-77.85 210.44,-82.05"/>
</g>
<!-- packages/runtime/src/runtime&#45;&gt;packages/substrate/src/kernel -->
<g id="edge23" class="edge">
<title>packages/runtime/src/runtime&#45;&gt;packages/substrate/src/kernel</title>
<path fill="none" stroke="#000000" stroke-width="2" stroke-opacity="0.200000" d="M215.7,-80.97C225.03,-90.61 301.05,-170.1 343.62,-247 357.1,-271.34 367.23,-302.09 372.79,-321.15"/>
<polygon fill="#000000" fill-opacity="0.200000" stroke="#000000" stroke-width="2" stroke-opacity="0.200000" points="370.73,-321.61 374.39,-326.81 374.78,-320.46 370.73,-321.61"/>
</g>
<!-- packages/runtime/src/boot -->
<g id="node19" class="node">
<title>packages/runtime/src/boot</title>
<g id="a_node19"><a xlink:href="packages/runtime/src/boot" xlink:title="boot">
<polygon fill="#ffffcc" stroke="black" points="319.62,-61.88 267.6,-61.88 265.62,-59.9 265.62,-44.12 317.65,-44.12 319.62,-46.1 319.62,-61.88"/>
<polyline fill="none" stroke="black" points="317.65,-59.9 265.62,-59.9"/>
<polyline fill="none" stroke="black" points="317.65,-59.9 317.65,-44.12"/>
<polyline fill="none" stroke="black" points="317.65,-59.9 319.62,-61.88"/>
<text xml:space="preserve" text-anchor="start" x="283.62" y="-50.38" font-family="Helvetica,sans-Serif" font-size="9.00">boot</text>
</a>
</g>
</g>
<!-- packages/runtime/src/runtime&#45;&gt;packages/runtime/src/boot -->
<g id="edge24" class="edge">
<title>packages/runtime/src/runtime&#45;&gt;packages/runtime/src/boot</title>
<path fill="none" stroke="#000000" stroke-width="2" stroke-opacity="0.200000" d="M215.8,-79.94C219.46,-79.7 231.84,-78.56 240.75,-74 244.96,-71.85 244.64,-69.34 248.75,-67 251.42,-65.48 254.27,-64.1 257.2,-62.85"/>
<polygon fill="#000000" fill-opacity="0.200000" stroke="#000000" stroke-width="2" stroke-opacity="0.200000" points="257.83,-64.86 262.69,-60.75 256.33,-60.93 257.83,-64.86"/>
</g>
<!-- packages/runtime/src/runtime/internal -->
<g id="node21" class="node">
<title>packages/runtime/src/runtime/internal</title>
<g id="a_node21"><a xlink:href="packages/runtime/src/runtime/internal" xlink:title="internal">
<polygon fill="#ffffcc" stroke="black" points="319.62,-95.88 267.6,-95.88 265.62,-93.9 265.62,-78.12 317.65,-78.12 319.62,-80.1 319.62,-95.88"/>
<polyline fill="none" stroke="black" points="317.65,-93.9 265.62,-93.9"/>
<polyline fill="none" stroke="black" points="317.65,-93.9 317.65,-78.12"/>
<polyline fill="none" stroke="black" points="317.65,-93.9 319.62,-95.88"/>
<text xml:space="preserve" text-anchor="start" x="277.25" y="-84.38" font-family="Helvetica,sans-Serif" font-size="9.00">internal</text>
</a>
</g>
</g>
<!-- packages/runtime/src/runtime&#45;&gt;packages/runtime/src/runtime/internal -->
<g id="edge22" class="edge">
<title>packages/runtime/src/runtime&#45;&gt;packages/runtime/src/runtime/internal</title>
<path fill="none" stroke="#000000" stroke-width="2" stroke-opacity="0.200000" d="M215.61,-79.02C219.84,-76.95 238.85,-77.54 256.81,-79.35"/>
<polygon fill="#000000" fill-opacity="0.200000" stroke="#000000" stroke-width="2" stroke-opacity="0.200000" points="256.26,-81.4 262.46,-79.99 256.73,-77.23 256.26,-81.4"/>
</g>
<!-- packages/runtime/src/__tests__ -->
<g id="node18" class="node">
<title>packages/runtime/src/__tests__</title>
<g id="a_node18"><a xlink:href="packages/runtime/src/__tests__" xlink:title="__tests__">
<polygon fill="#ffffcc" stroke="black" points="87.75,-75.88 33.97,-75.88 32,-73.9 32,-58.12 85.78,-58.12 87.75,-60.1 87.75,-75.88"/>
<polyline fill="none" stroke="black" points="85.78,-73.9 32,-73.9"/>
<polyline fill="none" stroke="black" points="85.78,-73.9 85.78,-58.12"/>
<polyline fill="none" stroke="black" points="85.78,-73.9 87.75,-75.88"/>
<text xml:space="preserve" text-anchor="start" x="40" y="-64.38" font-family="Helvetica,sans-Serif" font-size="9.00">__tests__</text>
</a>
</g>
</g>
<!-- packages/runtime/src/__tests__&#45;&gt;packages/substrate/src/kernel -->
<g id="edge17" class="edge">
<title>packages/runtime/src/__tests__&#45;&gt;packages/substrate/src/kernel</title>
<path fill="none" stroke="#000000" stroke-width="2" stroke-opacity="0.200000" d="M83.39,-76.37C84.96,-77.47 86.43,-78.68 87.75,-80 205.05,-198.01 108.05,-329.17 248.75,-418 266.58,-429.26 326.01,-429.59 343.62,-418 364.12,-404.51 372.31,-375.78 375.55,-356.94"/>
<polygon fill="#000000" fill-opacity="0.200000" stroke="#000000" stroke-width="2" stroke-opacity="0.200000" points="377.61,-357.35 376.4,-351.12 373.46,-356.75 377.61,-357.35"/>
</g>
<!-- packages/runtime/src/__tests__&#45;&gt;packages/substrate/src/descriptors -->
<g id="edge18" class="edge">
<title>packages/runtime/src/__tests__&#45;&gt;packages/substrate/src/descriptors</title>
<path fill="none" stroke="#000000" stroke-width="2" stroke-opacity="0.200000" d="M68.04,-57.91C75.3,-49.41 87.35,-37.13 100.75,-31 146.36,-10.12 162.58,-17 212.75,-17 212.75,-17 212.75,-17 379.62,-17 418.61,-17 437.45,-29.99 483.38,-159 492.59,-184.9 480.8,-256.33 497.76,-290.4"/>
<polygon fill="#000000" fill-opacity="0.200000" stroke="#000000" stroke-width="2" stroke-opacity="0.200000" points="495.84,-291.29 500.81,-295.26 499.4,-289.06 495.84,-291.29"/>
</g>
<!-- packages/runtime/src/__tests__&#45;&gt;packages/runtime/src -->
<g id="edge16" class="edge">
<title>packages/runtime/src/__tests__&#45;&gt;packages/runtime/src</title>
<path fill="none" stroke="#000000" stroke-width="2" stroke-opacity="0.200000" d="M88.05,-71.54C98.28,-73.25 109.28,-75.08 116.93,-76.36"/>
<polygon fill="#000000" fill-opacity="0.200000" stroke="#000000" stroke-width="2" stroke-opacity="0.200000" points="116.34,-78.39 122.61,-77.31 117.04,-74.25 116.34,-78.39"/>
</g>
<!-- packages/runtime/src/__tests__&#45;&gt;packages/runtime/src/boot -->
<g id="edge19" class="edge">
<title>packages/runtime/src/__tests__&#45;&gt;packages/runtime/src/boot</title>
<path fill="none" stroke="#000000" stroke-width="2" stroke-opacity="0.200000" d="M87.8,-65.37C129.59,-62.83 210.09,-57.95 256.44,-55.13"/>
<polygon fill="#000000" fill-opacity="0.200000" stroke="#000000" stroke-width="2" stroke-opacity="0.200000" points="256.35,-57.24 262.21,-54.78 256.09,-53.05 256.35,-57.24"/>
</g>
<!-- packages/runtime/src/__tests__&#45;&gt;packages/substrate/src -->
<g id="edge20" class="edge">
<title>packages/runtime/src/__tests__&#45;&gt;packages/substrate/src</title>
<path fill="none" stroke="#000000" stroke-width="2" stroke-opacity="0.200000" d="M84.92,-57.64C114.52,-46.97 166.55,-31 212.75,-31 212.75,-31 212.75,-31 293.62,-31 316.06,-31 325.27,-25.1 343.62,-38 413.24,-86.93 440.91,-195.86 448.02,-229.74"/>
<polygon fill="#000000" fill-opacity="0.200000" stroke="#000000" stroke-width="2" stroke-opacity="0.200000" points="445.92,-229.92 449.13,-235.4 450.04,-229.11 445.92,-229.92"/>
</g>
<!-- packages/runtime/src/__tests__&#45;&gt;packages/runtime/src/runtime/internal -->
<g id="edge21" class="edge">
<title>packages/runtime/src/__tests__&#45;&gt;packages/runtime/src/runtime/internal</title>
<path fill="none" stroke="#000000" stroke-width="2" stroke-opacity="0.200000" d="M79.9,-76.17C89.87,-80.96 100.14,-85.86 100.75,-86 153.87,-98.66 217.69,-95.44 256.43,-91.53"/>
<polygon fill="#000000" fill-opacity="0.200000" stroke="#000000" stroke-width="2" stroke-opacity="0.200000" points="256.49,-93.64 262.23,-90.91 256.04,-89.46 256.49,-93.64"/>
</g>
<!-- packages/substrate/src&#45;&gt;packages/substrate/src/descriptors -->
<g id="edge30" class="edge">
<title>packages/substrate/src&#45;&gt;packages/substrate/src/descriptors</title>
<path fill="none" stroke="#000000" stroke-width="2" stroke-opacity="0.200000" d="M453.12,-240.63C457.52,-243.17 473.82,-253.02 483.38,-265 491.68,-275.41 486.73,-282.82 496.38,-292 497.1,-292.69 497.87,-293.35 498.66,-293.99"/>
<polygon fill="#000000" fill-opacity="0.200000" stroke="#000000" stroke-width="2" stroke-opacity="0.200000" points="502.25,-298.95 498.46,-293.85 504.6,-295.47 502.25,-298.95"/>
</g>
<!-- packages/substrate/src&#45;&gt;packages/substrate/src/schema -->
<g id="edge28" class="edge">
<title>packages/substrate/src&#45;&gt;packages/substrate/src/schema</title>
<path fill="none" stroke="#000000" stroke-width="2" stroke-opacity="0.200000" d="M453.25,-240.22C465.48,-242.42 563.47,-260.05 569.38,-262 574.11,-263.57 579.01,-265.59 583.67,-267.74"/>
<polygon fill="#000000" fill-opacity="0.200000" stroke="#000000" stroke-width="2" stroke-opacity="0.200000" points="582.67,-269.59 588.98,-270.33 584.51,-265.81 582.67,-269.59"/>
</g>
<!-- packages/substrate/src/choreography -->
<g id="node24" class="node">
<title>packages/substrate/src/choreography</title>
<g id="a_node24"><a xlink:href="packages/substrate/src/choreography" xlink:title="choreography">
<polygon fill="#ffffcc" stroke="black" points="569.38,-241.88 498.35,-241.88 496.38,-239.9 496.38,-224.12 567.4,-224.12 569.38,-226.1 569.38,-241.88"/>
<polyline fill="none" stroke="black" points="567.4,-239.9 496.38,-239.9"/>
<polyline fill="none" stroke="black" points="567.4,-239.9 567.4,-224.12"/>
<polyline fill="none" stroke="black" points="567.4,-239.9 569.38,-241.88"/>
<text xml:space="preserve" text-anchor="start" x="504.38" y="-230.38" font-family="Helvetica,sans-Serif" font-size="9.00">choreography</text>
</a>
</g>
</g>
<!-- packages/substrate/src&#45;&gt;packages/substrate/src/choreography -->
<g id="edge29" class="edge">
<title>packages/substrate/src&#45;&gt;packages/substrate/src/choreography</title>
<path fill="none" stroke="#000000" stroke-width="2" stroke-opacity="0.200000" d="M452.9,-238.87C456.77,-236.36 472.58,-233.83 489.05,-232.26"/>
<polygon fill="#000000" fill-opacity="0.200000" stroke="#000000" stroke-width="2" stroke-opacity="0.200000" points="495.3,-233.83 489.14,-232.26 494.94,-229.65 495.3,-233.83"/>
</g>
<!-- packages/substrate/src&#45;&gt;packages/substrate/src/facade -->
<g id="edge31" class="edge">
<title>packages/substrate/src&#45;&gt;packages/substrate/src/facade</title>
<path fill="none" stroke="#000000" stroke-width="2" stroke-opacity="0.200000" d="M452.46,-238.59C455.34,-234.89 471.28,-239.24 483.38,-245 489.5,-247.92 490.46,-249.69 496.38,-253 502.98,-256.7 510.43,-260.52 516.79,-264.16"/>
<polygon fill="#000000" fill-opacity="0.200000" stroke="#000000" stroke-width="2" stroke-opacity="0.200000" points="520.78,-269.01 516.72,-264.12 522.95,-265.41 520.78,-269.01"/>
</g>
<!-- packages/runtime/src/runtime/internal&#45;&gt;packages/substrate/src/kernel -->
<g id="edge27" class="edge">
<title>packages/runtime/src/runtime/internal&#45;&gt;packages/substrate/src/kernel</title>
<path fill="none" stroke="#000000" stroke-width="2" stroke-opacity="0.200000" d="M300.99,-96.24C312.01,-110.54 332.65,-139.28 343.62,-167 364.84,-220.61 373.28,-289.04 376.23,-321.02"/>
<polygon fill="#000000" fill-opacity="0.200000" stroke="#000000" stroke-width="2" stroke-opacity="0.200000" points="374.11,-320.9 376.72,-326.7 378.29,-320.54 374.11,-320.9"/>
</g>
<!-- packages/runtime/src/runtime/internal&#45;&gt;packages/substrate/src/descriptors -->
<g id="edge26" class="edge">
<title>packages/runtime/src/runtime/internal&#45;&gt;packages/substrate/src/descriptors</title>
<path fill="none" stroke="#000000" stroke-width="2" stroke-opacity="0.200000" d="M312.17,-96.32C321.81,-101.43 333.63,-108.11 343.62,-115 410.31,-160.99 441.48,-162.67 483.38,-232 496.22,-253.25 482.03,-268.12 497.52,-290.86"/>
<polygon fill="#000000" fill-opacity="0.200000" stroke="#000000" stroke-width="2" stroke-opacity="0.200000" points="495.78,-292.06 501.15,-295.46 499.08,-289.45 495.78,-292.06"/>
</g>
<!-- packages/runtime/src/runtime/internal&#45;&gt;packages/runtime/src/runtime -->
<g id="edge25" class="edge">
<title>packages/runtime/src/runtime/internal&#45;&gt;packages/runtime/src/runtime</title>
<path fill="none" stroke="#000000" stroke-width="2" stroke-opacity="0.200000" d="M265.46,-88.91C251.1,-88.11 234.17,-86.15 223.96,-83.89"/>
<polygon fill="#000000" fill-opacity="0.200000" stroke="#000000" stroke-width="2" stroke-opacity="0.200000" points="224.84,-81.97 218.49,-82.08 223.53,-85.96 224.84,-81.97"/>
</g>
<!-- packages/substrate -->
<!-- packages/substrate/src/choreography&#45;&gt;packages/substrate/src -->
<g id="edge40" class="edge">
<title>packages/substrate/src/choreography&#45;&gt;packages/substrate/src</title>
<path fill="none" stroke="#000000" stroke-width="2" stroke-opacity="0.200000" d="M496.11,-240.61C483.5,-241.85 470.32,-242.53 461.69,-242.21"/>
<polygon fill="#000000" fill-opacity="0.200000" stroke="#000000" stroke-width="2" stroke-opacity="0.200000" points="462.13,-240.15 455.89,-241.4 461.54,-244.31 462.13,-240.15"/>
</g>
<!-- packages/substrate/src/facade&#45;&gt;packages/substrate/src -->
<g id="edge42" class="edge">
<title>packages/substrate/src/facade&#45;&gt;packages/substrate/src</title>
<path fill="none" stroke="#000000" stroke-width="2" stroke-opacity="0.200000" d="M505.38,-269.83C502.33,-268.27 499.27,-266.62 496.38,-265 490.46,-261.69 489.5,-259.92 483.38,-257 475.44,-253.22 465.85,-250.05 459.37,-246.83"/>
<polygon fill="#000000" fill-opacity="0.200000" stroke="#000000" stroke-width="2" stroke-opacity="0.200000" points="460.94,-245.38 454.88,-243.47 458.42,-248.75 460.94,-245.38"/>
</g>
<!-- packages/substrate/src/__tests__ -->
<g id="node26" class="node">
<title>packages/substrate/src/__tests__</title>
<g id="a_node26"><a xlink:href="packages/substrate/src/__tests__" xlink:title="__tests__">
<polygon fill="#ffffcc" stroke="black" points="320.5,-270.88 266.72,-270.88 264.75,-268.9 264.75,-253.12 318.53,-253.12 320.5,-255.1 320.5,-270.88"/>
<polyline fill="none" stroke="black" points="318.53,-268.9 264.75,-268.9"/>
<polyline fill="none" stroke="black" points="318.53,-268.9 318.53,-253.12"/>
<polyline fill="none" stroke="black" points="318.53,-268.9 320.5,-270.88"/>
<text xml:space="preserve" text-anchor="start" x="272.75" y="-259.38" font-family="Helvetica,sans-Serif" font-size="9.00">__tests__</text>
</a>
</g>
</g>
<!-- packages/substrate/src/__tests__&#45;&gt;packages/substrate/src/kernel -->
<g id="edge39" class="edge">
<title>packages/substrate/src/__tests__&#45;&gt;packages/substrate/src/kernel</title>
<path fill="none" stroke="#000000" stroke-width="2" stroke-opacity="0.200000" d="M320.91,-263.52C329.24,-265.31 337.74,-268.71 343.62,-275 356.61,-288.87 342.05,-300.59 351.62,-317 353.06,-319.45 354.86,-321.76 356.86,-323.88"/>
<polygon fill="#000000" fill-opacity="0.200000" stroke="#000000" stroke-width="2" stroke-opacity="0.200000" points="355.13,-325.15 360.97,-327.66 357.97,-322.06 355.13,-325.15"/>
</g>
<!-- packages/substrate/src/__tests__&#45;&gt;packages/substrate/src/descriptors -->
<g id="edge36" class="edge">
<title>packages/substrate/src/__tests__&#45;&gt;packages/substrate/src/descriptors</title>
<path fill="none" stroke="#000000" stroke-width="2" stroke-opacity="0.200000" d="M320.64,-262.81C369.61,-264.46 469.32,-268.66 483.38,-276 491.5,-280.24 489.05,-286.5 496.38,-292 497.01,-292.47 497.66,-292.94 498.32,-293.39"/>
<polygon fill="#000000" fill-opacity="0.200000" stroke="#000000" stroke-width="2" stroke-opacity="0.200000" points="496.99,-295.04 503.23,-296.25 499.1,-291.41 496.99,-295.04"/>
</g>
<!-- packages/substrate/src/__tests__&#45;&gt;packages/substrate/src -->
<g id="edge34" class="edge">
<title>packages/substrate/src/__tests__&#45;&gt;packages/substrate/src</title>
<path fill="none" stroke="#000000" stroke-width="2" stroke-opacity="0.200000" d="M320.99,-256.37C330.64,-254.5 341.59,-252.51 351.62,-251 383.9,-246.14 422.42,-242.44 440.17,-240.85"/>
<polygon fill="#000000" fill-opacity="0.200000" stroke="#000000" stroke-width="2" stroke-opacity="0.200000" points="440.22,-242.95 446.01,-240.34 439.85,-238.77 440.22,-242.95"/>
</g>
<!-- packages/substrate/src/__tests__&#45;&gt;packages/substrate/src/schema -->
<g id="edge35" class="edge">
<title>packages/substrate/src/__tests__&#45;&gt;packages/substrate/src/schema</title>
<path fill="none" stroke="#000000" stroke-width="2" stroke-opacity="0.200000" d="M306.23,-252.63C317.49,-244.82 334.78,-234.15 351.62,-229 444.3,-200.68 484.72,-170.84 569.38,-218 586.68,-227.64 597.28,-248.49 602.98,-263.57"/>
<polygon fill="#000000" fill-opacity="0.200000" stroke="#000000" stroke-width="2" stroke-opacity="0.200000" points="600.98,-264.21 604.92,-269.2 604.95,-262.84 600.98,-264.21"/>
</g>
<!-- packages/substrate/src/__tests__&#45;&gt;packages/substrate/src/choreography -->
<g id="edge32" class="edge">
<title>packages/substrate/src/__tests__&#45;&gt;packages/substrate/src/choreography</title>
<path fill="none" stroke="#000000" stroke-width="2" stroke-opacity="0.200000" d="M315.87,-252.68C326.52,-248.55 339.56,-243.96 351.62,-241 396.78,-229.93 450.16,-229.01 487.06,-230.19"/>
<polygon fill="#000000" fill-opacity="0.200000" stroke="#000000" stroke-width="2" stroke-opacity="0.200000" points="486.97,-232.28 493.04,-230.41 487.13,-228.09 486.97,-232.28"/>
</g>
<!-- packages/substrate/src/__tests__&#45;&gt;packages/substrate/src/facade -->
<g id="edge37" class="edge">
<title>packages/substrate/src/__tests__&#45;&gt;packages/substrate/src/facade</title>
<path fill="none" stroke="#000000" stroke-width="2" stroke-opacity="0.200000" d="M320.79,-260.51C357.75,-258.91 425.87,-257.53 483.38,-265 487.78,-265.57 492.36,-266.39 496.87,-267.35"/>
<polygon fill="#000000" fill-opacity="0.200000" stroke="#000000" stroke-width="2" stroke-opacity="0.200000" points="496.13,-269.33 502.45,-268.62 497.07,-265.24 496.13,-269.33"/>
</g>
<!-- packages/substrate/src/__tests__&#45;&gt;packages/substrate/src/event&#45;plane -->
<g id="edge33" class="edge">
<title>packages/substrate/src/__tests__&#45;&gt;packages/substrate/src/event&#45;plane</title>
<path fill="none" stroke="#000000" stroke-width="2" stroke-opacity="0.200000" d="M320.76,-267.18C330.5,-269.03 341.55,-271.12 351.62,-273 370.84,-276.58 392.18,-280.49 410.06,-283.75"/>
<polygon fill="#000000" fill-opacity="0.200000" stroke="#000000" stroke-width="2" stroke-opacity="0.200000" points="409.28,-285.74 415.56,-284.75 410.03,-281.61 409.28,-285.74"/>
</g>
<!-- packages/substrate/src/__tests__&#45;&gt;packages/substrate/src/projection -->
<g id="edge38" class="edge">
<title>packages/substrate/src/__tests__&#45;&gt;packages/substrate/src/projection</title>
<path fill="none" stroke="#000000" stroke-width="2" stroke-opacity="0.200000" d="M320.95,-266.68C328.56,-268.62 336.65,-271.31 343.62,-275 347.8,-277.21 347.59,-279.54 351.62,-282 371.07,-293.87 394.76,-303.39 414.02,-310.06"/>
<polygon fill="#000000" fill-opacity="0.200000" stroke="#000000" stroke-width="2" stroke-opacity="0.200000" points="413.3,-312.03 419.66,-311.95 414.64,-308.05 413.3,-312.03"/>
</g>
</g>
</svg>
