<?xml version="1.0" encoding="UTF-8" standalone="no"?>
<!DOCTYPE svg PUBLIC "-//W3C//DTD SVG 1.1//EN"
 "http://www.w3.org/Graphics/SVG/1.1/DTD/svg11.dtd">
<!-- Generated by graphviz version 14.1.5 (20260411.2331)
 -->
<!-- Title: dependency&#45;cruiser output Pages: 1 -->
<svg width="530pt" height="692pt"
 viewBox="0.00 0.00 530.00 692.00" xmlns="http://www.w3.org/2000/svg" xmlns:xlink="http://www.w3.org/1999/xlink">
<g id="graph0" class="graph" transform="scale(1 1) rotate(0) translate(4 688)">
<title>dependency&#45;cruiser output</title>
<polygon fill="white" stroke="none" points="-4,4 -4,-688 526.38,-688 526.38,4 -4,4"/>
<g id="clust1" class="cluster">
<title>cluster_apps</title>
<path fill="#ffffff" stroke="black" stroke-width="2" d="M45.2,-8C45.2,-8 170.38,-8 170.38,-8 176.38,-8 182.38,-14 182.38,-20 182.38,-20 182.38,-140 182.38,-140 182.38,-146 176.38,-152 170.38,-152 170.38,-152 45.2,-152 45.2,-152 39.2,-152 33.2,-146 33.2,-140 33.2,-140 33.2,-20 33.2,-20 33.2,-14 39.2,-8 45.2,-8"/>
<text xml:space="preserve" text-anchor="middle" x="107.79" y="-139.45" font-family="Helvetica,sans-Serif" font-weight="bold" font-size="9.00">apps</text>
</g>
<g id="clust2" class="cluster">
<title>cluster_apps/lab</title>
<path fill="#ffffff" stroke="black" stroke-width="2" d="M53.2,-16C53.2,-16 162.38,-16 162.38,-16 168.38,-16 174.38,-22 174.38,-28 174.38,-28 174.38,-102 174.38,-102 174.38,-108 168.38,-114 162.38,-114 162.38,-114 53.2,-114 53.2,-114 47.2,-114 41.2,-108 41.2,-102 41.2,-102 41.2,-28 41.2,-28 41.2,-22 47.2,-16 53.2,-16"/>
<text xml:space="preserve" text-anchor="middle" x="107.79" y="-101.45" font-family="Helvetica,sans-Serif" font-weight="bold" font-size="9.00">lab</text>
</g>
<g id="clust3" class="cluster">
<title>cluster_apps/lab/src</title>
<path fill="#ffffff" stroke="black" stroke-width="2" d="M61.2,-24C61.2,-24 154.38,-24 154.38,-24 160.38,-24 166.38,-30 166.38,-36 166.38,-36 166.38,-64 166.38,-64 166.38,-70 160.38,-76 154.38,-76 154.38,-76 61.2,-76 61.2,-76 55.2,-76 49.2,-70 49.2,-64 49.2,-64 49.2,-36 49.2,-36 49.2,-30 55.2,-24 61.2,-24"/>
<text xml:space="preserve" text-anchor="middle" x="107.79" y="-63.45" font-family="Helvetica,sans-Serif" font-weight="bold" font-size="9.00">src</text>
</g>
<g id="clust4" class="cluster">
<title>cluster_packages</title>
<path fill="#ffffff" stroke="black" stroke-width="2" d="M20,-160C20,-160 502.38,-160 502.38,-160 508.38,-160 514.38,-166 514.38,-172 514.38,-172 514.38,-664 514.38,-664 514.38,-670 508.38,-676 502.38,-676 502.38,-676 20,-676 20,-676 14,-676 8,-670 8,-664 8,-664 8,-172 8,-172 8,-166 14,-160 20,-160"/>
<text xml:space="preserve" text-anchor="middle" x="261.19" y="-663.45" font-family="Helvetica,sans-Serif" font-weight="bold" font-size="9.00">packages</text>
</g>
<g id="clust5" class="cluster">
<title>cluster_packages/client</title>
<path fill="#ffffff" stroke="black" stroke-width="2" d="M53.2,-168C53.2,-168 248.38,-168 248.38,-168 254.38,-168 260.38,-174 260.38,-180 260.38,-180 260.38,-254 260.38,-254 260.38,-260 254.38,-266 248.38,-266 248.38,-266 53.2,-266 53.2,-266 47.2,-266 41.2,-260 41.2,-254 41.2,-254 41.2,-180 41.2,-180 41.2,-174 47.2,-168 53.2,-168"/>
<text xml:space="preserve" text-anchor="middle" x="150.79" y="-253.45" font-family="Helvetica,sans-Serif" font-weight="bold" font-size="9.00">client</text>
</g>
<g id="clust6" class="cluster">
<title>cluster_packages/client/src</title>
<path fill="#ffffff" stroke="black" stroke-width="2" d="M61.2,-176C61.2,-176 240.38,-176 240.38,-176 246.38,-176 252.38,-182 252.38,-188 252.38,-188 252.38,-216 252.38,-216 252.38,-222 246.38,-228 240.38,-228 240.38,-228 61.2,-228 61.2,-228 55.2,-228 49.2,-222 49.2,-216 49.2,-216 49.2,-188 49.2,-188 49.2,-182 55.2,-176 61.2,-176"/>
<text xml:space="preserve" text-anchor="middle" x="150.79" y="-215.45" font-family="Helvetica,sans-Serif" font-weight="bold" font-size="9.00">src</text>
</g>
<g id="clust7" class="cluster">
<title>cluster_packages/runtime</title>
<path fill="#ffffff" stroke="black" stroke-width="2" d="M53.2,-274C53.2,-274 256.38,-274 256.38,-274 262.38,-274 268.38,-280 268.38,-286 268.38,-286 268.38,-420 268.38,-420 268.38,-426 262.38,-432 256.38,-432 256.38,-432 53.2,-432 53.2,-432 47.2,-432 41.2,-426 41.2,-420 41.2,-420 41.2,-286 41.2,-286 41.2,-280 47.2,-274 53.2,-274"/>
<text xml:space="preserve" text-anchor="middle" x="154.79" y="-419.45" font-family="Helvetica,sans-Serif" font-weight="bold" font-size="9.00">runtime</text>
</g>
<g id="clust8" class="cluster">
<title>cluster_packages/runtime/src</title>
<path fill="#ffffff" stroke="black" stroke-width="2" d="M61.2,-282C61.2,-282 248.38,-282 248.38,-282 254.38,-282 260.38,-288 260.38,-294 260.38,-294 260.38,-382 260.38,-382 260.38,-388 254.38,-394 248.38,-394 248.38,-394 61.2,-394 61.2,-394 55.2,-394 49.2,-388 49.2,-382 49.2,-382 49.2,-294 49.2,-294 49.2,-288 55.2,-282 61.2,-282"/>
<text xml:space="preserve" text-anchor="middle" x="154.79" y="-381.45" font-family="Helvetica,sans-Serif" font-weight="bold" font-size="9.00">src</text>
</g>
<g id="clust9" class="cluster">
<title>cluster_packages/runtime/src/runtime</title>
<path fill="#ffffff" stroke="black" stroke-width="2" d="M133.57,-290C133.57,-290 240.38,-290 240.38,-290 246.38,-290 252.38,-296 252.38,-302 252.38,-302 252.38,-330 252.38,-330 252.38,-336 246.38,-342 240.38,-342 240.38,-342 133.57,-342 133.57,-342 127.57,-342 121.57,-336 121.57,-330 121.57,-330 121.57,-302 121.57,-302 121.57,-296 127.57,-290 133.57,-290"/>
<text xml:space="preserve" text-anchor="middle" x="186.98" y="-329.45" font-family="Helvetica,sans-Serif" font-weight="bold" font-size="9.00">runtime</text>
</g>
<g id="clust10" class="cluster">
<title>cluster_packages/substrate</title>
<path fill="#ffffff" stroke="black" stroke-width="2" d="M28,-440C28,-440 494.38,-440 494.38,-440 500.38,-440 506.38,-446 506.38,-452 506.38,-452 506.38,-626 506.38,-626 506.38,-632 500.38,-638 494.38,-638 494.38,-638 28,-638 28,-638 22,-638 16,-632 16,-626 16,-626 16,-452 16,-452 16,-446 22,-440 28,-440"/>
<text xml:space="preserve" text-anchor="middle" x="261.19" y="-625.45" font-family="Helvetica,sans-Serif" font-weight="bold" font-size="9.00">substrate</text>
</g>
<g id="clust11" class="cluster">
<title>cluster_packages/substrate/src</title>
<path fill="#ffffff" stroke="black" stroke-width="2" d="M36,-448C36,-448 486.38,-448 486.38,-448 492.38,-448 498.38,-454 498.38,-460 498.38,-460 498.38,-588 498.38,-588 498.38,-594 492.38,-600 486.38,-600 486.38,-600 36,-600 36,-600 30,-600 24,-594 24,-588 24,-588 24,-460 24,-460 24,-454 30,-448 36,-448"/>
<text xml:space="preserve" text-anchor="middle" x="261.19" y="-587.45" font-family="Helvetica,sans-Serif" font-weight="bold" font-size="9.00">src</text>
</g>
<!-- apps -->
<!-- apps/lab -->
<!-- apps/lab/src -->
<!-- apps/lab/src/lab -->
<g id="node4" class="node">
<title>apps/lab/src/lab</title>
<g id="a_node4"><a xlink:href="apps/lab/src/lab" xlink:title="lab">
<polygon fill="#ffffcc" stroke="black" points="158.38,-49.88 106.35,-49.88 104.38,-47.9 104.38,-32.12 156.4,-32.12 158.38,-34.1 158.38,-49.88"/>
<polyline fill="none" stroke="black" points="156.4,-47.9 104.38,-47.9"/>
<polyline fill="none" stroke="black" points="156.4,-47.9 156.4,-32.12"/>
<polyline fill="none" stroke="black" points="156.4,-47.9 158.38,-49.88"/>
<text xml:space="preserve" text-anchor="start" x="125" y="-38.38" font-family="Helvetica,sans-Serif" font-size="9.00">lab</text>
</a>
</g>
</g>
<!-- apps/lab/src&#45;&gt;apps/lab/src/lab -->
<g id="edge1" class="edge">
<title>apps/lab/src&#45;&gt;apps/lab/src/lab</title>
<path fill="none" stroke="#000000" stroke-width="2" stroke-opacity="0.200000" d="M61.22,-41C65.52,-41 80.52,-41 95.46,-41"/>
<polygon fill="#000000" fill-opacity="0.200000" stroke="#000000" stroke-width="2" stroke-opacity="0.200000" points="95.14,-43.1 101.14,-41 95.14,-38.9 95.14,-43.1"/>
</g>
<!-- packages -->
<!-- packages/client -->
<!-- packages/client/src -->
<!-- packages/client/src/firegrid -->
<g id="node8" class="node">
<title>packages/client/src/firegrid</title>
<g id="a_node8"><a xlink:href="packages/client/src/firegrid" xlink:title="firegrid">
<polygon fill="#ffffcc" stroke="black" points="158.38,-201.88 106.35,-201.88 104.38,-199.9 104.38,-184.12 156.4,-184.12 158.38,-186.1 158.38,-201.88"/>
<polyline fill="none" stroke="black" points="156.4,-199.9 104.38,-199.9"/>
<polyline fill="none" stroke="black" points="156.4,-199.9 156.4,-184.12"/>
<polyline fill="none" stroke="black" points="156.4,-199.9 158.38,-201.88"/>
<text xml:space="preserve" text-anchor="start" x="117.12" y="-190.38" font-family="Helvetica,sans-Serif" font-size="9.00">firegrid</text>
</a>
</g>
</g>
<!-- packages/client/src&#45;&gt;packages/client/src/firegrid -->
<g id="edge2" class="edge">
<title>packages/client/src&#45;&gt;packages/client/src/firegrid</title>
<path fill="none" stroke="#000000" stroke-width="2" stroke-opacity="0.200000" d="M61.22,-193C65.68,-193 81.66,-193 97.13,-193"/>
<polygon fill="#000000" fill-opacity="0.200000" stroke="#000000" stroke-width="2" stroke-opacity="0.200000" points="103.16,-195.1 97.16,-193 103.16,-190.9 103.16,-195.1"/>
</g>
<!-- packages/client/src/client -->
<g id="node9" class="node">
<title>packages/client/src/client</title>
<g id="a_node9"><a xlink:href="packages/client/src/client" xlink:title="client">
<polygon fill="#ffffcc" stroke="black" points="244.38,-201.88 192.35,-201.88 190.38,-199.9 190.38,-184.12 242.4,-184.12 244.38,-186.1 244.38,-201.88"/>
<polyline fill="none" stroke="black" points="242.4,-199.9 190.38,-199.9"/>
<polyline fill="none" stroke="black" points="242.4,-199.9 242.4,-184.12"/>
<polyline fill="none" stroke="black" points="242.4,-199.9 244.38,-201.88"/>
<text xml:space="preserve" text-anchor="start" x="206.5" y="-190.38" font-family="Helvetica,sans-Serif" font-size="9.00">client</text>
</a>
</g>
</g>
<!-- packages/client/src/firegrid&#45;&gt;packages/client/src/client -->
<g id="edge3" class="edge">
<title>packages/client/src/firegrid&#45;&gt;packages/client/src/client</title>
<path fill="none" stroke="#000000" stroke-width="2" stroke-opacity="0.200000" d="M158.49,-193C165.69,-193 173.62,-193 181.24,-193"/>
<polygon fill="#000000" fill-opacity="0.200000" stroke="#000000" stroke-width="2" stroke-opacity="0.200000" points="180.96,-195.1 186.96,-193 180.96,-190.9 180.96,-195.1"/>
</g>
<!-- packages/runtime -->
<!-- packages/runtime/src -->
<!-- packages/runtime/src/runtime -->
<!-- packages/runtime/src&#45;&gt;packages/runtime/src/runtime -->
<g id="edge4" class="edge">
<title>packages/runtime/src&#45;&gt;packages/runtime/src/runtime</title>
<path fill="none" stroke="#000000" stroke-width="2" stroke-opacity="0.200000" d="M61.22,-307C68.42,-307 105.59,-307 122.27,-307"/>
<polygon fill="#000000" fill-opacity="0.200000" stroke="#000000" stroke-width="2" stroke-opacity="0.200000" points="128.33,-309.1 122.33,-307 128.33,-304.9 128.33,-309.1"/>
</g>
<!-- packages/runtime/src/boot -->
<g id="node13" class="node">
<title>packages/runtime/src/boot</title>
<g id="a_node13"><a xlink:href="packages/runtime/src/boot" xlink:title="boot">
<polygon fill="#ffffcc" stroke="black" points="244.38,-367.88 192.35,-367.88 190.38,-365.9 190.38,-350.12 242.4,-350.12 244.38,-352.1 244.38,-367.88"/>
<polyline fill="none" stroke="black" points="242.4,-365.9 190.38,-365.9"/>
<polyline fill="none" stroke="black" points="242.4,-365.9 242.4,-350.12"/>
<polyline fill="none" stroke="black" points="242.4,-365.9 244.38,-367.88"/>
<text xml:space="preserve" text-anchor="start" x="208.38" y="-356.38" font-family="Helvetica,sans-Serif" font-size="9.00">boot</text>
</a>
</g>
</g>
<!-- packages/runtime/src/runtime&#45;&gt;packages/runtime/src/boot -->
<g id="edge6" class="edge">
<title>packages/runtime/src/runtime&#45;&gt;packages/runtime/src/boot</title>
<path fill="none" stroke="#000000" stroke-width="2" stroke-opacity="0.200000" d="M133.18,-307.56C138.24,-311.11 166.38,-330.71 190.38,-345 190.54,-345.1 190.71,-345.2 190.87,-345.3"/>
<polygon fill="#000000" fill-opacity="0.200000" stroke="#000000" stroke-width="2" stroke-opacity="0.200000" points="189.75,-347.07 196.01,-348.22 191.83,-343.42 189.75,-347.07"/>
</g>
<!-- packages/runtime/src/runtime/internal -->
<g id="node14" class="node">
<title>packages/runtime/src/runtime/internal</title>
<g id="a_node14"><a xlink:href="packages/runtime/src/runtime/internal" xlink:title="internal">
<polygon fill="#ffffcc" stroke="black" points="244.38,-315.88 192.35,-315.88 190.38,-313.9 190.38,-298.12 242.4,-298.12 244.38,-300.1 244.38,-315.88"/>
<polyline fill="none" stroke="black" points="242.4,-313.9 190.38,-313.9"/>
<polyline fill="none" stroke="black" points="242.4,-313.9 242.4,-298.12"/>
<polyline fill="none" stroke="black" points="242.4,-313.9 244.38,-315.88"/>
<text xml:space="preserve" text-anchor="start" x="202" y="-304.38" font-family="Helvetica,sans-Serif" font-size="9.00">internal</text>
</a>
</g>
</g>
<!-- packages/runtime/src/runtime&#45;&gt;packages/runtime/src/runtime/internal -->
<g id="edge5" class="edge">
<title>packages/runtime/src/runtime&#45;&gt;packages/runtime/src/runtime/internal</title>
<path fill="none" stroke="#000000" stroke-width="2" stroke-opacity="0.200000" d="M133.32,-305.95C138.15,-303.37 160.73,-302.24 181.12,-302.55"/>
<polygon fill="#000000" fill-opacity="0.200000" stroke="#000000" stroke-width="2" stroke-opacity="0.200000" points="180.89,-304.65 186.94,-302.71 181,-300.45 180.89,-304.65"/>
</g>
<!-- packages/runtime/src/runtime/internal&#45;&gt;packages/runtime/src/runtime -->
<g id="edge7" class="edge">
<title>packages/runtime/src/runtime/internal&#45;&gt;packages/runtime/src/runtime</title>
<path fill="none" stroke="#000000" stroke-width="2" stroke-opacity="0.200000" d="M189.97,-311.21C173.69,-311.84 153.76,-311.44 142.13,-310.01"/>
<polygon fill="#000000" fill-opacity="0.200000" stroke="#000000" stroke-width="2" stroke-opacity="0.200000" points="142.59,-307.96 136.27,-308.71 141.68,-312.06 142.59,-307.96"/>
</g>
<!-- packages/substrate -->
<!-- packages/substrate/src -->
<!-- packages/substrate/src/schema -->
<g id="node17" class="node">
<title>packages/substrate/src/schema</title>
<g id="a_node17"><a xlink:href="packages/substrate/src/schema" xlink:title="schema">
<polygon fill="#ffffcc" stroke="black" points="490.38,-500.88 438.35,-500.88 436.38,-498.9 436.38,-483.12 488.4,-483.12 490.38,-485.1 490.38,-500.88"/>
<polyline fill="none" stroke="black" points="488.4,-498.9 436.38,-498.9"/>
<polyline fill="none" stroke="black" points="488.4,-498.9 488.4,-483.12"/>
<polyline fill="none" stroke="black" points="488.4,-498.9 490.38,-500.88"/>
<text xml:space="preserve" text-anchor="start" x="447.25" y="-489.38" font-family="Helvetica,sans-Serif" font-size="9.00">schema</text>
</a>
</g>
</g>
<!-- packages/substrate/src&#45;&gt;packages/substrate/src/schema -->
<g id="edge8" class="edge">
<title>packages/substrate/src&#45;&gt;packages/substrate/src/schema</title>
<path fill="none" stroke="#000000" stroke-width="2" stroke-opacity="0.200000" d="M219.64,-521.16C225.4,-521.92 249.61,-525.36 268.38,-532 272.12,-533.33 272.51,-535.09 276.38,-536 307.95,-543.45 317.49,-541.99 349.38,-536 380.57,-530.14 414.2,-515.93 436.59,-505.23"/>
<polygon fill="#000000" fill-opacity="0.200000" stroke="#000000" stroke-width="2" stroke-opacity="0.200000" points="437.4,-507.17 441.87,-502.65 435.56,-503.39 437.4,-507.17"/>
</g>
<!-- packages/substrate/src/descriptors -->
<g id="node18" class="node">
<title>packages/substrate/src/descriptors</title>
<g id="a_node18"><a xlink:href="packages/substrate/src/descriptors" xlink:title="descriptors">
<polygon fill="#ffffcc" stroke="black" points="423.38,-500.88 364.35,-500.88 362.38,-498.9 362.38,-483.12 421.4,-483.12 423.38,-485.1 423.38,-500.88"/>
<polyline fill="none" stroke="black" points="421.4,-498.9 362.38,-498.9"/>
<polyline fill="none" stroke="black" points="421.4,-498.9 421.4,-483.12"/>
<polyline fill="none" stroke="black" points="421.4,-498.9 423.38,-500.88"/>
<text xml:space="preserve" text-anchor="start" x="370.38" y="-489.38" font-family="Helvetica,sans-Serif" font-size="9.00">descriptors</text>
</a>
</g>
</g>
<!-- packages/substrate/src&#45;&gt;packages/substrate/src/descriptors -->
<g id="edge9" class="edge">
<title>packages/substrate/src&#45;&gt;packages/substrate/src/descriptors</title>
<path fill="none" stroke="#000000" stroke-width="2" stroke-opacity="0.200000" d="M219.18,-520.75C224.29,-519.16 252.67,-510.48 276.38,-506 301.84,-501.19 330.8,-497.68 353.35,-495.38"/>
<polygon fill="#000000" fill-opacity="0.200000" stroke="#000000" stroke-width="2" stroke-opacity="0.200000" points="353.5,-497.48 359.26,-494.8 353.09,-493.3 353.5,-497.48"/>
</g>
<!-- packages/substrate/src/choreography -->
<g id="node19" class="node">
<title>packages/substrate/src/choreography</title>
<g id="a_node19"><a xlink:href="packages/substrate/src/choreography" xlink:title="choreography">
<polygon fill="#ffffcc" stroke="black" points="349.38,-529.88 278.35,-529.88 276.38,-527.9 276.38,-512.12 347.4,-512.12 349.38,-514.1 349.38,-529.88"/>
<polyline fill="none" stroke="black" points="347.4,-527.9 276.38,-527.9"/>
<polyline fill="none" stroke="black" points="347.4,-527.9 347.4,-512.12"/>
<polyline fill="none" stroke="black" points="347.4,-527.9 349.38,-529.88"/>
<text xml:space="preserve" text-anchor="start" x="284.38" y="-518.38" font-family="Helvetica,sans-Serif" font-size="9.00">choreography</text>
</a>
</g>
</g>
<!-- packages/substrate/src&#45;&gt;packages/substrate/src/choreography -->
<g id="edge10" class="edge">
<title>packages/substrate/src&#45;&gt;packages/substrate/src/choreography</title>
<path fill="none" stroke="#000000" stroke-width="2" stroke-opacity="0.200000" d="M218.97,-520.2C222.99,-517.58 246.59,-516.35 269,-516.51"/>
<polygon fill="#000000" fill-opacity="0.200000" stroke="#000000" stroke-width="2" stroke-opacity="0.200000" points="274.87,-518.69 268.9,-516.51 274.93,-514.49 274.87,-518.69"/>
</g>
<!-- packages/substrate/src/facade -->
<g id="node20" class="node">
<title>packages/substrate/src/facade</title>
<g id="a_node20"><a xlink:href="packages/substrate/src/facade" xlink:title="facade">
<polygon fill="#ffffcc" stroke="black" points="339.88,-573.88 287.85,-573.88 285.88,-571.9 285.88,-556.12 337.9,-556.12 339.88,-558.1 339.88,-573.88"/>
<polyline fill="none" stroke="black" points="337.9,-571.9 285.88,-571.9"/>
<polyline fill="none" stroke="black" points="337.9,-571.9 337.9,-556.12"/>
<polyline fill="none" stroke="black" points="337.9,-571.9 339.88,-573.88"/>
<text xml:space="preserve" text-anchor="start" x="299" y="-562.38" font-family="Helvetica,sans-Serif" font-size="9.00">facade</text>
</a>
</g>
</g>
<!-- packages/substrate/src&#45;&gt;packages/substrate/src/facade -->
<g id="edge11" class="edge">
<title>packages/substrate/src&#45;&gt;packages/substrate/src/facade</title>
<path fill="none" stroke="#000000" stroke-width="2" stroke-opacity="0.200000" d="M218.94,-519.66C223.27,-514.67 251.66,-513.33 268.38,-526 274.4,-530.56 270.98,-535.71 276.38,-541 281.16,-545.69 287.41,-549.41 293.33,-552.54"/>
<polygon fill="#000000" fill-opacity="0.200000" stroke="#000000" stroke-width="2" stroke-opacity="0.200000" points="297.69,-557.15 293.32,-552.54 299.61,-553.41 297.69,-557.15"/>
</g>
<!-- packages/substrate/src/descriptors&#45;&gt;packages/substrate/src/schema -->
<g id="edge14" class="edge">
<title>packages/substrate/src/descriptors&#45;&gt;packages/substrate/src/schema</title>
<path fill="none" stroke="#000000" stroke-width="2" stroke-opacity="0.200000" d="M423.72,-492C424.9,-492 426.08,-492 427.27,-492"/>
<polygon fill="#000000" fill-opacity="0.200000" stroke="#000000" stroke-width="2" stroke-opacity="0.200000" points="427.25,-494.1 433.25,-492 427.25,-489.9 427.25,-494.1"/>
</g>
<!-- packages/substrate/src/choreography&#45;&gt;packages/substrate/src -->
<g id="edge13" class="edge">
<title>packages/substrate/src/choreography&#45;&gt;packages/substrate/src</title>
<path fill="none" stroke="#000000" stroke-width="2" stroke-opacity="0.200000" d="M275.9,-525.39C258.5,-525.75 238.99,-525.23 227.75,-523.84"/>
<polygon fill="#000000" fill-opacity="0.200000" stroke="#000000" stroke-width="2" stroke-opacity="0.200000" points="228.24,-521.8 221.92,-522.49 227.29,-525.89 228.24,-521.8"/>
</g>
<!-- packages/substrate/src/choreography&#45;&gt;packages/substrate/src/descriptors -->
<g id="edge12" class="edge">
<title>packages/substrate/src/choreography&#45;&gt;packages/substrate/src/descriptors</title>
<path fill="none" stroke="#000000" stroke-width="2" stroke-opacity="0.200000" d="M338.98,-511.66C345.25,-509.34 352.06,-506.8 358.65,-504.35"/>
<polygon fill="#000000" fill-opacity="0.200000" stroke="#000000" stroke-width="2" stroke-opacity="0.200000" points="359.08,-506.43 363.98,-502.37 357.62,-502.5 359.08,-506.43"/>
</g>
<!-- packages/substrate/src/facade&#45;&gt;packages/substrate/src -->
<g id="edge17" class="edge">
<title>packages/substrate/src/facade&#45;&gt;packages/substrate/src</title>
<path fill="none" stroke="#000000" stroke-width="2" stroke-opacity="0.200000" d="M285.43,-559.89C282.16,-557.92 279.04,-555.61 276.38,-553 270.98,-547.71 274.4,-542.56 268.38,-538 256.16,-528.74 237.7,-526.96 226.96,-524.96"/>
<polygon fill="#000000" fill-opacity="0.200000" stroke="#000000" stroke-width="2" stroke-opacity="0.200000" points="227.95,-523.08 221.59,-523.04 226.54,-527.03 227.95,-523.08"/>
</g>
<!-- packages/substrate/src/event&#45;plane -->
<g id="node21" class="node">
<title>packages/substrate/src/event&#45;plane</title>
<g id="a_node21"><a xlink:href="packages/substrate/src/event-plane" xlink:title="event&#45;plane">
<polygon fill="#ffffcc" stroke="black" points="163.75,-507.88 100.97,-507.88 99,-505.9 99,-490.12 161.78,-490.12 163.75,-492.1 163.75,-507.88"/>
<polyline fill="none" stroke="black" points="161.78,-505.9 99,-505.9"/>
<polyline fill="none" stroke="black" points="161.78,-505.9 161.78,-490.12"/>
<polyline fill="none" stroke="black" points="161.78,-505.9 163.75,-507.88"/>
<text xml:space="preserve" text-anchor="start" x="107" y="-496.38" font-family="Helvetica,sans-Serif" font-size="9.00">event&#45;plane</text>
</a>
</g>
</g>
<!-- packages/substrate/src/event&#45;plane&#45;&gt;packages/substrate/src -->
<g id="edge16" class="edge">
<title>packages/substrate/src/event&#45;plane&#45;&gt;packages/substrate/src</title>
<path fill="none" stroke="#000000" stroke-width="2" stroke-opacity="0.200000" d="M164.13,-507.32C179.25,-511.28 196.26,-515.73 206.65,-518.45"/>
<polygon fill="#000000" fill-opacity="0.200000" stroke="#000000" stroke-width="2" stroke-opacity="0.200000" points="205.84,-520.41 212.18,-519.9 206.91,-516.35 205.84,-520.41"/>
</g>
<!-- packages/substrate/src/event&#45;plane&#45;&gt;packages/substrate/src/descriptors -->
<g id="edge15" class="edge">
<title>packages/substrate/src/event&#45;plane&#45;&gt;packages/substrate/src/descriptors</title>
<path fill="none" stroke="#000000" stroke-width="2" stroke-opacity="0.200000" d="M164.11,-497.38C193.28,-495.96 237.73,-493.97 276.38,-493 301.92,-492.36 330.66,-492.11 353.08,-492.02"/>
<polygon fill="#000000" fill-opacity="0.200000" stroke="#000000" stroke-width="2" stroke-opacity="0.200000" points="352.94,-494.12 358.93,-492 352.92,-489.92 352.94,-494.12"/>
</g>
<!-- packages/substrate/src/kernel -->
<g id="node22" class="node">
<title>packages/substrate/src/kernel</title>
<g id="a_node22"><a xlink:href="packages/substrate/src/kernel" xlink:title="kernel">
<polygon fill="#ffffcc" stroke="black" points="86,-518.88 33.97,-518.88 32,-516.9 32,-501.12 84.03,-501.12 86,-503.1 86,-518.88"/>
<polyline fill="none" stroke="black" points="84.03,-516.9 32,-516.9"/>
<polyline fill="none" stroke="black" points="84.03,-516.9 84.03,-501.12"/>
<polyline fill="none" stroke="black" points="84.03,-516.9 86,-518.88"/>
<text xml:space="preserve" text-anchor="start" x="46.25" y="-507.38" font-family="Helvetica,sans-Serif" font-size="9.00">kernel</text>
</a>
</g>
</g>
<!-- packages/substrate/src/kernel&#45;&gt;packages/substrate/src -->
<g id="edge21" class="edge">
<title>packages/substrate/src/kernel&#45;&gt;packages/substrate/src</title>
<path fill="none" stroke="#000000" stroke-width="2" stroke-opacity="0.200000" d="M86.42,-512.86C90.62,-513.28 94.93,-513.67 99,-514 139.89,-517.31 188.92,-519.74 208.1,-520.63"/>
<polygon fill="#000000" fill-opacity="0.200000" stroke="#000000" stroke-width="2" stroke-opacity="0.200000" points="214.12,-523 208.22,-520.63 214.31,-518.81 214.12,-523"/>
</g>
<!-- packages/substrate/src/kernel&#45;&gt;packages/substrate/src/schema -->
<g id="edge23" class="edge">
<title>packages/substrate/src/kernel&#45;&gt;packages/substrate/src/schema</title>
<path fill="none" stroke="#000000" stroke-width="2" stroke-opacity="0.200000" d="M65.28,-500.91C71.77,-490.68 83.83,-474.51 99,-467 145.92,-443.78 164.02,-457 216.38,-457 216.38,-457 216.38,-457 313.88,-457 363.35,-457 375.75,-463.62 423.38,-477 426.78,-477.96 430.3,-479.09 433.77,-480.31"/>
<polygon fill="#000000" fill-opacity="0.200000" stroke="#000000" stroke-width="2" stroke-opacity="0.200000" points="438.68,-484.33 433.77,-480.3 440.12,-480.39 438.68,-484.33"/>
</g>
<!-- packages/substrate/src/kernel&#45;&gt;packages/substrate/src/descriptors -->
<g id="edge18" class="edge">
<title>packages/substrate/src/kernel&#45;&gt;packages/substrate/src/descriptors</title>
<path fill="none" stroke="#000000" stroke-width="2" stroke-opacity="0.200000" d="M70.05,-500.86C77.45,-494.77 88.1,-487.3 99,-484 187.7,-457.14 298.5,-472.57 355.01,-483.69"/>
<polygon fill="#000000" fill-opacity="0.200000" stroke="#000000" stroke-width="2" stroke-opacity="0.200000" points="360.56,-486.96 355.09,-483.71 361.39,-482.84 360.56,-486.96"/>
</g>
<!-- packages/substrate/src/kernel&#45;&gt;packages/substrate/src/facade -->
<g id="edge20" class="edge">
<title>packages/substrate/src/kernel&#45;&gt;packages/substrate/src/facade</title>
<path fill="none" stroke="#000000" stroke-width="2" stroke-opacity="0.200000" d="M86.37,-517.71C90.58,-518.86 94.9,-520 99,-521 162.08,-536.39 236.52,-550.97 278.56,-558.87"/>
<polygon fill="#000000" fill-opacity="0.200000" stroke="#000000" stroke-width="2" stroke-opacity="0.200000" points="284.15,-562.06 278.64,-558.89 284.93,-557.93 284.15,-562.06"/>
</g>
<!-- packages/substrate/src/kernel&#45;&gt;packages/substrate/src/event&#45;plane -->
<g id="edge19" class="edge">
<title>packages/substrate/src/kernel&#45;&gt;packages/substrate/src/event&#45;plane</title>
<path fill="none" stroke="#000000" stroke-width="2" stroke-opacity="0.200000" d="M86.21,-505.9C87.98,-505.63 89.79,-505.34 91.62,-505.06"/>
<polygon fill="#000000" fill-opacity="0.200000" stroke="#000000" stroke-width="2" stroke-opacity="0.200000" points="98.01,-506.18 91.76,-505.04 97.36,-502.03 98.01,-506.18"/>
</g>
<!-- packages/substrate/src/projection -->
<g id="node23" class="node">
<title>packages/substrate/src/projection</title>
<g id="a_node23"><a xlink:href="packages/substrate/src/projection" xlink:title="projection">
<polygon fill="#ffffcc" stroke="black" points="159.62,-566.88 105.1,-566.88 103.12,-564.9 103.12,-549.12 157.65,-549.12 159.62,-551.1 159.62,-566.88"/>
<polyline fill="none" stroke="black" points="157.65,-564.9 103.12,-564.9"/>
<polyline fill="none" stroke="black" points="157.65,-564.9 157.65,-549.12"/>
<polyline fill="none" stroke="black" points="157.65,-564.9 159.62,-566.88"/>
<text xml:space="preserve" text-anchor="start" x="111.12" y="-555.38" font-family="Helvetica,sans-Serif" font-size="9.00">projection</text>
</a>
</g>
</g>
<!-- packages/substrate/src/kernel&#45;&gt;packages/substrate/src/projection -->
<g id="edge22" class="edge">
<title>packages/substrate/src/kernel&#45;&gt;packages/substrate/src/projection</title>
<path fill="none" stroke="#000000" stroke-width="2" stroke-opacity="0.200000" d="M80.71,-519.23C82.57,-520.39 84.37,-521.65 86,-523 93.33,-529.06 91.85,-533.73 99,-540 100.96,-541.71 103.1,-543.35 105.32,-544.88"/>
<polygon fill="#000000" fill-opacity="0.200000" stroke="#000000" stroke-width="2" stroke-opacity="0.200000" points="109.34,-549.91 105.4,-544.92 111.59,-546.37 109.34,-549.91"/>
</g>
</g>
</svg>
