<?xml version="1.0" encoding="UTF-8" standalone="no"?>
<!DOCTYPE svg PUBLIC "-//W3C//DTD SVG 1.1//EN"
 "http://www.w3.org/Graphics/SVG/1.1/DTD/svg11.dtd">
<!-- Generated by graphviz version 14.1.5 (20260411.2331)
 -->
<!-- Title: dependency&#45;cruiser output Pages: 1 -->
<svg width="767pt" height="802pt"
 viewBox="0.00 0.00 767.00 802.00" xmlns="http://www.w3.org/2000/svg" xmlns:xlink="http://www.w3.org/1999/xlink">
<g id="graph0" class="graph" transform="scale(1 1) rotate(0) translate(4 798)">
<title>dependency&#45;cruiser output</title>
<polygon fill="white" stroke="none" points="-4,4 -4,-798 762.98,-798 762.98,4 -4,4"/>
<g id="clust1" class="cluster">
<title>cluster_apps</title>
<path fill="#ffffff" stroke="black" stroke-width="2" d="M20,-626C20,-626 166.75,-626 166.75,-626 172.75,-626 178.75,-632 178.75,-638 178.75,-638 178.75,-774 178.75,-774 178.75,-780 172.75,-786 166.75,-786 166.75,-786 20,-786 20,-786 14,-786 8,-780 8,-774 8,-774 8,-638 8,-638 8,-632 14,-626 20,-626"/>
<text xml:space="preserve" text-anchor="middle" x="93.38" y="-773.45" font-family="Helvetica,sans-Serif" font-weight="bold" font-size="9.00">apps</text>
</g>
<g id="clust2" class="cluster">
<title>cluster_apps/lab</title>
<path fill="#ffffff" stroke="black" stroke-width="2" d="M28,-634C28,-634 158.75,-634 158.75,-634 164.75,-634 170.75,-640 170.75,-646 170.75,-646 170.75,-736 170.75,-736 170.75,-742 164.75,-748 158.75,-748 158.75,-748 28,-748 28,-748 22,-748 16,-742 16,-736 16,-736 16,-646 16,-646 16,-640 22,-634 28,-634"/>
<text xml:space="preserve" text-anchor="middle" x="93.38" y="-735.45" font-family="Helvetica,sans-Serif" font-weight="bold" font-size="9.00">lab</text>
</g>
<g id="clust3" class="cluster">
<title>cluster_apps/lab/src</title>
<path fill="#ffffff" stroke="black" stroke-width="2" d="M36,-642C36,-642 150.75,-642 150.75,-642 156.75,-642 162.75,-648 162.75,-654 162.75,-654 162.75,-698 162.75,-698 162.75,-704 156.75,-710 150.75,-710 150.75,-710 36,-710 36,-710 30,-710 24,-704 24,-698 24,-698 24,-654 24,-654 24,-648 30,-642 36,-642"/>
<text xml:space="preserve" text-anchor="middle" x="93.38" y="-697.45" font-family="Helvetica,sans-Serif" font-weight="bold" font-size="9.00">src</text>
</g>
<g id="clust4" class="cluster">
<title>cluster_packages</title>
<path fill="#ffffff" stroke="black" stroke-width="2" d="M20,-8C20,-8 738.98,-8 738.98,-8 744.98,-8 750.98,-14 750.98,-20 750.98,-20 750.98,-606 750.98,-606 750.98,-612 744.98,-618 738.98,-618 738.98,-618 20,-618 20,-618 14,-618 8,-612 8,-606 8,-606 8,-20 8,-20 8,-14 14,-8 20,-8"/>
<text xml:space="preserve" text-anchor="middle" x="379.49" y="-605.45" font-family="Helvetica,sans-Serif" font-weight="bold" font-size="9.00">packages</text>
</g>
<g id="clust5" class="cluster">
<title>cluster_packages/client</title>
<path fill="#ffffff" stroke="black" stroke-width="2" d="M28,-468C28,-468 323.62,-468 323.62,-468 329.62,-468 335.62,-474 335.62,-480 335.62,-480 335.62,-568 335.62,-568 335.62,-574 329.62,-580 323.62,-580 323.62,-580 28,-580 28,-580 22,-580 16,-574 16,-568 16,-568 16,-480 16,-480 16,-474 22,-468 28,-468"/>
<text xml:space="preserve" text-anchor="middle" x="175.81" y="-567.45" font-family="Helvetica,sans-Serif" font-weight="bold" font-size="9.00">client</text>
</g>
<g id="clust6" class="cluster">
<title>cluster_packages/client/src</title>
<path fill="#ffffff" stroke="black" stroke-width="2" d="M36,-476C36,-476 315.62,-476 315.62,-476 321.62,-476 327.62,-482 327.62,-488 327.62,-488 327.62,-530 327.62,-530 327.62,-536 321.62,-542 315.62,-542 315.62,-542 36,-542 36,-542 30,-542 24,-536 24,-530 24,-530 24,-488 24,-488 24,-482 30,-476 36,-476"/>
<text xml:space="preserve" text-anchor="middle" x="175.81" y="-529.45" font-family="Helvetica,sans-Serif" font-weight="bold" font-size="9.00">src</text>
</g>
<g id="clust7" class="cluster">
<title>cluster_packages/runtime</title>
<path fill="#ffffff" stroke="black" stroke-width="2" d="M28,-290C28,-290 331.62,-290 331.62,-290 337.62,-290 343.62,-296 343.62,-302 343.62,-302 343.62,-436 343.62,-436 343.62,-442 337.62,-448 331.62,-448 331.62,-448 28,-448 28,-448 22,-448 16,-442 16,-436 16,-436 16,-302 16,-302 16,-296 22,-290 28,-290"/>
<text xml:space="preserve" text-anchor="middle" x="179.81" y="-435.45" font-family="Helvetica,sans-Serif" font-weight="bold" font-size="9.00">runtime</text>
</g>
<g id="clust8" class="cluster">
<title>cluster_packages/runtime/src</title>
<path fill="#ffffff" stroke="black" stroke-width="2" d="M36,-298C36,-298 323.62,-298 323.62,-298 329.62,-298 335.62,-304 335.62,-310 335.62,-310 335.62,-398 335.62,-398 335.62,-404 329.62,-410 323.62,-410 323.62,-410 36,-410 36,-410 30,-410 24,-404 24,-398 24,-398 24,-310 24,-310 24,-304 30,-298 36,-298"/>
<text xml:space="preserve" text-anchor="middle" x="179.81" y="-397.45" font-family="Helvetica,sans-Serif" font-weight="bold" font-size="9.00">src</text>
</g>
<g id="clust9" class="cluster">
<title>cluster_packages/runtime/src/runtime</title>
<path fill="#ffffff" stroke="black" stroke-width="2" d="M215.95,-332C215.95,-332 315.62,-332 315.62,-332 321.62,-332 327.62,-338 327.62,-344 327.62,-344 327.62,-372 327.62,-372 327.62,-378 321.62,-384 315.62,-384 315.62,-384 215.95,-384 215.95,-384 209.95,-384 203.95,-378 203.95,-372 203.95,-372 203.95,-344 203.95,-344 203.95,-338 209.95,-332 215.95,-332"/>
<text xml:space="preserve" text-anchor="middle" x="265.79" y="-371.45" font-family="Helvetica,sans-Serif" font-weight="bold" font-size="9.00">runtime</text>
</g>
<g id="clust10" class="cluster">
<title>cluster_packages/substrate</title>
<path fill="#ffffff" stroke="black" stroke-width="2" d="M260.75,-28C260.75,-28 730.98,-28 730.98,-28 736.98,-28 742.98,-34 742.98,-40 742.98,-40 742.98,-270 742.98,-270 742.98,-276 736.98,-282 730.98,-282 730.98,-282 260.75,-282 260.75,-282 254.75,-282 248.75,-276 248.75,-270 248.75,-270 248.75,-40 248.75,-40 248.75,-34 254.75,-28 260.75,-28"/>
<text xml:space="preserve" text-anchor="middle" x="495.86" y="-269.45" font-family="Helvetica,sans-Serif" font-weight="bold" font-size="9.00">substrate</text>
</g>
<g id="clust11" class="cluster">
<title>cluster_packages/substrate/src</title>
<path fill="#ffffff" stroke="black" stroke-width="2" d="M268.75,-36C268.75,-36 722.98,-36 722.98,-36 728.98,-36 734.98,-42 734.98,-48 734.98,-48 734.98,-232 734.98,-232 734.98,-238 728.98,-244 722.98,-244 722.98,-244 268.75,-244 268.75,-244 262.75,-244 256.75,-238 256.75,-232 256.75,-232 256.75,-48 256.75,-48 256.75,-42 262.75,-36 268.75,-36"/>
<text xml:space="preserve" text-anchor="middle" x="495.86" y="-231.45" font-family="Helvetica,sans-Serif" font-weight="bold" font-size="9.00">src</text>
</g>
<!-- apps -->
<!-- apps/lab -->
<!-- apps/lab/src -->
<!-- apps/lab/src/lab -->
<g id="node4" class="node">
<title>apps/lab/src/lab</title>
<g id="a_node4"><a xlink:href="apps/lab/src/lab" xlink:title="lab">
<polygon fill="#ffffcc" stroke="black" points="154.75,-667.88 102.72,-667.88 100.75,-665.9 100.75,-650.12 152.78,-650.12 154.75,-652.1 154.75,-667.88"/>
<polyline fill="none" stroke="black" points="152.78,-665.9 100.75,-665.9"/>
<polyline fill="none" stroke="black" points="152.78,-665.9 152.78,-650.12"/>
<polyline fill="none" stroke="black" points="152.78,-665.9 154.75,-667.88"/>
<text xml:space="preserve" text-anchor="start" x="121.38" y="-656.38" font-family="Helvetica,sans-Serif" font-size="9.00">lab</text>
</a>
</g>
</g>
<!-- apps/lab/src&#45;&gt;apps/lab/src/lab -->
<g id="edge1" class="edge">
<title>apps/lab/src&#45;&gt;apps/lab/src/lab</title>
<path fill="none" stroke="#000000" stroke-width="2" stroke-opacity="0.200000" d="M61.91,-681.72C65.51,-680.75 77.8,-677.39 87.75,-674 90.13,-673.19 92.58,-672.32 95.04,-671.43"/>
<polygon fill="#000000" fill-opacity="0.200000" stroke="#000000" stroke-width="2" stroke-opacity="0.200000" points="95.62,-673.46 100.51,-669.4 94.15,-669.52 95.62,-673.46"/>
</g>
<!-- packages/client/src/firegrid -->
<g id="node7" class="node">
<title>packages/client/src/firegrid</title>
<g id="a_node7"><a xlink:href="packages/client/src/firegrid" xlink:title="firegrid">
<polygon fill="#ffffcc" stroke="black" points="240.75,-515.88 188.72,-515.88 186.75,-513.9 186.75,-498.12 238.78,-498.12 240.75,-500.1 240.75,-515.88"/>
<polyline fill="none" stroke="black" points="238.78,-513.9 186.75,-513.9"/>
<polyline fill="none" stroke="black" points="238.78,-513.9 238.78,-498.12"/>
<polyline fill="none" stroke="black" points="238.78,-513.9 240.75,-515.88"/>
<text xml:space="preserve" text-anchor="start" x="199.5" y="-504.38" font-family="Helvetica,sans-Serif" font-size="9.00">firegrid</text>
</a>
</g>
</g>
<!-- apps/lab/src/lab&#45;&gt;packages/client/src/firegrid -->
<g id="edge4" class="edge">
<title>apps/lab/src/lab&#45;&gt;packages/client/src/firegrid</title>
<path fill="none" stroke="#000000" stroke-width="2" stroke-opacity="0.200000" d="M133.75,-649.95C147.44,-625.19 185.64,-556.06 203.42,-523.88"/>
<polygon fill="#000000" fill-opacity="0.200000" stroke="#000000" stroke-width="2" stroke-opacity="0.200000" points="205.14,-525.11 206.2,-518.85 201.46,-523.08 205.14,-525.11"/>
</g>
<!-- apps/lab/src/__tests__ -->
<g id="node5" class="node">
<title>apps/lab/src/__tests__</title>
<g id="a_node5"><a xlink:href="apps/lab/src/__tests__" xlink:title="__tests__">
<polygon fill="#ffffcc" stroke="black" points="87.75,-667.88 33.97,-667.88 32,-665.9 32,-650.12 85.78,-650.12 87.75,-652.1 87.75,-667.88"/>
<polyline fill="none" stroke="black" points="85.78,-665.9 32,-665.9"/>
<polyline fill="none" stroke="black" points="85.78,-665.9 85.78,-650.12"/>
<polyline fill="none" stroke="black" points="85.78,-665.9 87.75,-667.88"/>
<text xml:space="preserve" text-anchor="start" x="40" y="-656.38" font-family="Helvetica,sans-Serif" font-size="9.00">__tests__</text>
</a>
</g>
</g>
<!-- apps/lab/src/__tests__&#45;&gt;apps/lab/src/lab -->
<g id="edge2" class="edge">
<title>apps/lab/src/__tests__&#45;&gt;apps/lab/src/lab</title>
<path fill="none" stroke="#000000" stroke-width="2" stroke-opacity="0.200000" d="M88.05,-659C89.21,-659 90.37,-659 91.54,-659"/>
<polygon fill="#000000" fill-opacity="0.200000" stroke="#000000" stroke-width="2" stroke-opacity="0.200000" points="91.46,-661.1 97.46,-659 91.46,-656.9 91.46,-661.1"/>
</g>
<!-- packages/client/src -->
<!-- apps/lab/src/__tests__&#45;&gt;packages/client/src -->
<g id="edge3" class="edge">
<title>apps/lab/src/__tests__&#45;&gt;packages/client/src</title>
<path fill="none" stroke="#000000" stroke-width="2" stroke-dasharray="5,2" stroke-opacity="0.200000" d="M68.46,-649.77C74.3,-642.34 82.28,-631.45 87.75,-621 105.46,-587.19 118.64,-543.53 124.05,-524.1"/>
<polygon fill="#000000" fill-opacity="0.200000" stroke="#000000" stroke-width="2" stroke-opacity="0.200000" points="126.02,-524.84 125.56,-518.5 121.97,-523.74 126.02,-524.84"/>
</g>
<!-- packages/client/src&#45;&gt;packages/client/src/firegrid -->
<g id="edge5" class="edge">
<title>packages/client/src&#45;&gt;packages/client/src/firegrid</title>
<path fill="none" stroke="#000000" stroke-width="2" stroke-opacity="0.200000" d="M129.94,-513.9C135.4,-513.45 158.69,-511.51 179.18,-509.8"/>
<polygon fill="#000000" fill-opacity="0.200000" stroke="#000000" stroke-width="2" stroke-opacity="0.200000" points="185.46,-511.38 179.31,-509.79 185.11,-507.2 185.46,-511.38"/>
</g>
<!-- packages/client/src/client -->
<g id="node11" class="node">
<title>packages/client/src/client</title>
<g id="a_node11"><a xlink:href="packages/client/src/client" xlink:title="client">
<polygon fill="#ffffcc" stroke="black" points="319.62,-501.88 267.6,-501.88 265.62,-499.9 265.62,-484.12 317.65,-484.12 319.62,-486.1 319.62,-501.88"/>
<polyline fill="none" stroke="black" points="317.65,-499.9 265.62,-499.9"/>
<polyline fill="none" stroke="black" points="317.65,-499.9 317.65,-484.12"/>
<polyline fill="none" stroke="black" points="317.65,-499.9 319.62,-501.88"/>
<text xml:space="preserve" text-anchor="start" x="281.75" y="-490.38" font-family="Helvetica,sans-Serif" font-size="9.00">client</text>
</a>
</g>
</g>
<!-- packages/client/src/firegrid&#45;&gt;packages/client/src/client -->
<g id="edge13" class="edge">
<title>packages/client/src/firegrid&#45;&gt;packages/client/src/client</title>
<path fill="none" stroke="#000000" stroke-width="2" stroke-opacity="0.200000" d="M241.21,-502.18C246.21,-501.27 251.52,-500.3 256.75,-499.35"/>
<polygon fill="#000000" fill-opacity="0.200000" stroke="#000000" stroke-width="2" stroke-opacity="0.200000" points="256.88,-501.46 262.4,-498.32 256.12,-497.33 256.88,-501.46"/>
</g>
<!-- packages/substrate/src/descriptors -->
<g id="node13" class="node">
<title>packages/substrate/src/descriptors</title>
<g id="a_node13"><a xlink:href="packages/substrate/src/descriptors" xlink:title="descriptors">
<polygon fill="#ffffcc" stroke="black" points="659.98,-186.88 600.95,-186.88 598.98,-184.9 598.98,-169.12 658,-169.12 659.98,-171.1 659.98,-186.88"/>
<polyline fill="none" stroke="black" points="658,-184.9 598.98,-184.9"/>
<polyline fill="none" stroke="black" points="658,-184.9 658,-169.12"/>
<polyline fill="none" stroke="black" points="658,-184.9 659.98,-186.88"/>
<text xml:space="preserve" text-anchor="start" x="606.98" y="-175.38" font-family="Helvetica,sans-Serif" font-size="9.00">descriptors</text>
</a>
</g>
</g>
<!-- packages/client/src/firegrid&#45;&gt;packages/substrate/src/descriptors -->
<g id="edge12" class="edge">
<title>packages/client/src/firegrid&#45;&gt;packages/substrate/src/descriptors</title>
<path fill="none" stroke="#000000" stroke-width="2" stroke-opacity="0.200000" d="M241.25,-509.1C273.46,-511.47 329.5,-515 377.62,-515 377.62,-515 377.62,-515 499.18,-515 541.65,-515 560.59,-509.06 585.98,-475 619.23,-430.39 626.58,-253.39 628.1,-196.04"/>
<polygon fill="#000000" fill-opacity="0.200000" stroke="#000000" stroke-width="2" stroke-opacity="0.200000" points="630.19,-196.41 628.24,-190.36 625.99,-196.31 630.19,-196.41"/>
</g>
<!-- packages -->
<!-- packages/client -->
<!-- packages/client/src/__tests__ -->
<g id="node10" class="node">
<title>packages/client/src/__tests__</title>
<g id="a_node10"><a xlink:href="packages/client/src/__tests__" xlink:title="__tests__">
<polygon fill="#ccffcc" stroke="black" points="87.75,-501.88 33.97,-501.88 32,-499.9 32,-484.12 85.78,-484.12 87.75,-486.1 87.75,-501.88"/>
<polyline fill="none" stroke="black" points="85.78,-499.9 32,-499.9"/>
<polyline fill="none" stroke="black" points="85.78,-499.9 85.78,-484.12"/>
<polyline fill="none" stroke="black" points="85.78,-499.9 87.75,-501.88"/>
<text xml:space="preserve" text-anchor="start" x="40" y="-490.38" font-family="Helvetica,sans-Serif" font-size="9.00">__tests__</text>
</a>
</g>
</g>
<!-- packages/client/src/__tests__&#45;&gt;packages/client/src -->
<g id="edge6" class="edge">
<title>packages/client/src/__tests__&#45;&gt;packages/client/src</title>
<path fill="none" stroke="#000000" stroke-width="2" stroke-opacity="0.200000" d="M88.05,-501.66C98.4,-504.96 109.54,-508.52 117.2,-510.96"/>
<polygon fill="#000000" fill-opacity="0.200000" stroke="#000000" stroke-width="2" stroke-opacity="0.200000" points="116.36,-512.89 122.71,-512.71 117.63,-508.89 116.36,-512.89"/>
</g>
<!-- packages/client/src/__tests__&#45;&gt;packages/client/src/firegrid -->
<g id="edge9" class="edge">
<title>packages/client/src/__tests__&#45;&gt;packages/client/src/firegrid</title>
<path fill="none" stroke="#000000" stroke-width="2" stroke-opacity="0.200000" d="M88.03,-495.5C113.02,-497.81 150.23,-501.24 177.5,-503.75"/>
<polygon fill="#000000" fill-opacity="0.200000" stroke="#000000" stroke-width="2" stroke-opacity="0.200000" points="177.16,-505.83 183.33,-504.29 177.55,-501.65 177.16,-505.83"/>
</g>
<!-- packages/client/src/__tests__&#45;&gt;packages/client/src/client -->
<g id="edge7" class="edge">
<title>packages/client/src/__tests__&#45;&gt;packages/client/src/client</title>
<path fill="none" stroke="#000000" stroke-width="2" stroke-opacity="0.200000" d="M88,-492.59C123.21,-492.12 186.57,-491.47 240.75,-492 245.84,-492.05 251.22,-492.13 256.5,-492.22"/>
<polygon fill="#000000" fill-opacity="0.200000" stroke="#000000" stroke-width="2" stroke-opacity="0.200000" points="256.16,-494.31 262.19,-492.33 256.24,-490.11 256.16,-494.31"/>
</g>
<!-- packages/substrate/src/kernel -->
<g id="node12" class="node">
<title>packages/substrate/src/kernel</title>
<g id="a_node12"><a xlink:href="packages/substrate/src/kernel" xlink:title="kernel">
<polygon fill="#ffffcc" stroke="black" points="405.62,-179.88 353.6,-179.88 351.62,-177.9 351.62,-162.12 403.65,-162.12 405.62,-164.1 405.62,-179.88"/>
<polyline fill="none" stroke="black" points="403.65,-177.9 351.62,-177.9"/>
<polyline fill="none" stroke="black" points="403.65,-177.9 403.65,-162.12"/>
<polyline fill="none" stroke="black" points="403.65,-177.9 405.62,-179.88"/>
<text xml:space="preserve" text-anchor="start" x="365.88" y="-168.38" font-family="Helvetica,sans-Serif" font-size="9.00">kernel</text>
</a>
</g>
</g>
<!-- packages/client/src/__tests__&#45;&gt;packages/substrate/src/kernel -->
<g id="edge8" class="edge">
<title>packages/client/src/__tests__&#45;&gt;packages/substrate/src/kernel</title>
<path fill="none" stroke="#000000" stroke-width="2" stroke-opacity="0.200000" d="M73.31,-483.69C80.94,-478.29 91.07,-471.65 100.75,-467 203.18,-417.77 270.03,-473.6 343.62,-387 368.93,-357.22 375.52,-235.62 377.14,-189.16"/>
<polygon fill="#000000" fill-opacity="0.200000" stroke="#000000" stroke-width="2" stroke-opacity="0.200000" points="379.23,-189.3 377.32,-183.24 375.03,-189.17 379.23,-189.3"/>
</g>
<!-- packages/client/src/__tests__&#45;&gt;packages/substrate/src/descriptors -->
<g id="edge10" class="edge">
<title>packages/client/src/__tests__&#45;&gt;packages/substrate/src/descriptors</title>
<path fill="none" stroke="#000000" stroke-width="2" stroke-opacity="0.200000" d="M88.14,-486.64C118.41,-480.14 168.79,-471 212.75,-471 212.75,-471 212.75,-471 499.18,-471 620.04,-471 628.87,-259.75 628.79,-196"/>
<polygon fill="#000000" fill-opacity="0.200000" stroke="#000000" stroke-width="2" stroke-opacity="0.200000" points="630.89,-196.1 628.74,-190.12 626.69,-196.13 630.89,-196.1"/>
</g>
<!-- packages/client/src/client&#45;&gt;packages/substrate/src/kernel -->
<g id="edge11" class="edge">
<title>packages/client/src/client&#45;&gt;packages/substrate/src/kernel</title>
<path fill="none" stroke="#000000" stroke-width="2" stroke-opacity="0.200000" d="M316.7,-483.71C326.61,-478.53 337.34,-471.05 343.62,-461 372.22,-415.29 376.77,-245.3 377.49,-189.14"/>
<polygon fill="#000000" fill-opacity="0.200000" stroke="#000000" stroke-width="2" stroke-opacity="0.200000" points="379.59,-189.35 377.55,-183.33 375.39,-189.31 379.59,-189.35"/>
</g>
<!-- packages/substrate/src/kernel&#45;&gt;packages/substrate/src/descriptors -->
<g id="edge45" class="edge">
<title>packages/substrate/src/kernel&#45;&gt;packages/substrate/src/descriptors</title>
<path fill="none" stroke="#000000" stroke-width="2" stroke-opacity="0.200000" d="M405.79,-171.74C450.36,-172.99 541.13,-175.54 591.94,-176.97"/>
<polygon fill="#000000" fill-opacity="0.200000" stroke="#000000" stroke-width="2" stroke-opacity="0.200000" points="597.78,-179.24 591.84,-176.97 597.89,-175.04 597.78,-179.24"/>
</g>
<!-- packages/substrate/src -->
<!-- packages/substrate/src/kernel&#45;&gt;packages/substrate/src -->
<g id="edge48" class="edge">
<title>packages/substrate/src/kernel&#45;&gt;packages/substrate/src</title>
<path fill="none" stroke="#000000" stroke-width="2" stroke-opacity="0.200000" d="M384.65,-161.82C391.07,-151.01 403.22,-133.35 418.62,-124 443.79,-108.72 461.56,-129.78 483.38,-110 492.98,-101.29 495.93,-85.89 496.82,-76.08"/>
<polygon fill="#000000" fill-opacity="0.200000" stroke="#000000" stroke-width="2" stroke-opacity="0.200000" points="499.23,-70.1 496.83,-75.98 495.04,-69.88 499.23,-70.1"/>
</g>
<!-- packages/substrate/src/schema -->
<g id="node22" class="node">
<title>packages/substrate/src/schema</title>
<g id="a_node22"><a xlink:href="packages/substrate/src/schema" xlink:title="schema">
<polygon fill="#ffffcc" stroke="black" points="726.98,-200.88 674.95,-200.88 672.98,-198.9 672.98,-183.12 725,-183.12 726.98,-185.1 726.98,-200.88"/>
<polyline fill="none" stroke="black" points="725,-198.9 672.98,-198.9"/>
<polyline fill="none" stroke="black" points="725,-198.9 725,-183.12"/>
<polyline fill="none" stroke="black" points="725,-198.9 726.98,-200.88"/>
<text xml:space="preserve" text-anchor="start" x="683.85" y="-189.38" font-family="Helvetica,sans-Serif" font-size="9.00">schema</text>
</a>
</g>
</g>
<!-- packages/substrate/src/kernel&#45;&gt;packages/substrate/src/schema -->
<g id="edge50" class="edge">
<title>packages/substrate/src/kernel&#45;&gt;packages/substrate/src/schema</title>
<path fill="none" stroke="#000000" stroke-width="2" stroke-opacity="0.200000" d="M406.03,-175.3C410.23,-175.91 414.54,-176.51 418.62,-177 498.51,-186.68 518.58,-189.44 598.98,-193 621.12,-193.98 646.05,-193.73 665.48,-193.24"/>
<polygon fill="#000000" fill-opacity="0.200000" stroke="#000000" stroke-width="2" stroke-opacity="0.200000" points="671.7,-195.17 665.65,-193.24 671.59,-190.97 671.7,-195.17"/>
</g>
<!-- packages/substrate/src/facade -->
<g id="node24" class="node">
<title>packages/substrate/src/facade</title>
<g id="a_node24"><a xlink:href="packages/substrate/src/facade" xlink:title="facade">
<polygon fill="#ffffcc" stroke="black" points="576.48,-119.88 524.45,-119.88 522.48,-117.9 522.48,-102.12 574.5,-102.12 576.48,-104.1 576.48,-119.88"/>
<polyline fill="none" stroke="black" points="574.5,-117.9 522.48,-117.9"/>
<polyline fill="none" stroke="black" points="574.5,-117.9 574.5,-102.12"/>
<polyline fill="none" stroke="black" points="574.5,-117.9 576.48,-119.88"/>
<text xml:space="preserve" text-anchor="start" x="535.6" y="-108.38" font-family="Helvetica,sans-Serif" font-size="9.00">facade</text>
</a>
</g>
</g>
<!-- packages/substrate/src/kernel&#45;&gt;packages/substrate/src/facade -->
<g id="edge47" class="edge">
<title>packages/substrate/src/kernel&#45;&gt;packages/substrate/src/facade</title>
<path fill="none" stroke="#000000" stroke-width="2" stroke-opacity="0.200000" d="M406.01,-169.73C427.47,-167.99 458.22,-163.85 483.38,-154 501.53,-146.89 519.85,-134.18 532.41,-124.42"/>
<polygon fill="#000000" fill-opacity="0.200000" stroke="#000000" stroke-width="2" stroke-opacity="0.200000" points="538.28,-122.43 532.28,-124.52 535.67,-119.15 538.28,-122.43"/>
</g>
<!-- packages/substrate/src/event&#45;plane -->
<g id="node26" class="node">
<title>packages/substrate/src/event&#45;plane</title>
<g id="a_node26"><a xlink:href="packages/substrate/src/event-plane" xlink:title="event&#45;plane">
<polygon fill="#ffffcc" stroke="black" points="483.38,-147.88 420.6,-147.88 418.62,-145.9 418.62,-130.12 481.4,-130.12 483.38,-132.1 483.38,-147.88"/>
<polyline fill="none" stroke="black" points="481.4,-145.9 418.62,-145.9"/>
<polyline fill="none" stroke="black" points="481.4,-145.9 481.4,-130.12"/>
<polyline fill="none" stroke="black" points="481.4,-145.9 483.38,-147.88"/>
<text xml:space="preserve" text-anchor="start" x="426.62" y="-136.38" font-family="Helvetica,sans-Serif" font-size="9.00">event&#45;plane</text>
</a>
</g>
</g>
<!-- packages/substrate/src/kernel&#45;&gt;packages/substrate/src/event&#45;plane -->
<g id="edge46" class="edge">
<title>packages/substrate/src/kernel&#45;&gt;packages/substrate/src/event&#45;plane</title>
<path fill="none" stroke="#000000" stroke-width="2" stroke-opacity="0.200000" d="M399.98,-161.74C407.21,-158.46 415.47,-154.7 423.15,-151.21"/>
<polygon fill="#000000" fill-opacity="0.200000" stroke="#000000" stroke-width="2" stroke-opacity="0.200000" points="429.41,-150.67 423.07,-151.24 427.67,-146.85 429.41,-150.67"/>
</g>
<!-- packages/substrate/src/projection -->
<g id="node27" class="node">
<title>packages/substrate/src/projection</title>
<g id="a_node27"><a xlink:href="packages/substrate/src/projection" xlink:title="projection">
<polygon fill="#ffffcc" stroke="black" points="479.25,-103.88 424.72,-103.88 422.75,-101.9 422.75,-86.12 477.28,-86.12 479.25,-88.1 479.25,-103.88"/>
<polyline fill="none" stroke="black" points="477.28,-101.9 422.75,-101.9"/>
<polyline fill="none" stroke="black" points="477.28,-101.9 477.28,-86.12"/>
<polyline fill="none" stroke="black" points="477.28,-101.9 479.25,-103.88"/>
<text xml:space="preserve" text-anchor="start" x="430.75" y="-92.38" font-family="Helvetica,sans-Serif" font-size="9.00">projection</text>
</a>
</g>
</g>
<!-- packages/substrate/src/kernel&#45;&gt;packages/substrate/src/projection -->
<g id="edge49" class="edge">
<title>packages/substrate/src/kernel&#45;&gt;packages/substrate/src/projection</title>
<path fill="none" stroke="#000000" stroke-width="2" stroke-opacity="0.200000" d="M384.09,-161.81C390.42,-149.51 403,-127.55 418.62,-113 420.48,-111.27 422.53,-109.64 424.67,-108.12"/>
<polygon fill="#000000" fill-opacity="0.200000" stroke="#000000" stroke-width="2" stroke-opacity="0.200000" points="430.76,-106.66 424.59,-108.17 428.48,-103.14 430.76,-106.66"/>
</g>
<!-- packages/substrate/src/descriptors&#45;&gt;packages/substrate/src/schema -->
<g id="edge41" class="edge">
<title>packages/substrate/src/descriptors&#45;&gt;packages/substrate/src/schema</title>
<path fill="none" stroke="#000000" stroke-width="2" stroke-opacity="0.200000" d="M660.32,-184.1C661.63,-184.37 662.94,-184.64 664.26,-184.9"/>
<polygon fill="#000000" fill-opacity="0.200000" stroke="#000000" stroke-width="2" stroke-opacity="0.200000" points="663.61,-186.92 669.91,-186.06 664.46,-182.8 663.61,-186.92"/>
</g>
<!-- packages/runtime -->
<!-- packages/runtime/src -->
<!-- packages/runtime/src/runtime -->
<!-- packages/runtime/src&#45;&gt;packages/runtime/src/runtime -->
<g id="edge14" class="edge">
<title>packages/runtime/src&#45;&gt;packages/runtime/src/runtime</title>
<path fill="none" stroke="#000000" stroke-width="2" stroke-opacity="0.200000" d="M129.94,-336.08C138.03,-336.66 185.27,-340.04 204.56,-341.41"/>
<polygon fill="#000000" fill-opacity="0.200000" stroke="#000000" stroke-width="2" stroke-opacity="0.200000" points="210.34,-343.93 204.5,-341.41 210.64,-339.74 210.34,-343.93"/>
</g>
<!-- packages/runtime/src/runtime&#45;&gt;packages/substrate/src/kernel -->
<g id="edge22" class="edge">
<title>packages/runtime/src/runtime&#45;&gt;packages/substrate/src/kernel</title>
<path fill="none" stroke="#000000" stroke-width="2" stroke-opacity="0.200000" d="M214.8,-340.31C215.29,-323.76 220.09,-190.63 248.75,-167 275.28,-145.13 316.37,-150.94 345,-159.1"/>
<polygon fill="#000000" fill-opacity="0.200000" stroke="#000000" stroke-width="2" stroke-opacity="0.200000" points="344.21,-161.05 350.56,-160.79 345.43,-157.03 344.21,-161.05"/>
</g>
<!-- packages/runtime/src/boot -->
<g id="node18" class="node">
<title>packages/runtime/src/boot</title>
<g id="a_node18"><a xlink:href="packages/runtime/src/boot" xlink:title="boot">
<polygon fill="#ffffcc" stroke="black" points="319.62,-323.88 267.6,-323.88 265.62,-321.9 265.62,-306.12 317.65,-306.12 319.62,-308.1 319.62,-323.88"/>
<polyline fill="none" stroke="black" points="317.65,-321.9 265.62,-321.9"/>
<polyline fill="none" stroke="black" points="317.65,-321.9 317.65,-306.12"/>
<polyline fill="none" stroke="black" points="317.65,-321.9 319.62,-323.88"/>
<text xml:space="preserve" text-anchor="start" x="283.62" y="-312.38" font-family="Helvetica,sans-Serif" font-size="9.00">boot</text>
</a>
</g>
</g>
<!-- packages/runtime/src/runtime&#45;&gt;packages/runtime/src/boot -->
<g id="edge23" class="edge">
<title>packages/runtime/src/runtime&#45;&gt;packages/runtime/src/boot</title>
<path fill="none" stroke="#000000" stroke-width="2" stroke-opacity="0.200000" d="M215.8,-341.94C219.46,-341.7 231.84,-340.56 240.75,-336 244.96,-333.85 244.64,-331.34 248.75,-329 251.42,-327.48 254.27,-326.1 257.2,-324.85"/>
<polygon fill="#000000" fill-opacity="0.200000" stroke="#000000" stroke-width="2" stroke-opacity="0.200000" points="257.83,-326.86 262.69,-322.75 256.33,-322.93 257.83,-326.86"/>
</g>
<!-- packages/runtime/src/runtime/internal -->
<g id="node20" class="node">
<title>packages/runtime/src/runtime/internal</title>
<g id="a_node20"><a xlink:href="packages/runtime/src/runtime/internal" xlink:title="internal">
<polygon fill="#ffffcc" stroke="black" points="319.62,-357.88 267.6,-357.88 265.62,-355.9 265.62,-340.12 317.65,-340.12 319.62,-342.1 319.62,-357.88"/>
<polyline fill="none" stroke="black" points="317.65,-355.9 265.62,-355.9"/>
<polyline fill="none" stroke="black" points="317.65,-355.9 317.65,-340.12"/>
<polyline fill="none" stroke="black" points="317.65,-355.9 319.62,-357.88"/>
<text xml:space="preserve" text-anchor="start" x="277.25" y="-346.38" font-family="Helvetica,sans-Serif" font-size="9.00">internal</text>
</a>
</g>
</g>
<!-- packages/runtime/src/runtime&#45;&gt;packages/runtime/src/runtime/internal -->
<g id="edge21" class="edge">
<title>packages/runtime/src/runtime&#45;&gt;packages/runtime/src/runtime/internal</title>
<path fill="none" stroke="#000000" stroke-width="2" stroke-opacity="0.200000" d="M215.61,-341.02C219.84,-338.95 238.85,-339.54 256.81,-341.35"/>
<polygon fill="#000000" fill-opacity="0.200000" stroke="#000000" stroke-width="2" stroke-opacity="0.200000" points="256.26,-343.4 262.46,-341.99 256.73,-339.23 256.26,-343.4"/>
</g>
<!-- packages/runtime/src/__tests__ -->
<g id="node17" class="node">
<title>packages/runtime/src/__tests__</title>
<g id="a_node17"><a xlink:href="packages/runtime/src/__tests__" xlink:title="__tests__">
<polygon fill="#ffffcc" stroke="black" points="87.75,-323.88 33.97,-323.88 32,-321.9 32,-306.12 85.78,-306.12 87.75,-308.1 87.75,-323.88"/>
<polyline fill="none" stroke="black" points="85.78,-321.9 32,-321.9"/>
<polyline fill="none" stroke="black" points="85.78,-321.9 85.78,-306.12"/>
<polyline fill="none" stroke="black" points="85.78,-321.9 87.75,-323.88"/>
<text xml:space="preserve" text-anchor="start" x="40" y="-312.38" font-family="Helvetica,sans-Serif" font-size="9.00">__tests__</text>
</a>
</g>
</g>
<!-- packages/runtime/src/__tests__&#45;&gt;packages/substrate/src/kernel -->
<g id="edge16" class="edge">
<title>packages/runtime/src/__tests__&#45;&gt;packages/substrate/src/kernel</title>
<path fill="none" stroke="#000000" stroke-width="2" stroke-opacity="0.200000" d="M67.38,-305.83C89,-276.28 162,-183.54 248.75,-151 288.23,-136.19 302.94,-139.92 343.62,-151 348.5,-152.33 353.39,-154.55 357.87,-157.04"/>
<polygon fill="#000000" fill-opacity="0.200000" stroke="#000000" stroke-width="2" stroke-opacity="0.200000" points="356.64,-158.75 362.85,-160.1 358.84,-155.17 356.64,-158.75"/>
</g>
<!-- packages/runtime/src/__tests__&#45;&gt;packages/substrate/src/descriptors -->
<g id="edge17" class="edge">
<title>packages/runtime/src/__tests__&#45;&gt;packages/substrate/src/descriptors</title>
<path fill="none" stroke="#000000" stroke-width="2" stroke-opacity="0.200000" d="M60.8,-305.75C60.64,-261.9 62.25,-75.52 100.75,-36 135.98,0.16 162.26,-17 212.75,-17 212.75,-17 212.75,-17 499.18,-17 540.77,-17 557.43,-21.75 585.98,-52 614.76,-82.51 624.09,-133.18 627.09,-160.02"/>
<polygon fill="#000000" fill-opacity="0.200000" stroke="#000000" stroke-width="2" stroke-opacity="0.200000" points="624.97,-159.97 627.64,-165.74 629.15,-159.57 624.97,-159.97"/>
</g>
<!-- packages/runtime/src/__tests__&#45;&gt;packages/runtime/src -->
<g id="edge15" class="edge">
<title>packages/runtime/src/__tests__&#45;&gt;packages/runtime/src</title>
<path fill="none" stroke="#000000" stroke-width="2" stroke-opacity="0.200000" d="M88.05,-323.66C98.4,-326.96 109.54,-330.52 117.2,-332.96"/>
<polygon fill="#000000" fill-opacity="0.200000" stroke="#000000" stroke-width="2" stroke-opacity="0.200000" points="116.36,-334.89 122.71,-334.71 117.63,-330.89 116.36,-334.89"/>
</g>
<!-- packages/runtime/src/__tests__&#45;&gt;packages/runtime/src/boot -->
<g id="edge18" class="edge">
<title>packages/runtime/src/__tests__&#45;&gt;packages/runtime/src/boot</title>
<path fill="none" stroke="#000000" stroke-width="2" stroke-opacity="0.200000" d="M87.8,-315C129.59,-315 210.09,-315 256.44,-315"/>
<polygon fill="#000000" fill-opacity="0.200000" stroke="#000000" stroke-width="2" stroke-opacity="0.200000" points="256.2,-317.1 262.2,-315 256.2,-312.9 256.2,-317.1"/>
</g>
<!-- packages/runtime/src/__tests__&#45;&gt;packages/substrate/src -->
<g id="edge19" class="edge">
<title>packages/runtime/src/__tests__&#45;&gt;packages/substrate/src</title>
<path fill="none" stroke="#000000" stroke-width="2" stroke-opacity="0.200000" d="M61.33,-305.87C64.3,-257.26 84.99,-31 212.75,-31 212.75,-31 212.75,-31 379.62,-31 426.5,-31 443.05,-26.1 483.38,-50 486.78,-52.02 489.69,-55.2 491.95,-58.27"/>
<polygon fill="#000000" fill-opacity="0.200000" stroke="#000000" stroke-width="2" stroke-opacity="0.200000" points="490.1,-59.27 495.03,-63.28 493.68,-57.07 490.1,-59.27"/>
</g>
<!-- packages/runtime/src/__tests__&#45;&gt;packages/runtime/src/runtime/internal -->
<g id="edge20" class="edge">
<title>packages/runtime/src/__tests__&#45;&gt;packages/runtime/src/runtime/internal</title>
<path fill="none" stroke="#000000" stroke-width="2" stroke-opacity="0.200000" d="M82.24,-324.23C84.17,-325.39 86.04,-326.65 87.75,-328 94.93,-333.69 92.62,-339.78 100.75,-344 149.98,-369.57 216.41,-363.85 256.52,-356.82"/>
<polygon fill="#000000" fill-opacity="0.200000" stroke="#000000" stroke-width="2" stroke-opacity="0.200000" points="256.65,-358.93 262.17,-355.77 255.89,-354.8 256.65,-358.93"/>
</g>
<!-- packages/substrate/src&#45;&gt;packages/substrate/src/descriptors -->
<g id="edge28" class="edge">
<title>packages/substrate/src&#45;&gt;packages/substrate/src/descriptors</title>
<path fill="none" stroke="#000000" stroke-width="2" stroke-opacity="0.200000" d="M499.98,-68.34C501.85,-71.34 506.79,-78.56 512.98,-82 541.83,-98.08 559.5,-76.24 585.98,-96 607.08,-111.75 618.6,-141.05 624.14,-160.02"/>
<polygon fill="#000000" fill-opacity="0.200000" stroke="#000000" stroke-width="2" stroke-opacity="0.200000" points="622.09,-160.47 625.68,-165.72 626.15,-159.38 622.09,-160.47"/>
</g>
<!-- packages/substrate/src&#45;&gt;packages/substrate/src/schema -->
<g id="edge27" class="edge">
<title>packages/substrate/src&#45;&gt;packages/substrate/src/schema</title>
<path fill="none" stroke="#000000" stroke-width="2" stroke-opacity="0.200000" d="M499.94,-65.57C501.72,-62.4 506.49,-54.84 512.98,-52 542.68,-38.96 556.7,-38.01 585.98,-52 640.07,-77.86 676.57,-143.65 691.45,-174.95"/>
<polygon fill="#000000" fill-opacity="0.200000" stroke="#000000" stroke-width="2" stroke-opacity="0.200000" points="689.39,-175.48 693.81,-180.05 693.2,-173.73 689.39,-175.48"/>
</g>
<!-- packages/substrate/src/choreography -->
<g id="node23" class="node">
<title>packages/substrate/src/choreography</title>
<g id="a_node23"><a xlink:href="packages/substrate/src/choreography" xlink:title="choreography">
<polygon fill="#ffffcc" stroke="black" points="585.98,-75.88 514.95,-75.88 512.98,-73.9 512.98,-58.12 584,-58.12 585.98,-60.1 585.98,-75.88"/>
<polyline fill="none" stroke="black" points="584,-73.9 512.98,-73.9"/>
<polyline fill="none" stroke="black" points="584,-73.9 584,-58.12"/>
<polyline fill="none" stroke="black" points="584,-73.9 585.98,-75.88"/>
<text xml:space="preserve" text-anchor="start" x="520.98" y="-64.38" font-family="Helvetica,sans-Serif" font-size="9.00">choreography</text>
</a>
</g>
</g>
<!-- packages/substrate/src&#45;&gt;packages/substrate/src/choreography -->
<g id="edge29" class="edge">
<title>packages/substrate/src&#45;&gt;packages/substrate/src/choreography</title>
<path fill="none" stroke="#000000" stroke-width="2" stroke-opacity="0.200000" d="M500.03,-65.7C501.1,-64.94 503.09,-64.32 505.7,-63.83"/>
<polygon fill="#000000" fill-opacity="0.200000" stroke="#000000" stroke-width="2" stroke-opacity="0.200000" points="511.98,-65.14 505.76,-63.82 511.44,-60.98 511.98,-65.14"/>
</g>
<!-- packages/substrate/src&#45;&gt;packages/substrate/src/facade -->
<g id="edge30" class="edge">
<title>packages/substrate/src&#45;&gt;packages/substrate/src/facade</title>
<path fill="none" stroke="#000000" stroke-width="2" stroke-opacity="0.200000" d="M500.24,-66.68C502.07,-69.86 506.26,-80.41 512.98,-87 517.76,-91.69 524.01,-95.41 529.93,-98.55"/>
<polygon fill="#000000" fill-opacity="0.200000" stroke="#000000" stroke-width="2" stroke-opacity="0.200000" points="534.29,-103.15 529.91,-98.54 536.21,-99.42 534.29,-103.15"/>
</g>
<!-- packages/runtime/src/runtime/internal&#45;&gt;packages/substrate/src/kernel -->
<g id="edge26" class="edge">
<title>packages/runtime/src/runtime/internal&#45;&gt;packages/substrate/src/kernel</title>
<path fill="none" stroke="#000000" stroke-width="2" stroke-opacity="0.200000" d="M319.98,-347.8C328.64,-346.07 337.59,-342.64 343.62,-336 351.19,-327.67 349.49,-297.05 351.62,-286 358.31,-251.35 367.78,-211.23 373.25,-188.71"/>
<polygon fill="#000000" fill-opacity="0.200000" stroke="#000000" stroke-width="2" stroke-opacity="0.200000" points="375.23,-189.47 374.62,-183.14 371.15,-188.47 375.23,-189.47"/>
</g>
<!-- packages/runtime/src/runtime/internal&#45;&gt;packages/substrate/src/descriptors -->
<g id="edge25" class="edge">
<title>packages/runtime/src/runtime/internal&#45;&gt;packages/substrate/src/descriptors</title>
<path fill="none" stroke="#000000" stroke-width="2" stroke-opacity="0.200000" d="M320.06,-342.94C327.73,-340.96 336.08,-338.6 343.62,-336 392.33,-319.25 398.49,-290 450,-290 450,-290 450,-290 499.18,-290 556.7,-290 601.19,-225.89 619.45,-194.67"/>
<polygon fill="#000000" fill-opacity="0.200000" stroke="#000000" stroke-width="2" stroke-opacity="0.200000" points="621.08,-196.05 622.21,-189.8 617.43,-193.98 621.08,-196.05"/>
</g>
<!-- packages/runtime/src/runtime/internal&#45;&gt;packages/runtime/src/runtime -->
<g id="edge24" class="edge">
<title>packages/runtime/src/runtime/internal&#45;&gt;packages/runtime/src/runtime</title>
<path fill="none" stroke="#000000" stroke-width="2" stroke-opacity="0.200000" d="M265.46,-350.91C251.1,-350.11 234.17,-348.15 223.96,-345.89"/>
<polygon fill="#000000" fill-opacity="0.200000" stroke="#000000" stroke-width="2" stroke-opacity="0.200000" points="224.84,-343.97 218.49,-344.08 223.53,-347.96 224.84,-343.97"/>
</g>
<!-- packages/substrate -->
<!-- packages/substrate/src/choreography&#45;&gt;packages/substrate/src/descriptors -->
<g id="edge39" class="edge">
<title>packages/substrate/src/choreography&#45;&gt;packages/substrate/src/descriptors</title>
<path fill="none" stroke="#000000" stroke-width="2" stroke-opacity="0.200000" d="M574.16,-76.17C578.45,-78.58 582.62,-81.51 585.98,-85 606.57,-106.45 618.41,-139.63 624.13,-160.02"/>
<polygon fill="#000000" fill-opacity="0.200000" stroke="#000000" stroke-width="2" stroke-opacity="0.200000" points="622.07,-160.45 625.63,-165.72 626.13,-159.38 622.07,-160.45"/>
</g>
<!-- packages/substrate/src/choreography&#45;&gt;packages/substrate/src -->
<g id="edge40" class="edge">
<title>packages/substrate/src/choreography&#45;&gt;packages/substrate/src</title>
<path fill="none" stroke="#000000" stroke-width="2" stroke-opacity="0.200000" d="M512.7,-71.07C511.31,-70.95 509.98,-70.81 508.73,-70.65"/>
<polygon fill="#000000" fill-opacity="0.200000" stroke="#000000" stroke-width="2" stroke-opacity="0.200000" points="509.29,-68.62 502.95,-69.09 508.2,-72.68 509.29,-68.62"/>
</g>
<!-- packages/substrate/src/facade&#45;&gt;packages/substrate/src -->
<g id="edge44" class="edge">
<title>packages/substrate/src/facade&#45;&gt;packages/substrate/src</title>
<path fill="none" stroke="#000000" stroke-width="2" stroke-opacity="0.200000" d="M522.02,-105.89C518.76,-103.93 515.64,-101.61 512.98,-99 507.16,-93.29 503.23,-84.6 501.1,-77.41"/>
<polygon fill="#000000" fill-opacity="0.200000" stroke="#000000" stroke-width="2" stroke-opacity="0.200000" points="503.23,-77.35 499.93,-71.92 499.13,-78.22 503.23,-77.35"/>
</g>
<!-- packages/substrate/src/__tests__ -->
<g id="node25" class="node">
<title>packages/substrate/src/__tests__</title>
<g id="a_node25"><a xlink:href="packages/substrate/src/__tests__" xlink:title="__tests__">
<polygon fill="#ffffcc" stroke="black" points="320.5,-190.88 266.72,-190.88 264.75,-188.9 264.75,-173.12 318.53,-173.12 320.5,-175.1 320.5,-190.88"/>
<polyline fill="none" stroke="black" points="318.53,-188.9 264.75,-188.9"/>
<polyline fill="none" stroke="black" points="318.53,-188.9 318.53,-173.12"/>
<polyline fill="none" stroke="black" points="318.53,-188.9 320.5,-190.88"/>
<text xml:space="preserve" text-anchor="start" x="272.75" y="-179.38" font-family="Helvetica,sans-Serif" font-size="9.00">__tests__</text>
</a>
</g>
</g>
<!-- packages/substrate/src/__tests__&#45;&gt;packages/substrate/src/kernel -->
<g id="edge38" class="edge">
<title>packages/substrate/src/__tests__&#45;&gt;packages/substrate/src/kernel</title>
<path fill="none" stroke="#000000" stroke-width="2" stroke-opacity="0.200000" d="M320.67,-178.46C327.54,-177.56 335.04,-176.58 342.27,-175.63"/>
<polygon fill="#000000" fill-opacity="0.200000" stroke="#000000" stroke-width="2" stroke-opacity="0.200000" points="342.53,-177.71 348.21,-174.85 341.99,-173.55 342.53,-177.71"/>
</g>
<!-- packages/substrate/src/__tests__&#45;&gt;packages/substrate/src/descriptors -->
<g id="edge35" class="edge">
<title>packages/substrate/src/__tests__&#45;&gt;packages/substrate/src/descriptors</title>
<path fill="none" stroke="#000000" stroke-width="2" stroke-opacity="0.200000" d="M320.75,-184.26C330.48,-184.97 341.54,-185.65 351.62,-186 436.57,-188.93 536.21,-184 589.75,-180.67"/>
<polygon fill="#000000" fill-opacity="0.200000" stroke="#000000" stroke-width="2" stroke-opacity="0.200000" points="589.69,-182.77 595.54,-180.3 589.42,-178.58 589.69,-182.77"/>
</g>
<!-- packages/substrate/src/__tests__&#45;&gt;packages/substrate/src -->
<g id="edge33" class="edge">
<title>packages/substrate/src/__tests__&#45;&gt;packages/substrate/src</title>
<path fill="none" stroke="#000000" stroke-width="2" stroke-opacity="0.200000" d="M295.1,-172.84C299.26,-150.39 313.4,-92.71 351.62,-69 395.92,-41.53 463.32,-57.02 487.84,-64.08"/>
<polygon fill="#000000" fill-opacity="0.200000" stroke="#000000" stroke-width="2" stroke-opacity="0.200000" points="486.9,-65.99 493.25,-65.76 488.14,-61.98 486.9,-65.99"/>
</g>
<!-- packages/substrate/src/__tests__&#45;&gt;packages/substrate/src/schema -->
<g id="edge34" class="edge">
<title>packages/substrate/src/__tests__&#45;&gt;packages/substrate/src/schema</title>
<path fill="none" stroke="#000000" stroke-width="2" stroke-opacity="0.200000" d="M320.74,-188.75C362.02,-198.92 437.2,-217 450,-217 450,-217 450,-217 550.48,-217 589.86,-217 634.31,-208.34 664.23,-201.22"/>
<polygon fill="#000000" fill-opacity="0.200000" stroke="#000000" stroke-width="2" stroke-opacity="0.200000" points="664.37,-203.35 669.7,-199.88 663.38,-199.27 664.37,-203.35"/>
</g>
<!-- packages/substrate/src/__tests__&#45;&gt;packages/substrate/src/choreography -->
<g id="edge31" class="edge">
<title>packages/substrate/src/__tests__&#45;&gt;packages/substrate/src/choreography</title>
<path fill="none" stroke="#000000" stroke-width="2" stroke-opacity="0.200000" d="M294.43,-172.92C297.16,-148.18 308.48,-79.54 351.62,-51 402.88,-17.09 478.87,-38.51 519.83,-54.4"/>
<polygon fill="#000000" fill-opacity="0.200000" stroke="#000000" stroke-width="2" stroke-opacity="0.200000" points="518.85,-56.28 525.2,-56.56 520.42,-52.38 518.85,-56.28"/>
</g>
<!-- packages/substrate/src/__tests__&#45;&gt;packages/substrate/src/facade -->
<g id="edge36" class="edge">
<title>packages/substrate/src/__tests__&#45;&gt;packages/substrate/src/facade</title>
<path fill="none" stroke="#000000" stroke-width="2" stroke-opacity="0.200000" d="M299.02,-173.05C308.21,-158.4 328.23,-129.14 351.62,-111 377.55,-90.89 386.58,-87.05 418.62,-80 446.73,-73.81 455.3,-73.66 483.38,-80 487.57,-80.95 506.04,-89.82 522.24,-97.83"/>
<polygon fill="#000000" fill-opacity="0.200000" stroke="#000000" stroke-width="2" stroke-opacity="0.200000" points="520.92,-99.52 527.23,-100.31 522.79,-95.76 520.92,-99.52"/>
</g>
<!-- packages/substrate/src/__tests__&#45;&gt;packages/substrate/src/event&#45;plane -->
<g id="edge32" class="edge">
<title>packages/substrate/src/__tests__&#45;&gt;packages/substrate/src/event&#45;plane</title>
<path fill="none" stroke="#000000" stroke-width="2" stroke-opacity="0.200000" d="M311.21,-172.73C322.48,-167.14 337.59,-160.28 351.62,-156 370.43,-150.26 391.88,-146.27 409.95,-143.6"/>
<polygon fill="#000000" fill-opacity="0.200000" stroke="#000000" stroke-width="2" stroke-opacity="0.200000" points="409.87,-145.74 415.52,-142.82 409.29,-141.58 409.87,-145.74"/>
</g>
<!-- packages/substrate/src/__tests__&#45;&gt;packages/substrate/src/projection -->
<g id="edge37" class="edge">
<title>packages/substrate/src/__tests__&#45;&gt;packages/substrate/src/projection</title>
<path fill="none" stroke="#000000" stroke-width="2" stroke-opacity="0.200000" d="M305.21,-172.88C316.63,-164.11 334.78,-150.79 351.62,-141 373.45,-128.32 399.35,-116.32 419.1,-107.76"/>
<polygon fill="#000000" fill-opacity="0.200000" stroke="#000000" stroke-width="2" stroke-opacity="0.200000" points="419.68,-109.79 424.37,-105.5 418.03,-105.93 419.68,-109.79"/>
</g>
<!-- packages/substrate/src/event&#45;plane&#45;&gt;packages/substrate/src/descriptors -->
<g id="edge42" class="edge">
<title>packages/substrate/src/event&#45;plane&#45;&gt;packages/substrate/src/descriptors</title>
<path fill="none" stroke="#000000" stroke-width="2" stroke-opacity="0.200000" d="M483.55,-145.97C513.36,-152.56 558.15,-162.46 590.04,-169.51"/>
<polygon fill="#000000" fill-opacity="0.200000" stroke="#000000" stroke-width="2" stroke-opacity="0.200000" points="589.4,-171.52 595.71,-170.76 590.31,-167.41 589.4,-171.52"/>
</g>
<!-- packages/substrate/src/event&#45;plane&#45;&gt;packages/substrate/src -->
<g id="edge43" class="edge">
<title>packages/substrate/src/event&#45;plane&#45;&gt;packages/substrate/src</title>
<path fill="none" stroke="#000000" stroke-width="2" stroke-opacity="0.200000" d="M473.73,-129.64C477.37,-127.26 480.79,-124.4 483.38,-121 493.04,-108.29 495.98,-89.53 496.85,-77.8"/>
<polygon fill="#000000" fill-opacity="0.200000" stroke="#000000" stroke-width="2" stroke-opacity="0.200000" points="498.94,-78 497.08,-71.92 494.74,-77.84 498.94,-78"/>
</g>
</g>
</svg>
