<?xml version="1.0" encoding="UTF-8" standalone="no"?>
<!DOCTYPE svg PUBLIC "-//W3C//DTD SVG 1.1//EN"
 "http://www.w3.org/Graphics/SVG/1.1/DTD/svg11.dtd">
<!-- Generated by graphviz version 14.1.5 (20260411.2331)
 -->
<!-- Title: dependency&#45;cruiser output Pages: 1 -->
<svg width="749pt" height="372pt"
 viewBox="0.00 0.00 749.00 372.00" xmlns="http://www.w3.org/2000/svg" xmlns:xlink="http://www.w3.org/1999/xlink">
<g id="graph0" class="graph" transform="scale(1 1) rotate(0) translate(4 368)">
<title>dependency&#45;cruiser output</title>
<polygon fill="white" stroke="none" points="-4,4 -4,-368 745,-368 745,4 -4,4"/>
<g id="clust1" class="cluster">
<title>cluster_apps</title>
<path fill="#ffffff" stroke="black" stroke-width="2" d="M20,-8C20,-8 576,-8 576,-8 582,-8 588,-14 588,-20 588,-20 588,-344 588,-344 588,-350 582,-356 576,-356 576,-356 20,-356 20,-356 14,-356 8,-350 8,-344 8,-344 8,-20 8,-20 8,-14 14,-8 20,-8"/>
<text xml:space="preserve" text-anchor="middle" x="298" y="-343.45" font-family="Helvetica,sans-Serif" font-weight="bold" font-size="9.00">apps</text>
</g>
<g id="clust2" class="cluster">
<title>cluster_apps/lab</title>
<path fill="#ffffff" stroke="black" stroke-width="2" d="M28,-16C28,-16 568,-16 568,-16 574,-16 580,-22 580,-28 580,-28 580,-318 580,-318 580,-324 574,-330 568,-330 568,-330 28,-330 28,-330 22,-330 16,-324 16,-318 16,-318 16,-28 16,-28 16,-22 22,-16 28,-16"/>
<text xml:space="preserve" text-anchor="middle" x="298" y="-317.45" font-family="Helvetica,sans-Serif" font-weight="bold" font-size="9.00">lab</text>
</g>
<g id="clust3" class="cluster">
<title>cluster_apps/lab/src</title>
<path fill="#ffffff" stroke="black" stroke-width="2" d="M36,-24C36,-24 560,-24 560,-24 566,-24 572,-30 572,-36 572,-36 572,-292 572,-292 572,-298 566,-304 560,-304 560,-304 36,-304 36,-304 30,-304 24,-298 24,-292 24,-292 24,-36 24,-36 24,-30 30,-24 36,-24"/>
<text xml:space="preserve" text-anchor="middle" x="298" y="-291.45" font-family="Helvetica,sans-Serif" font-weight="bold" font-size="9.00">src</text>
</g>
<g id="clust4" class="cluster">
<title>cluster_apps/lab/src/__tests__</title>
<path fill="#ffffff" stroke="black" stroke-width="2" d="M206.25,-32C206.25,-32 338,-32 338,-32 344,-32 350,-38 350,-44 350,-44 350,-162 350,-162 350,-168 344,-174 338,-174 338,-174 206.25,-174 206.25,-174 200.25,-174 194.25,-168 194.25,-162 194.25,-162 194.25,-44 194.25,-44 194.25,-38 200.25,-32 206.25,-32"/>
<text xml:space="preserve" text-anchor="middle" x="272.12" y="-161.45" font-family="Helvetica,sans-Serif" font-weight="bold" font-size="9.00">__tests__</text>
</g>
<g id="clust5" class="cluster">
<title>cluster_apps/lab/src/lab</title>
<path fill="#ffffff" stroke="black" stroke-width="2" d="M136.25,-182C136.25,-182 552,-182 552,-182 558,-182 564,-188 564,-194 564,-194 564,-266 564,-266 564,-272 558,-278 552,-278 552,-278 136.25,-278 136.25,-278 130.25,-278 124.25,-272 124.25,-266 124.25,-266 124.25,-194 124.25,-194 124.25,-188 130.25,-182 136.25,-182"/>
<text xml:space="preserve" text-anchor="middle" x="344.12" y="-265.45" font-family="Helvetica,sans-Serif" font-weight="bold" font-size="9.00">lab</text>
</g>
<g id="clust6" class="cluster">
<title>cluster_packages</title>
<path fill="#ffffff" stroke="black" stroke-width="2" d="M608,-154C608,-154 721,-154 721,-154 727,-154 733,-160 733,-166 733,-166 733,-224 733,-224 733,-230 727,-236 721,-236 721,-236 608,-236 608,-236 602,-236 596,-230 596,-224 596,-224 596,-166 596,-166 596,-160 602,-154 608,-154"/>
<text xml:space="preserve" text-anchor="middle" x="664.5" y="-223.45" font-family="Helvetica,sans-Serif" font-weight="bold" font-size="9.00">packages</text>
</g>
<!-- apps/lab/src/__tests__/browser&#45;bundle&#45;guard.test.ts -->
<g id="node1" class="node">
<title>apps/lab/src/__tests__/browser&#45;bundle&#45;guard.test.ts</title>
<g id="a_node1"><a xlink:href="apps/lab/src/__tests__/browser-bundle-guard.test.ts" xlink:title="browser&#45;bundle&#45;guard.test.ts">
<path fill="#ccffcc" stroke="black" d="M332.71,-57.88C332.71,-57.88 211.54,-57.88 211.54,-57.88 208.58,-57.88 205.62,-54.92 205.62,-51.96 205.62,-51.96 205.62,-46.04 205.62,-46.04 205.62,-43.08 208.58,-40.12 211.54,-40.12 211.54,-40.12 332.71,-40.12 332.71,-40.12 335.67,-40.12 338.62,-43.08 338.62,-46.04 338.62,-46.04 338.62,-51.96 338.62,-51.96 338.62,-54.92 335.67,-57.88 332.71,-57.88"/>
<text xml:space="preserve" text-anchor="start" x="213.62" y="-46.38" font-family="Helvetica,sans-Serif" font-size="9.00">browser&#45;bundle&#45;guard.test.ts</text>
</a>
</g>
</g>
<!-- apps/lab/src/__tests__/dev&#45;default&#45;attach.test.ts -->
<g id="node2" class="node">
<title>apps/lab/src/__tests__/dev&#45;default&#45;attach.test.ts</title>
<g id="a_node2"><a xlink:href="apps/lab/src/__tests__/dev-default-attach.test.ts" xlink:title="dev&#45;default&#45;attach.test.ts">
<path fill="#ccffcc" stroke="black" d="M323.71,-87.88C323.71,-87.88 220.54,-87.88 220.54,-87.88 217.58,-87.88 214.62,-84.92 214.62,-81.96 214.62,-81.96 214.62,-76.04 214.62,-76.04 214.62,-73.08 217.58,-70.12 220.54,-70.12 220.54,-70.12 323.71,-70.12 323.71,-70.12 326.67,-70.12 329.62,-73.08 329.62,-76.04 329.62,-76.04 329.62,-81.96 329.62,-81.96 329.62,-84.92 326.67,-87.88 323.71,-87.88"/>
<text xml:space="preserve" text-anchor="start" x="222.62" y="-76.38" font-family="Helvetica,sans-Serif" font-size="9.00">dev&#45;default&#45;attach.test.ts</text>
</a>
</g>
</g>
<!-- apps/lab/src/__tests__/eventstream&#45;workbench.test.ts -->
<g id="node3" class="node">
<title>apps/lab/src/__tests__/eventstream&#45;workbench.test.ts</title>
<g id="a_node3"><a xlink:href="apps/lab/src/__tests__/eventstream-workbench.test.ts" xlink:title="eventstream&#45;workbench.test.ts">
<path fill="#ddfeff" stroke="black" d="M336.08,-147.88C336.08,-147.88 208.17,-147.88 208.17,-147.88 205.21,-147.88 202.25,-144.92 202.25,-141.96 202.25,-141.96 202.25,-136.04 202.25,-136.04 202.25,-133.08 205.21,-130.12 208.17,-130.12 208.17,-130.12 336.08,-130.12 336.08,-130.12 339.04,-130.12 342,-133.08 342,-136.04 342,-136.04 342,-141.96 342,-141.96 342,-144.92 339.04,-147.88 336.08,-147.88"/>
<text xml:space="preserve" text-anchor="start" x="210.25" y="-136.38" font-family="Helvetica,sans-Serif" font-size="9.00">eventstream&#45;workbench.test.ts</text>
</a>
</g>
</g>
<!-- apps/lab/src/lab/lab&#45;events.ts -->
<g id="node4" class="node">
<title>apps/lab/src/lab/lab&#45;events.ts</title>
<g id="a_node4"><a xlink:href="apps/lab/src/lab/lab-events.ts" xlink:title="lab&#45;events.ts">
<path fill="#ddfeff" stroke="black" d="M550.08,-207.88C550.08,-207.88 494.17,-207.88 494.17,-207.88 491.21,-207.88 488.25,-204.92 488.25,-201.96 488.25,-201.96 488.25,-196.04 488.25,-196.04 488.25,-193.08 491.21,-190.12 494.17,-190.12 494.17,-190.12 550.08,-190.12 550.08,-190.12 553.04,-190.12 556,-193.08 556,-196.04 556,-196.04 556,-201.96 556,-201.96 556,-204.92 553.04,-207.88 550.08,-207.88"/>
<text xml:space="preserve" text-anchor="start" x="496.25" y="-196.38" font-family="Helvetica,sans-Serif" font-size="9.00">lab&#45;events.ts</text>
</a>
</g>
</g>
<!-- apps/lab/src/__tests__/eventstream&#45;workbench.test.ts&#45;&gt;apps/lab/src/lab/lab&#45;events.ts -->
<g id="edge1" class="edge">
<title>apps/lab/src/__tests__/eventstream&#45;workbench.test.ts&#45;&gt;apps/lab/src/lab/lab&#45;events.ts</title>
<path fill="none" stroke="#000000" stroke-width="2" stroke-opacity="0.200000" d="M321.23,-148.34C362.38,-156.66 423.07,-169.7 475.25,-184 478.61,-184.92 482.09,-185.94 485.56,-187"/>
<polygon fill="#000000" fill-opacity="0.200000" stroke="#000000" stroke-width="2" stroke-opacity="0.200000" points="484.85,-188.97 491.2,-188.77 486.11,-184.97 484.85,-188.97"/>
</g>
<!-- apps/lab/src/lab/LabEventStreamClient.ts -->
<g id="node5" class="node">
<title>apps/lab/src/lab/LabEventStreamClient.ts</title>
<g id="a_node5"><a xlink:href="apps/lab/src/lab/LabEventStreamClient.ts" xlink:title="LabEventStreamClient.ts">
<path fill="#ddfeff" stroke="black" d="M469.33,-207.88C469.33,-207.88 363.92,-207.88 363.92,-207.88 360.96,-207.88 358,-204.92 358,-201.96 358,-201.96 358,-196.04 358,-196.04 358,-193.08 360.96,-190.12 363.92,-190.12 363.92,-190.12 469.33,-190.12 469.33,-190.12 472.29,-190.12 475.25,-193.08 475.25,-196.04 475.25,-196.04 475.25,-201.96 475.25,-201.96 475.25,-204.92 472.29,-207.88 469.33,-207.88"/>
<text xml:space="preserve" text-anchor="start" x="366" y="-196.38" font-family="Helvetica,sans-Serif" font-size="9.00">LabEventStreamClient.ts</text>
</a>
</g>
</g>
<!-- apps/lab/src/__tests__/eventstream&#45;workbench.test.ts&#45;&gt;apps/lab/src/lab/LabEventStreamClient.ts -->
<g id="edge2" class="edge">
<title>apps/lab/src/__tests__/eventstream&#45;workbench.test.ts&#45;&gt;apps/lab/src/lab/LabEventStreamClient.ts</title>
<path fill="none" stroke="#000000" stroke-width="2" stroke-opacity="0.200000" d="M295.39,-148.38C319.55,-158.55 358.26,-174.85 385.21,-186.19"/>
<polygon fill="#000000" fill-opacity="0.200000" stroke="#000000" stroke-width="2" stroke-opacity="0.200000" points="384.38,-188.12 390.73,-188.52 386.01,-184.25 384.38,-188.12"/>
</g>
<!-- packages/client -->
<g id="node7" class="node">
<title>packages/client</title>
<g id="a_node7"><a xlink:href="packages/client" xlink:title="client">
<polygon fill="#ccffcc" stroke="black" points="658,-179.88 605.97,-179.88 604,-177.9 604,-162.12 656.03,-162.12 658,-164.1 658,-179.88"/>
<polyline fill="none" stroke="black" points="656.03,-177.9 604,-177.9"/>
<polyline fill="none" stroke="black" points="656.03,-177.9 656.03,-162.12"/>
<polyline fill="none" stroke="black" points="656.03,-177.9 658,-179.88"/>
<text xml:space="preserve" text-anchor="start" x="620.12" y="-168.38" font-family="Helvetica,sans-Serif" font-size="9.00">client</text>
</a>
</g>
</g>
<!-- apps/lab/src/lab/lab&#45;events.ts&#45;&gt;packages/client -->
<g id="edge13" class="edge">
<title>apps/lab/src/lab/lab&#45;events.ts&#45;&gt;packages/client</title>
<path fill="none" stroke="#000000" stroke-width="2" stroke-opacity="0.200000" d="M556.36,-190.29C568.58,-187.09 582.47,-183.45 594.86,-180.21"/>
<polygon fill="#000000" fill-opacity="0.200000" stroke="#000000" stroke-width="2" stroke-opacity="0.200000" points="595.37,-182.24 600.64,-178.69 594.31,-178.18 595.37,-182.24"/>
</g>
<!-- apps/lab/src/lab/LabEventStreamClient.ts&#45;&gt;apps/lab/src/lab/lab&#45;events.ts -->
<g id="edge7" class="edge">
<title>apps/lab/src/lab/LabEventStreamClient.ts&#45;&gt;apps/lab/src/lab/lab&#45;events.ts</title>
<path fill="none" stroke="#000000" stroke-width="2" stroke-opacity="0.200000" d="M475.73,-199C476.89,-199 478.06,-199 479.21,-199"/>
<polygon fill="#000000" fill-opacity="0.200000" stroke="#000000" stroke-width="2" stroke-opacity="0.200000" points="478.87,-201.1 484.87,-199 478.87,-196.9 478.87,-201.1"/>
</g>
<!-- apps/lab/src/lab/LabEventStreamClient.ts&#45;&gt;packages/client -->
<g id="edge8" class="edge">
<title>apps/lab/src/lab/LabEventStreamClient.ts&#45;&gt;packages/client</title>
<path fill="none" stroke="#000000" stroke-width="2" stroke-opacity="0.200000" d="M457.44,-189.69C467.45,-187.58 478.21,-185.52 488.25,-184 524.3,-178.54 565.88,-175.05 594.64,-173.08"/>
<polygon fill="#000000" fill-opacity="0.200000" stroke="#000000" stroke-width="2" stroke-opacity="0.200000" points="594.63,-175.19 600.48,-172.69 594.35,-171 594.63,-175.19"/>
</g>
<!-- apps/lab/src/__tests__/skeleton.test.ts -->
<g id="node6" class="node">
<title>apps/lab/src/__tests__/skeleton.test.ts</title>
<g id="a_node6"><a xlink:href="apps/lab/src/__tests__/skeleton.test.ts" xlink:title="skeleton.test.ts">
<path fill="#ddfeff" stroke="black" d="M304.21,-117.88C304.21,-117.88 240.04,-117.88 240.04,-117.88 237.08,-117.88 234.12,-114.92 234.12,-111.96 234.12,-111.96 234.12,-106.04 234.12,-106.04 234.12,-103.08 237.08,-100.12 240.04,-100.12 240.04,-100.12 304.21,-100.12 304.21,-100.12 307.17,-100.12 310.12,-103.08 310.12,-106.04 310.12,-106.04 310.12,-111.96 310.12,-111.96 310.12,-114.92 307.17,-117.88 304.21,-117.88"/>
<text xml:space="preserve" text-anchor="start" x="242.12" y="-106.38" font-family="Helvetica,sans-Serif" font-size="9.00">skeleton.test.ts</text>
</a>
</g>
</g>
<!-- apps/lab/src/__tests__/skeleton.test.ts&#45;&gt;packages/client -->
<g id="edge3" class="edge">
<title>apps/lab/src/__tests__/skeleton.test.ts&#45;&gt;packages/client</title>
<path fill="none" stroke="#000000" stroke-width="2" stroke-dasharray="5,2" stroke-opacity="0.200000" d="M310.31,-115.46C379.67,-127.51 527.87,-153.26 595.31,-164.97"/>
<polygon fill="#000000" fill-opacity="0.200000" stroke="#000000" stroke-width="2" stroke-opacity="0.200000" points="594.63,-166.99 600.9,-165.95 595.35,-162.85 594.63,-166.99"/>
</g>
<!-- packages/substrate -->
<g id="node14" class="node">
<title>packages/substrate</title>
<g id="a_node14"><a xlink:href="packages/substrate" xlink:title="substrate">
<polygon fill="#ffffcc" stroke="black" points="725,-194.88 672.97,-194.88 671,-192.9 671,-177.12 723.03,-177.12 725,-179.1 725,-194.88"/>
<polyline fill="none" stroke="black" points="723.03,-192.9 671,-192.9"/>
<polyline fill="none" stroke="black" points="723.03,-192.9 723.03,-177.12"/>
<polyline fill="none" stroke="black" points="723.03,-192.9 725,-194.88"/>
<text xml:space="preserve" text-anchor="start" x="679.25" y="-183.38" font-family="Helvetica,sans-Serif" font-size="9.00">substrate</text>
</a>
</g>
</g>
<!-- packages/client&#45;&gt;packages/substrate -->
<g id="edge15" class="edge">
<title>packages/client&#45;&gt;packages/substrate</title>
<path fill="none" stroke="#000000" stroke-width="2" stroke-opacity="0.200000" d="M658.44,-177.1C659.71,-177.4 661,-177.69 662.29,-177.99"/>
<polygon fill="#000000" fill-opacity="0.200000" stroke="#000000" stroke-width="2" stroke-opacity="0.200000" points="661.53,-179.97 667.85,-179.27 662.47,-175.88 661.53,-179.97"/>
</g>
<!-- apps/lab/src/css&#45;modules.d.ts -->
<g id="node8" class="node">
<title>apps/lab/src/css&#45;modules.d.ts</title>
<g id="a_node8"><a xlink:href="apps/lab/src/css-modules.d.ts" xlink:title="css&#45;modules.d.ts">
<path fill="#ccffcc" stroke="black" d="M110.33,-128.88C110.33,-128.88 37.92,-128.88 37.92,-128.88 34.96,-128.88 32,-125.92 32,-122.96 32,-122.96 32,-117.04 32,-117.04 32,-114.08 34.96,-111.12 37.92,-111.12 37.92,-111.12 110.33,-111.12 110.33,-111.12 113.29,-111.12 116.25,-114.08 116.25,-117.04 116.25,-117.04 116.25,-122.96 116.25,-122.96 116.25,-125.92 113.29,-128.88 110.33,-128.88"/>
<text xml:space="preserve" text-anchor="start" x="40" y="-117.38" font-family="Helvetica,sans-Serif" font-size="9.00">css&#45;modules.d.ts</text>
</a>
</g>
</g>
<!-- apps/lab/src/lab/App.tsx -->
<g id="node9" class="node">
<title>apps/lab/src/lab/App.tsx</title>
<g id="a_node9"><a xlink:href="apps/lab/src/lab/App.tsx" xlink:title="App.tsx">
<path fill="#bbfeff" stroke="black" d="M180.33,-237.88C180.33,-237.88 138.17,-237.88 138.17,-237.88 135.21,-237.88 132.25,-234.92 132.25,-231.96 132.25,-231.96 132.25,-226.04 132.25,-226.04 132.25,-223.08 135.21,-220.12 138.17,-220.12 138.17,-220.12 180.33,-220.12 180.33,-220.12 183.29,-220.12 186.25,-223.08 186.25,-226.04 186.25,-226.04 186.25,-231.96 186.25,-231.96 186.25,-234.92 183.29,-237.88 180.33,-237.88"/>
<text xml:space="preserve" text-anchor="start" x="144.25" y="-226.38" font-family="Helvetica,sans-Serif" font-size="9.00">App.tsx</text>
</a>
</g>
</g>
<!-- apps/lab/src/lab/LabEventStreamPanel.tsx -->
<g id="node10" class="node">
<title>apps/lab/src/lab/LabEventStreamPanel.tsx</title>
<g id="a_node10"><a xlink:href="apps/lab/src/lab/LabEventStreamPanel.tsx" xlink:title="LabEventStreamPanel.tsx">
<path fill="#bbfeff" stroke="black" d="M327.08,-207.88C327.08,-207.88 217.17,-207.88 217.17,-207.88 214.21,-207.88 211.25,-204.92 211.25,-201.96 211.25,-201.96 211.25,-196.04 211.25,-196.04 211.25,-193.08 214.21,-190.12 217.17,-190.12 217.17,-190.12 327.08,-190.12 327.08,-190.12 330.04,-190.12 333,-193.08 333,-196.04 333,-196.04 333,-201.96 333,-201.96 333,-204.92 330.04,-207.88 327.08,-207.88"/>
<text xml:space="preserve" text-anchor="start" x="219.25" y="-196.38" font-family="Helvetica,sans-Serif" font-size="9.00">LabEventStreamPanel.tsx</text>
</a>
</g>
</g>
<!-- apps/lab/src/lab/App.tsx&#45;&gt;apps/lab/src/lab/LabEventStreamPanel.tsx -->
<g id="edge4" class="edge">
<title>apps/lab/src/lab/App.tsx&#45;&gt;apps/lab/src/lab/LabEventStreamPanel.tsx</title>
<path fill="none" stroke="#000000" stroke-width="2" stroke-opacity="0.200000" d="M179.38,-219.67C184.16,-217.59 189.33,-215.55 194.25,-214 198.26,-212.74 202.41,-211.57 206.63,-210.48"/>
<polygon fill="#000000" fill-opacity="0.200000" stroke="#000000" stroke-width="2" stroke-opacity="0.200000" points="207.06,-212.54 212.39,-209.08 206.06,-208.46 207.06,-212.54"/>
</g>
<!-- apps/lab/src/lab/RawStreamInspector.tsx -->
<g id="node11" class="node">
<title>apps/lab/src/lab/RawStreamInspector.tsx</title>
<g id="a_node11"><a xlink:href="apps/lab/src/lab/RawStreamInspector.tsx" xlink:title="RawStreamInspector.tsx">
<path fill="#bbfeff" stroke="black" d="M323.71,-237.88C323.71,-237.88 220.54,-237.88 220.54,-237.88 217.58,-237.88 214.62,-234.92 214.62,-231.96 214.62,-231.96 214.62,-226.04 214.62,-226.04 214.62,-223.08 217.58,-220.12 220.54,-220.12 220.54,-220.12 323.71,-220.12 323.71,-220.12 326.67,-220.12 329.62,-223.08 329.62,-226.04 329.62,-226.04 329.62,-231.96 329.62,-231.96 329.62,-234.92 326.67,-237.88 323.71,-237.88"/>
<text xml:space="preserve" text-anchor="start" x="222.62" y="-226.38" font-family="Helvetica,sans-Serif" font-size="9.00">RawStreamInspector.tsx</text>
</a>
</g>
</g>
<!-- apps/lab/src/lab/App.tsx&#45;&gt;apps/lab/src/lab/RawStreamInspector.tsx -->
<g id="edge5" class="edge">
<title>apps/lab/src/lab/App.tsx&#45;&gt;apps/lab/src/lab/RawStreamInspector.tsx</title>
<path fill="none" stroke="#000000" stroke-width="2" stroke-opacity="0.200000" d="M186.53,-229C192.47,-229 199.04,-229 205.81,-229"/>
<polygon fill="#000000" fill-opacity="0.200000" stroke="#000000" stroke-width="2" stroke-opacity="0.200000" points="205.44,-231.1 211.44,-229 205.44,-226.9 205.44,-231.1"/>
</g>
<!-- apps/lab/src/lab/styles.module.css -->
<g id="node12" class="node">
<title>apps/lab/src/lab/styles.module.css</title>
<g id="a_node12"><a xlink:href="apps/lab/src/lab/styles.module.css" xlink:title="styles.module.css">
<path fill="#ffffcc" stroke="black" d="M454.71,-251.88C454.71,-251.88 378.54,-251.88 378.54,-251.88 375.58,-251.88 372.62,-248.92 372.62,-245.96 372.62,-245.96 372.62,-240.04 372.62,-240.04 372.62,-237.08 375.58,-234.12 378.54,-234.12 378.54,-234.12 454.71,-234.12 454.71,-234.12 457.67,-234.12 460.62,-237.08 460.62,-240.04 460.62,-240.04 460.62,-245.96 460.62,-245.96 460.62,-248.92 457.67,-251.88 454.71,-251.88"/>
<text xml:space="preserve" text-anchor="start" x="380.62" y="-240.38" font-family="Helvetica,sans-Serif" font-size="9.00">styles.module.css</text>
</a>
</g>
</g>
<!-- apps/lab/src/lab/App.tsx&#45;&gt;apps/lab/src/lab/styles.module.css -->
<g id="edge6" class="edge">
<title>apps/lab/src/lab/App.tsx&#45;&gt;apps/lab/src/lab/styles.module.css</title>
<path fill="none" stroke="#000000" stroke-width="2" stroke-opacity="0.200000" d="M177.43,-238.23C182.68,-240.59 188.57,-242.8 194.25,-244 261.98,-258.28 280.78,-244.53 350,-244 354.37,-243.97 358.91,-243.92 363.47,-243.87"/>
<polygon fill="#000000" fill-opacity="0.200000" stroke="#000000" stroke-width="2" stroke-opacity="0.200000" points="363.21,-245.97 369.18,-243.79 363.15,-241.77 363.21,-245.97"/>
</g>
<!-- apps/lab/src/lab/LabEventStreamPanel.tsx&#45;&gt;apps/lab/src/lab/lab&#45;events.ts -->
<g id="edge9" class="edge">
<title>apps/lab/src/lab/LabEventStreamPanel.tsx&#45;&gt;apps/lab/src/lab/lab&#45;events.ts</title>
<path fill="none" stroke="#000000" stroke-width="2" stroke-opacity="0.200000" d="M318.33,-208.31C359.46,-215.37 421.74,-222.53 475.25,-214 479.79,-213.28 484.49,-212.18 489.07,-210.89"/>
<polygon fill="#000000" fill-opacity="0.200000" stroke="#000000" stroke-width="2" stroke-opacity="0.200000" points="489.66,-212.91 494.77,-209.14 488.42,-208.89 489.66,-212.91"/>
</g>
<!-- apps/lab/src/lab/LabEventStreamPanel.tsx&#45;&gt;apps/lab/src/lab/LabEventStreamClient.ts -->
<g id="edge10" class="edge">
<title>apps/lab/src/lab/LabEventStreamPanel.tsx&#45;&gt;apps/lab/src/lab/LabEventStreamClient.ts</title>
<path fill="none" stroke="#000000" stroke-width="2" stroke-opacity="0.200000" d="M333.14,-199C338.41,-199 343.75,-199 349.07,-199"/>
<polygon fill="#000000" fill-opacity="0.200000" stroke="#000000" stroke-width="2" stroke-opacity="0.200000" points="348.92,-201.1 354.92,-199 348.92,-196.9 348.92,-201.1"/>
</g>
<!-- apps/lab/src/lab/LabEventStreamPanel.tsx&#45;&gt;apps/lab/src/lab/styles.module.css -->
<g id="edge11" class="edge">
<title>apps/lab/src/lab/LabEventStreamPanel.tsx&#45;&gt;apps/lab/src/lab/styles.module.css</title>
<path fill="none" stroke="#000000" stroke-width="2" stroke-opacity="0.200000" d="M333.19,-206.07C339.12,-208.12 344.84,-210.71 350,-214 355.1,-217.25 353.09,-221.48 358,-225 360.62,-226.88 363.45,-228.57 366.39,-230.09"/>
<polygon fill="#000000" fill-opacity="0.200000" stroke="#000000" stroke-width="2" stroke-opacity="0.200000" points="365.31,-231.9 371.64,-232.46 367.04,-228.08 365.31,-231.9"/>
</g>
<!-- apps/lab/src/lab/RawStreamInspector.tsx&#45;&gt;apps/lab/src/lab/styles.module.css -->
<g id="edge12" class="edge">
<title>apps/lab/src/lab/RawStreamInspector.tsx&#45;&gt;apps/lab/src/lab/styles.module.css</title>
<path fill="none" stroke="#000000" stroke-width="2" stroke-opacity="0.200000" d="M329.85,-234.57C340.89,-235.66 352.41,-236.79 363.3,-237.86"/>
<polygon fill="#000000" fill-opacity="0.200000" stroke="#000000" stroke-width="2" stroke-opacity="0.200000" points="363.08,-239.95 369.25,-238.44 363.49,-235.77 363.08,-239.95"/>
</g>
<!-- apps/lab/src/main.tsx -->
<g id="node13" class="node">
<title>apps/lab/src/main.tsx</title>
<g id="a_node13"><a xlink:href="apps/lab/src/main.tsx" xlink:title="main.tsx">
<path fill="#bbfeff" stroke="black" d="M95.21,-237.88C95.21,-237.88 53.04,-237.88 53.04,-237.88 50.08,-237.88 47.12,-234.92 47.12,-231.96 47.12,-231.96 47.12,-226.04 47.12,-226.04 47.12,-223.08 50.08,-220.12 53.04,-220.12 53.04,-220.12 95.21,-220.12 95.21,-220.12 98.17,-220.12 101.12,-223.08 101.12,-226.04 101.12,-226.04 101.12,-231.96 101.12,-231.96 101.12,-234.92 98.17,-237.88 95.21,-237.88"/>
<text xml:space="preserve" text-anchor="start" x="57.25" y="-226.38" font-family="Helvetica,sans-Serif" font-size="9.00">main.tsx</text>
</a>
</g>
</g>
<!-- apps/lab/src/main.tsx&#45;&gt;apps/lab/src/lab/App.tsx -->
<g id="edge14" class="edge">
<title>apps/lab/src/main.tsx&#45;&gt;apps/lab/src/lab/App.tsx</title>
<path fill="none" stroke="#000000" stroke-width="2" stroke-opacity="0.200000" d="M101.43,-229C108.25,-229 115.71,-229 122.91,-229"/>
<polygon fill="#000000" fill-opacity="0.200000" stroke="#000000" stroke-width="2" stroke-opacity="0.200000" points="122.81,-231.1 128.81,-229 122.81,-226.9 122.81,-231.1"/>
</g>
<!-- packages/runtime -->
<g id="node15" class="node">
<title>packages/runtime</title>
<g id="a_node15"><a xlink:href="packages/runtime" xlink:title="runtime">
<polygon fill="#ffffcc" stroke="black" points="658,-209.88 605.97,-209.88 604,-207.9 604,-192.12 656.03,-192.12 658,-194.1 658,-209.88"/>
<polyline fill="none" stroke="black" points="656.03,-207.9 604,-207.9"/>
<polyline fill="none" stroke="black" points="656.03,-207.9 656.03,-192.12"/>
<polyline fill="none" stroke="black" points="656.03,-207.9 658,-209.88"/>
<text xml:space="preserve" text-anchor="start" x="615.62" y="-198.38" font-family="Helvetica,sans-Serif" font-size="9.00">runtime</text>
</a>
</g>
</g>
<!-- packages/runtime&#45;&gt;packages/substrate -->
<g id="edge16" class="edge">
<title>packages/runtime&#45;&gt;packages/substrate</title>
<path fill="none" stroke="#000000" stroke-width="2" stroke-opacity="0.200000" d="M658.44,-194.9C659.71,-194.6 661,-194.31 662.29,-194.01"/>
<polygon fill="#000000" fill-opacity="0.200000" stroke="#000000" stroke-width="2" stroke-opacity="0.200000" points="662.47,-196.12 667.85,-192.73 661.53,-192.03 662.47,-196.12"/>
</g>
</g>
</svg>
